<svg id="Layer_1" data-name="Layer 1" xmlns="http://www.w3.org/2000/svg" viewBox="0 0 600 600"><defs><style>.cls-1{fill:#1e1e1e;}.cls-2,.cls-3,.cls-4{fill:#4bdb4b;}.cls-2{opacity:0.4;}.cls-3{opacity:0.8;}</style></defs><rect class="cls-1" x="0.09" width="600" height="600" rx="300"/><path class="cls-2" d="M470.76,362.65A57.55,57.55,0,1,1,371,420L250.19,210.82A57.55,57.55,0,0,1,350,153.46Z"/><path class="cls-3" d="M229.23,420a57.56,57.56,0,0,1-99.82-57.35L250.18,153.47A57.56,57.56,0,1,1,350,210.82Z"/><path class="cls-4" d="M349.64,152.89c-.66-1.14-1.38-2.23-2.12-3.3-.35-.52-.68-1-1-1.54-.72-1-1.49-1.91-2.25-2.83-.47-.56-.93-1.14-1.42-1.68-.69-.77-1.43-1.48-2.15-2.21s-1.27-1.28-1.94-1.89-1.31-1.11-2-1.65c-.83-.69-1.65-1.38-2.53-2-.6-.44-1.23-.85-1.84-1.26-1-.66-2-1.31-3-1.92-.22-.13-.41-.28-.62-.4-.47-.27-.95-.47-1.41-.72-1-.52-1.95-1-2.94-1.49s-1.69-.75-2.55-1.1-1.67-.68-2.51-1c-1-.35-2-.67-3-1-.74-.22-1.49-.43-2.23-.62-1.08-.27-2.16-.5-3.25-.71-.74-.14-1.48-.27-2.22-.38-1.06-.16-2.13-.29-3.2-.39-.82-.08-1.64-.14-2.47-.18s-1.93-.07-2.89-.07-1.91,0-2.86.07-1.67.1-2.51.18c-1.06.1-2.11.22-3.15.38-.76.12-1.51.25-2.27.39-1.07.21-2.14.44-3.2.71-.77.19-1.52.4-2.28.63-1,.29-2,.61-3,1s-1.73.65-2.58,1-1.67.69-2.48,1.07c-1,.48-2,1-3,1.54-.45.24-.91.43-1.35.69-.21.12-.4.26-.6.39-1.06.62-2.07,1.29-3.07,2-.59.4-1.18.78-1.75,1.2-.93.68-1.8,1.4-2.67,2.12-.6.51-1.22,1-1.81,1.53s-1.43,1.37-2.13,2.07-1.33,1.32-2,2-1.09,1.28-1.63,1.93c-.69.83-1.38,1.66-2,2.54-.45.61-.86,1.25-1.29,1.88-.65,1-1.29,1.92-1.89,2.93a57.54,57.54,0,0,0-.41,58l49.91,86.43L350,210.77A57.44,57.44,0,0,0,349.64,152.89Z"/></svg>