<svg width="40" height="40" viewBox="0 0 40 40" fill="none" xmlns="http://www.w3.org/2000/svg">
<circle cx="20" cy="20" r="20" fill="#848E9C" fill-opacity="0.1"/>
<path d="M12.8754 10.7942L19.9204 6.69336L26.9654 10.7942L24.3753 12.3091L19.9204 9.72327L15.4655 12.3091L12.8754 10.7942ZM26.9654 15.9659L24.3753 14.451L19.9204 17.0368L15.4655 14.451L12.8754 15.9659V18.9958L17.3303 21.5817V26.7534L19.9204 28.2684L22.5105 26.7534V21.5817L26.9654 18.9958V15.9659ZM26.9654 24.1676V21.1377L24.3753 22.6526V25.6825L26.9654 24.1676ZM28.8044 25.2385L24.3495 27.8244V30.8543L31.3945 26.7534V18.5518L28.8044 20.0668V25.2385ZM26.2143 13.3801L28.8044 14.895V17.9249L31.3945 16.41V13.3801L28.8044 11.8651L26.2143 13.3801ZM17.3303 28.9214V31.9513L19.9204 33.4663L22.5105 31.9513V28.9214L19.9204 30.4364L17.3303 28.9214ZM12.8754 24.1676L15.4655 25.6825V22.6526L12.8754 21.1377V24.1676ZM17.3303 13.3801L19.9204 14.895L22.5105 13.3801L19.9204 11.8651L17.3303 13.3801ZM11.0364 14.895L13.6265 13.3801L11.0364 11.8651L8.44629 13.3801V16.41L11.0364 17.9249V14.895ZM11.0364 20.0668L8.44629 18.5518V26.7534L15.4913 30.8543V27.8244L11.0364 25.2385V20.0668Z" fill="#F1B90C"/>
</svg>
