<svg width="412" height="364" viewBox="0 0 412 364" fill="none" xmlns="http://www.w3.org/2000/svg">
<rect x="4" y="1" width="408" height="363" rx="10" fill="#F6F8FB"/>
<g opacity="0.3">
<path d="M20.999 226.659L146.317 299.034C149.459 300.854 153.261 300.854 156.402 299.034L411.999 151.389L411.999 0.601318L20.999 226.659Z" fill="url(#paint0_linear)"/>
<path d="M411.999 303L281.344 226.869L411.999 151.408L411.999 303Z" fill="url(#paint1_linear)"/>
</g>
<path d="M113.646 249.611C112.026 250.546 109.95 249.993 109.064 248.346C101.407 234.116 96.8892 218.395 95.8306 202.244C94.6981 184.965 97.5555 167.658 104.182 151.661C110.808 135.663 121.026 121.405 134.044 109.988C146.213 99.316 160.525 91.3945 176.001 86.7459C177.792 86.2078 179.651 87.285 180.135 89.0916C180.619 90.8982 179.545 92.7499 177.755 93.2914C163.282 97.6689 149.898 105.093 138.51 115.08C126.273 125.812 116.668 139.215 110.439 154.253C104.211 169.29 101.525 185.559 102.589 201.801C103.58 216.915 107.794 231.629 114.932 244.958C115.815 246.607 115.266 248.676 113.646 249.611Z" fill="#00A76A"/>
<path d="M185.709 87.7533C185.32 85.9238 186.488 84.1201 188.328 83.7862C213.085 79.2953 238.637 83.2054 260.917 94.8938C262.573 95.7627 263.148 97.8331 262.23 99.4626C261.312 101.092 259.248 101.663 257.59 100.798C236.749 89.915 212.879 86.2623 189.737 90.4146C187.896 90.745 186.098 89.5828 185.709 87.7533Z" fill="#FBBF53"/>
<path d="M266.502 101.999C267.493 100.413 269.586 99.9267 271.142 100.965C294.096 116.284 310.647 139.487 317.658 166.178C318.133 167.987 316.992 169.808 315.169 170.229C313.347 170.649 311.534 169.511 311.055 167.703C304.453 142.761 288.984 121.075 267.551 106.712C265.997 105.671 265.511 103.585 266.502 101.999Z" fill="#FC3B38"/>
<circle cx="205.982" cy="184.107" r="13.9464" fill="#D1D1DE"/>
<circle cx="206.212" cy="184.111" r="3.4866" fill="white"/>
<circle cx="205.946" cy="184.107" r="13.9464" fill="#D1D1DE"/>
<path d="M201.967 189.267C198.741 186.494 198.585 181.552 201.629 178.582L244.644 136.612C245.57 135.708 247.033 135.662 248.015 136.505C249.009 137.36 249.173 138.838 248.39 139.89L212.506 188.098C209.997 191.47 205.155 192.007 201.967 189.267Z" fill="#111444"/>
<circle cx="206.177" cy="184.111" r="3.4866" fill="white"/>
<circle cx="168.432" cy="300.126" r="11.4316" fill="#173962"/>
<path d="M167.945 295.804L167.89 295.909C167.853 295.983 167.791 296.075 167.705 296.18C167.619 296.285 167.508 296.389 167.385 296.5C167.262 296.611 167.083 296.716 166.861 296.814C166.633 296.913 166.387 296.975 166.116 297.005V298.206H167.625V304.637H169.522V295.804H167.945Z" fill="#FEFEFE"/>
<path d="M194.817 305.626V304.325H190.399V296.524H188.971V305.626H194.817ZM194.684 296.524V297.825H197.413V305.626H198.841V297.825H201.571V296.524H194.684ZM205.805 305.626H207.233L210.807 296.524H209.315L206.516 303.805L203.723 296.524H202.225L205.805 305.626Z" fill="#83888C"/>
<path d="M219.269 303.952C218.793 303.952 218.376 303.803 218.034 303.49C217.691 303.178 217.52 302.828 217.52 302.426C217.52 302.032 217.691 301.682 218.034 301.369C218.376 301.057 218.793 300.901 219.269 300.901C219.745 300.901 220.162 301.057 220.504 301.369C220.847 301.682 221.018 302.032 221.018 302.426C221.018 302.828 220.847 303.178 220.504 303.49C220.162 303.803 219.745 303.952 219.269 303.952ZM219.276 299.07C218.867 299.07 218.532 298.958 218.279 298.72C218.026 298.489 217.9 298.199 217.9 297.857C217.9 297.514 218.026 297.224 218.279 296.993C218.532 296.755 218.867 296.643 219.276 296.643C219.678 296.643 220.013 296.755 220.266 296.993C220.519 297.224 220.646 297.514 220.646 297.857C220.646 298.199 220.519 298.489 220.266 298.72C220.013 298.958 219.678 299.07 219.276 299.07ZM219.269 305.857C220.385 305.857 221.316 305.522 222.053 304.845C222.789 304.168 223.161 303.364 223.161 302.426C223.161 302.099 223.102 301.786 222.983 301.488C222.864 301.191 222.737 300.953 222.596 300.759C222.462 300.573 222.298 300.402 222.112 300.246C221.926 300.082 221.799 299.985 221.725 299.94C221.651 299.896 221.599 299.859 221.554 299.844L221.859 299.628C222.067 299.479 222.268 299.233 222.469 298.876C222.678 298.519 222.774 298.132 222.774 297.708C222.774 296.911 222.44 296.219 221.77 295.624C221.1 295.028 220.266 294.731 219.269 294.731C218.272 294.731 217.438 295.028 216.768 295.624C216.099 296.219 215.764 296.911 215.764 297.708C215.764 297.976 215.808 298.236 215.89 298.482C215.979 298.727 216.076 298.928 216.18 299.077C216.285 299.226 216.411 299.367 216.553 299.501C216.701 299.635 216.798 299.717 216.85 299.754C216.91 299.792 216.947 299.821 216.977 299.844L216.813 299.933C216.701 300 216.567 300.104 216.411 300.246C216.255 300.394 216.099 300.558 215.942 300.752C215.793 300.945 215.659 301.191 215.548 301.488C215.436 301.786 215.377 302.099 215.377 302.426C215.377 303.364 215.749 304.168 216.486 304.845C217.222 305.522 218.153 305.857 219.269 305.857ZM231.095 299.985L231.244 299.911C231.356 299.866 231.482 299.784 231.631 299.665C231.78 299.546 231.921 299.405 232.07 299.233C232.219 299.07 232.345 298.846 232.45 298.578C232.554 298.311 232.613 298.013 232.613 297.7C232.613 296.859 232.286 296.152 231.631 295.587C230.976 295.021 230.105 294.731 229.034 294.731C228.565 294.731 228.118 294.79 227.694 294.909C227.262 295.028 226.92 295.155 226.659 295.289C226.399 295.423 226.161 295.587 225.937 295.773C225.714 295.966 225.573 296.093 225.513 296.167C225.454 296.242 225.409 296.294 225.379 296.331L226.749 297.7L226.979 297.455C227.128 297.298 227.366 297.135 227.709 296.963C228.051 296.8 228.416 296.71 228.803 296.71C229.249 296.71 229.607 296.83 229.867 297.053C230.12 297.283 230.254 297.574 230.254 297.931C230.254 298.318 230.12 298.631 229.86 298.869C229.599 299.107 229.249 299.226 228.803 299.226H227.739V301.131H228.885C229.428 301.131 229.852 301.265 230.165 301.518C230.477 301.779 230.634 302.106 230.634 302.501C230.634 302.903 230.47 303.23 230.157 303.483C229.845 303.744 229.391 303.87 228.803 303.87C228.505 303.87 228.222 303.833 227.947 303.751C227.672 303.677 227.448 303.587 227.27 303.483C227.091 303.379 226.927 303.267 226.771 303.133C226.607 302.999 226.511 302.91 226.466 302.858C226.421 302.806 226.384 302.761 226.369 302.731L224.992 304.175L225.149 304.346C225.245 304.473 225.409 304.614 225.632 304.778C225.856 304.942 226.116 305.098 226.414 305.262C226.711 305.426 227.098 305.567 227.567 305.686C228.036 305.805 228.527 305.857 229.034 305.857C230.224 305.857 231.177 305.545 231.906 304.912C232.636 304.287 233 303.535 233 302.657C233 302.27 232.926 301.92 232.792 301.593C232.651 301.265 232.494 301.012 232.331 300.826C232.167 300.647 231.973 300.484 231.757 300.342C231.534 300.201 231.385 300.112 231.296 300.074C231.207 300.037 231.14 300.007 231.095 299.985ZM234.831 304.637C234.831 304.942 234.95 305.21 235.188 305.433C235.427 305.664 235.709 305.775 236.052 305.775C236.387 305.775 236.677 305.664 236.915 305.433C237.153 305.21 237.272 304.942 237.272 304.637C237.272 304.331 237.153 304.064 236.915 303.833C236.677 303.61 236.387 303.49 236.052 303.49C235.709 303.49 235.427 303.61 235.188 303.833C234.95 304.064 234.831 304.331 234.831 304.637ZM244.819 299.985L244.968 299.911C245.079 299.866 245.206 299.784 245.355 299.665C245.504 299.546 245.645 299.405 245.794 299.233C245.943 299.07 246.069 298.846 246.173 298.578C246.278 298.311 246.337 298.013 246.337 297.7C246.337 296.859 246.01 296.152 245.355 295.587C244.7 295.021 243.829 294.731 242.757 294.731C242.288 294.731 241.842 294.79 241.418 294.909C240.986 295.028 240.644 295.155 240.383 295.289C240.123 295.423 239.885 295.587 239.661 295.773C239.438 295.966 239.297 296.093 239.237 296.167C239.178 296.242 239.133 296.294 239.103 296.331L240.473 297.7L240.703 297.455C240.852 297.298 241.09 297.135 241.433 296.963C241.775 296.8 242.14 296.71 242.527 296.71C242.973 296.71 243.33 296.83 243.591 297.053C243.844 297.283 243.978 297.574 243.978 297.931C243.978 298.318 243.844 298.631 243.583 298.869C243.323 299.107 242.973 299.226 242.527 299.226H241.462V301.131H242.609C243.152 301.131 243.576 301.265 243.889 301.518C244.201 301.779 244.357 302.106 244.357 302.501C244.357 302.903 244.194 303.23 243.881 303.483C243.569 303.744 243.115 303.87 242.527 303.87C242.229 303.87 241.946 303.833 241.671 303.751C241.395 303.677 241.172 303.587 240.993 303.483C240.815 303.379 240.651 303.267 240.495 303.133C240.331 302.999 240.234 302.91 240.19 302.858C240.145 302.806 240.108 302.761 240.093 302.731L238.716 304.175L238.872 304.346C238.969 304.473 239.133 304.614 239.356 304.778C239.579 304.942 239.84 305.098 240.138 305.262C240.435 305.426 240.822 305.567 241.291 305.686C241.76 305.805 242.251 305.857 242.757 305.857C243.948 305.857 244.901 305.545 245.63 304.912C246.359 304.287 246.724 303.535 246.724 302.657C246.724 302.27 246.65 301.92 246.516 301.593C246.374 301.265 246.218 301.012 246.054 300.826C245.891 300.647 245.697 300.484 245.481 300.342C245.258 300.201 245.109 300.112 245.02 300.074C244.931 300.037 244.864 300.007 244.819 299.985ZM249.85 297.246C249.85 296.941 249.947 296.688 250.155 296.48C250.356 296.279 250.609 296.175 250.914 296.175C251.219 296.175 251.472 296.279 251.681 296.48C251.882 296.688 251.986 296.941 251.986 297.246C251.986 297.551 251.882 297.804 251.681 298.005C251.472 298.214 251.219 298.311 250.914 298.311C250.609 298.311 250.356 298.214 250.155 298.005C249.947 297.804 249.85 297.551 249.85 297.246ZM249.776 305.626H251.681L258.386 294.954H256.481L249.776 305.626ZM253.512 297.246C253.512 296.584 253.251 295.996 252.745 295.49C252.239 294.984 251.629 294.731 250.914 294.731C250.2 294.731 249.59 294.984 249.083 295.49C248.577 295.996 248.324 296.584 248.324 297.246C248.324 297.909 248.577 298.497 249.083 299.003C249.59 299.509 250.2 299.762 250.914 299.762C251.629 299.762 252.239 299.509 252.745 299.003C253.251 298.497 253.512 297.909 253.512 297.246ZM258.312 303.342C258.312 303.647 258.208 303.9 258.007 304.101C257.799 304.309 257.545 304.406 257.24 304.406C256.935 304.406 256.682 304.309 256.481 304.101C256.273 303.9 256.176 303.647 256.176 303.342C256.176 303.036 256.273 302.783 256.481 302.575C256.682 302.374 256.935 302.27 257.24 302.27C257.545 302.27 257.799 302.374 258.007 302.575C258.208 302.783 258.312 303.036 258.312 303.342ZM254.65 303.342C254.65 304.004 254.903 304.592 255.409 305.098C255.916 305.604 256.526 305.857 257.24 305.857C257.955 305.857 258.565 305.604 259.071 305.098C259.577 304.592 259.838 304.004 259.838 303.342C259.838 302.687 259.577 302.099 259.071 301.593C258.565 301.087 257.955 300.826 257.24 300.826C256.526 300.826 255.916 301.087 255.409 301.593C254.903 302.099 254.65 302.687 254.65 303.342Z" fill="#111444"/>
<circle cx="273" cy="106" r="9" fill="#173962" stroke="#F6F8FB" stroke-width="2"/>
<path d="M272.66 102.578L272.621 102.651C272.595 102.703 272.552 102.767 272.492 102.84C272.431 102.914 272.354 102.987 272.268 103.065C272.181 103.142 272.056 103.215 271.901 103.284C271.742 103.353 271.569 103.396 271.38 103.418V104.259H272.436V108.759H273.763V102.578H272.66Z" fill="#FEFEFE"/>
<g filter="url(#filter0_d)">
<rect x="40" y="37" width="64" height="64" rx="8" fill="#F6F8FB"/>
</g>
<path fill-rule="evenodd" clip-rule="evenodd" d="M81.7281 68.9677C86.0588 68.5908 89.3895 64.8883 89.251 60.4899C89.1076 55.9361 85.2997 52.3607 80.7458 52.5042C76.5323 52.6369 73.1565 55.9068 72.7891 60.0021C76.9623 61.4754 80.2668 64.7888 81.7281 68.9677ZM80.1213 68.9527C78.7942 65.6126 76.1355 62.9464 72.8005 61.6094C73.2035 65.4936 76.2856 68.5441 80.1213 68.9527Z" fill="#9EB3EE"/>
<path fill-rule="evenodd" clip-rule="evenodd" d="M68.7831 51.3612C69.1346 51.0135 69.7014 51.0166 70.0491 51.3681L71.7245 53.0621C72.0578 53.3992 72.0706 53.9377 71.7536 54.2902L70.2456 55.9669C69.915 56.3345 69.349 56.3644 68.9814 56.0338C68.6138 55.7032 68.5838 55.1372 68.9144 54.7696L69.028 54.6433C68.0971 54.7764 67.1712 55.0597 66.2831 55.5047C64.7618 56.2671 63.5542 57.4023 62.7131 58.744C62.4505 59.1628 61.898 59.2895 61.4791 59.0269C61.0602 58.7643 60.9336 58.2118 61.1962 57.7929C62.2067 56.1812 63.6582 54.8175 65.481 53.9041C66.6133 53.3367 67.7989 52.9881 68.9892 52.8425L68.7761 52.6271C68.4285 52.2756 68.4316 51.7088 68.7831 51.3612Z" fill="#1E4DD8"/>
<path fill-rule="evenodd" clip-rule="evenodd" d="M67.9189 86.9216C75.1677 86.9216 81.0439 81.0454 81.0439 73.7966C81.0439 66.5479 75.1677 60.6716 67.9189 60.6716C60.6702 60.6716 54.7939 66.5479 54.7939 73.7966C54.7939 81.0454 60.6702 86.9216 67.9189 86.9216ZM67.8793 67.1811C67.9865 66.781 67.749 66.3697 67.3489 66.2625C66.9488 66.1553 66.5376 66.3927 66.4304 66.7928L66.2427 67.4933L65.0666 67.1782C64.6665 67.071 64.2552 67.3084 64.148 67.7085C64.0408 68.1086 64.2783 68.5199 64.6784 68.6271L65.8545 68.9422L63.7001 76.9823L62.5276 76.6664C62.1276 76.5586 61.7161 76.7955 61.6083 77.1954C61.5005 77.5954 61.7374 78.007 62.1373 78.1147L63.3119 78.4312L63.1225 79.1382C63.0153 79.5383 63.2527 79.9495 63.6528 80.0567C64.0529 80.1639 64.4641 79.9265 64.5714 79.5264L64.7602 78.8215L66.1603 79.1987L65.9714 79.9037C65.8642 80.3038 66.1017 80.715 66.5018 80.8222C66.9019 80.9294 67.3131 80.692 67.4203 80.2919L67.6087 79.589L68.3066 79.777C70.0181 80.2382 71.7791 79.2231 72.2379 77.5109C72.5593 76.3114 72.1561 75.0885 71.2966 74.3068C71.895 73.8894 72.3549 73.2667 72.5585 72.5069C72.9945 70.8798 72.0979 69.2096 70.5378 68.6549L70.7277 67.9463C70.8349 67.5462 70.5974 67.1349 70.1973 67.0277C69.7972 66.9205 69.386 67.1579 69.2788 67.558L69.0916 68.2567L67.6916 67.8816L67.8793 67.1811ZM68.6968 78.3287L65.1485 77.3726L66.0304 74.0811L69.5824 75.0329C70.4927 75.2768 71.0329 76.2124 70.789 77.1227C70.5448 78.0339 69.6077 78.5741 68.6968 78.3287ZM69.4276 69.9005C69.4159 69.8974 69.4044 69.894 69.393 69.8904L67.3033 69.3305L66.4192 72.6302L69.0177 73.3265C69.9289 73.5706 70.8655 73.0299 71.1096 72.1187C71.3538 71.2075 70.813 70.2709 69.9018 70.0267L69.4625 69.909C69.4509 69.9065 69.4392 69.9036 69.4276 69.9005Z" fill="#1E4DD8"/>
<defs>
<filter id="filter0_d" x="0" y="5.63767" width="144" height="144" filterUnits="userSpaceOnUse" color-interpolation-filters="sRGB">
<feFlood flood-opacity="0" result="BackgroundImageFix"/>
<feColorMatrix in="SourceAlpha" type="matrix" values="0 0 0 0 0 0 0 0 0 0 0 0 0 0 0 0 0 0 127 0" result="hardAlpha"/>
<feOffset dy="8.63767"/>
<feGaussianBlur stdDeviation="20"/>
<feColorMatrix type="matrix" values="0 0 0 0 0.0187153 0 0 0 0 0.0261333 0 0 0 0 0.204167 0 0 0 0.05 0"/>
<feBlend mode="normal" in2="BackgroundImageFix" result="effect1_dropShadow"/>
<feBlend mode="normal" in="SourceGraphic" in2="effect1_dropShadow" result="shape"/>
</filter>
<linearGradient id="paint0_linear" x1="-39.6721" y1="245.08" x2="620.372" y2="-145.968" gradientUnits="userSpaceOnUse">
<stop stop-color="#E6E9EC"/>
<stop offset="1" stop-color="#F6F8FB" stop-opacity="0"/>
</linearGradient>
<linearGradient id="paint1_linear" x1="338.287" y1="164.943" x2="518.321" y2="343.939" gradientUnits="userSpaceOnUse">
<stop offset="0.0212266" stop-color="#E6E9EC"/>
<stop offset="0.572639" stop-color="#F6F8FB"/>
</linearGradient>
</defs>
</svg>
