<svg width="412" height="363" viewBox="0 0 412 363" fill="none" xmlns="http://www.w3.org/2000/svg">
<rect x="4" width="408" height="363" rx="10" fill="#F6F8FB"/>
<g opacity="0.3">
<path d="M18.999 226.058L144.317 298.433C147.459 300.253 151.261 300.253 154.402 298.433L409.999 150.788L409.999 0.000244141L18.999 226.058Z" fill="url(#paint0_linear)"/>
<path d="M409.999 302.399L279.344 226.268L409.999 150.807L409.999 302.399Z" fill="url(#paint1_linear)"/>
</g>
<path d="M113.646 248.611C112.026 249.546 109.95 248.993 109.064 247.346C101.407 233.116 96.8892 217.395 95.8306 201.244C94.6981 183.965 97.5555 166.658 104.182 150.661C110.808 134.663 121.026 120.405 134.044 108.988C146.213 98.316 160.525 90.3945 176.001 85.7459C177.792 85.2078 179.651 86.285 180.135 88.0916C180.619 89.8982 179.545 91.7499 177.755 92.2914C163.282 96.6689 149.898 104.093 138.51 114.08C126.273 124.812 116.668 138.215 110.439 153.253C104.211 168.29 101.525 184.559 102.589 200.801C103.58 215.915 107.794 230.629 114.932 243.958C115.815 245.607 115.266 247.676 113.646 248.611Z" fill="#00A76A"/>
<path d="M185.709 86.7533C185.32 84.9238 186.488 83.1201 188.328 82.7862C213.085 78.2953 238.637 82.2054 260.917 93.8938C262.573 94.7627 263.148 96.8331 262.23 98.4626C261.312 100.092 259.248 100.663 257.59 99.7976C236.749 88.915 212.879 85.2623 189.737 89.4146C187.896 89.745 186.098 88.5828 185.709 86.7533Z" fill="#FBBF53"/>
<path d="M266.502 100.999C267.493 99.4131 269.586 98.9267 271.142 99.965C294.096 115.284 310.647 138.487 317.658 165.178C318.133 166.987 316.992 168.808 315.169 169.229C313.347 169.649 311.534 168.511 311.055 166.703C304.453 141.761 288.984 120.075 267.551 105.712C265.997 104.671 265.511 102.585 266.502 100.999Z" fill="#FC3B38"/>
<circle cx="205.983" cy="183.107" r="13.9464" fill="#D1D1DE"/>
<path d="M208.065 189.999C203.914 190.929 199.858 188.101 199.295 183.884L191.348 124.315C191.177 123.032 192.015 121.831 193.278 121.548C194.557 121.261 195.84 122.013 196.216 123.269L213.425 180.85C214.629 184.877 212.166 189.08 208.065 189.999Z" fill="#111444"/>
<circle cx="206.212" cy="183.111" r="3.4866" fill="white"/>
<circle cx="191" cy="86" r="9" fill="#FFBB01" stroke="#F6F8FB" stroke-width="2"/>
<path d="M190.66 82.5775L190.621 82.6508C190.595 82.7025 190.552 82.7672 190.492 82.8404C190.431 82.9137 190.354 82.987 190.268 83.0646C190.181 83.1422 190.056 83.2154 189.901 83.2844C189.742 83.3534 189.569 83.3965 189.38 83.418V84.2585H190.436V88.7585H191.763V82.5775H190.66Z" fill="#FEFEFE"/>
<circle cx="224" cy="86" r="9" fill="#FF9901" stroke="#F6F8FB" stroke-width="2"/>
<path d="M225.953 88.7585V87.5215H223.306C223.427 87.3318 223.608 87.1379 223.849 86.9482C224.087 86.7585 224.319 86.5861 224.548 86.4353C224.776 86.2844 225 86.1206 225.22 85.9396C225.436 85.7585 225.612 85.543 225.75 85.2844C225.884 85.0301 225.953 84.7456 225.953 84.431C225.953 83.8749 225.746 83.4051 225.341 83.0215C224.936 82.6422 224.418 82.4482 223.789 82.4482C223.466 82.4482 223.168 82.5042 222.901 82.6077C222.634 82.7111 222.427 82.8275 222.28 82.9525C222.134 83.0818 222.005 83.2284 221.893 83.3965C221.78 83.5646 221.712 83.681 221.686 83.7456C221.66 83.8146 221.638 83.8663 221.63 83.9051L222.733 84.431L222.802 84.2456C222.854 84.1249 222.957 83.9999 223.121 83.8706C223.285 83.7456 223.479 83.681 223.703 83.681C223.983 83.681 224.199 83.7542 224.354 83.8965C224.509 84.0387 224.587 84.2327 224.587 84.4784C224.587 84.6896 224.509 84.8879 224.362 85.0689C224.216 85.2499 224.03 85.4094 223.815 85.5473C223.599 85.6853 223.362 85.8491 223.108 86.043C222.849 86.237 222.612 86.4396 222.397 86.6551C222.177 86.8706 221.996 87.1594 221.849 87.5258C221.703 87.8965 221.63 88.306 221.63 88.7585H225.953Z" fill="#FEFEFE"/>
<circle cx="256" cy="96" r="9" fill="#FC7717" stroke="#F6F8FB" stroke-width="2"/>
<path d="M256.94 95.4913L257.026 95.4482C257.091 95.4223 257.164 95.3749 257.25 95.306C257.337 95.237 257.418 95.1551 257.505 95.056C257.591 94.9611 257.664 94.8318 257.724 94.6766C257.785 94.5215 257.819 94.3491 257.819 94.168C257.819 93.681 257.63 93.2715 257.25 92.9439C256.871 92.6163 256.367 92.4482 255.746 92.4482C255.474 92.4482 255.216 92.4827 254.97 92.5516C254.72 92.6206 254.522 92.6939 254.371 92.7715C254.22 92.8491 254.082 92.9439 253.953 93.0516C253.824 93.1637 253.742 93.237 253.707 93.2801C253.673 93.3232 253.647 93.3534 253.63 93.3749L254.423 94.168L254.556 94.0258C254.643 93.9353 254.78 93.8404 254.979 93.7413C255.177 93.6465 255.388 93.5948 255.612 93.5948C255.871 93.5948 256.078 93.6637 256.229 93.793C256.375 93.9266 256.453 94.0948 256.453 94.3016C256.453 94.5258 256.375 94.7068 256.224 94.8448C256.074 94.9827 255.871 95.0516 255.612 95.0516H254.996V96.1551H255.66C255.974 96.1551 256.22 96.2327 256.401 96.3792C256.582 96.5301 256.673 96.7198 256.673 96.9482C256.673 97.181 256.578 97.3706 256.397 97.5172C256.216 97.668 255.953 97.7413 255.612 97.7413C255.44 97.7413 255.276 97.7198 255.117 97.6723C254.957 97.6292 254.828 97.5775 254.724 97.5172C254.621 97.4568 254.526 97.3922 254.436 97.3146C254.341 97.237 254.285 97.1853 254.259 97.1551C254.233 97.1249 254.212 97.0991 254.203 97.0818L253.405 97.918L253.496 98.0172C253.552 98.0904 253.647 98.1723 253.776 98.2672C253.905 98.362 254.056 98.4525 254.229 98.5473C254.401 98.6422 254.625 98.7241 254.897 98.793C255.168 98.862 255.453 98.8922 255.746 98.8922C256.436 98.8922 256.987 98.7111 257.41 98.3448C257.832 97.9827 258.043 97.5473 258.043 97.0387C258.043 96.8146 258 96.612 257.923 96.4223C257.841 96.2327 257.75 96.0861 257.655 95.9784C257.561 95.8749 257.449 95.7801 257.324 95.6982C257.194 95.6163 257.108 95.5646 257.056 95.543C257.005 95.5215 256.966 95.5042 256.94 95.4913Z" fill="#FEFEFE"/>
<g filter="url(#filter0_d)">
<rect x="40" y="36" width="64" height="64" rx="8" fill="#F6F8FB"/>
</g>
<path d="M74.4361 53.3185C73.6056 53.0986 72.7289 52.9875 71.8211 53.0011C66.5131 53.038 62.2101 57.3947 62.3 62.7837C62.2269 62.9904 62.2547 65.9505 62.2741 66.1127C62.2987 71.9402 60.4162 74.0173 59.2337 75.3219C59.154 75.4098 59.0776 75.4942 59.005 75.576C57.9049 76.7341 58.7067 78.8073 60.3999 78.7935L83.5538 78.6366C85.1788 78.5984 86.182 76.6292 84.9517 75.3339C84.8726 75.2475 84.7888 75.1582 84.7013 75.065C83.5029 73.7886 81.609 71.7714 81.5845 65.9746C81.5748 65.8934 81.5691 65.0956 81.5634 64.2979C81.5611 63.9738 81.5588 63.6497 81.5562 63.3737C81.1336 63.4566 80.6969 63.5 80.25 63.5C76.5221 63.5 73.5 60.4779 73.5 56.75C73.5 55.4971 73.8413 54.324 74.4361 53.3185Z" fill="#9EB3EE"/>
<path d="M75.8852 53.8316C75.3261 54.6662 75 55.67 75 56.75C75 59.6495 77.3505 62 80.25 62C80.6841 62 81.1059 61.9473 81.5093 61.848C81.2165 58.2629 79.006 55.2323 75.8852 53.8316Z" fill="#9EB3EE"/>
<path d="M77.25 80C77.25 82.25 75 84.4996 72 84.4996C69 84.4996 66.8951 82.25 66.8951 80.0844L77.25 80Z" fill="#9EB3EE"/>
<circle cx="80.25" cy="56.75" r="5.25" fill="#1E4DD8"/>
<circle cx="49.4316" cy="299.126" r="11.4316" fill="#FFBB01"/>
<path d="M48.9452 294.804L48.8898 294.909C48.8528 294.983 48.7913 295.075 48.705 295.18C48.6188 295.285 48.5079 295.389 48.3847 295.5C48.2616 295.611 48.0829 295.716 47.8612 295.814C47.6333 295.913 47.3869 295.975 47.1159 296.005V297.206H48.625V303.637H50.522V294.804H48.9452Z" fill="#FEFEFE"/>
<path d="M75.817 304.626V303.325H71.3991V295.524H69.9708V304.626H75.817ZM75.6837 295.524V296.825H78.4132V304.626H79.8415V296.825H82.5709V295.524H75.6837ZM86.8048 304.626H88.2331L91.8068 295.524H90.3151L87.5158 302.805L84.7228 295.524H83.2248L86.8048 304.626Z" fill="#83888C"/>
<path d="M96.6148 293.954V296.016H101.49L97.3739 304.626H99.7406L103.931 295.785V293.954H96.6148ZM109.885 293.954L109.818 294.081C109.773 294.17 109.699 294.281 109.594 294.408C109.49 294.535 109.356 294.661 109.207 294.795C109.059 294.929 108.843 295.055 108.575 295.175C108.299 295.294 108.002 295.368 107.674 295.405V296.857H109.498V304.626H111.79V293.954H109.885ZM115.831 303.637C115.831 303.942 115.95 304.21 116.188 304.433C116.427 304.664 116.709 304.775 117.052 304.775C117.387 304.775 117.677 304.664 117.915 304.433C118.153 304.21 118.272 303.942 118.272 303.637C118.272 303.331 118.153 303.064 117.915 302.833C117.677 302.61 117.387 302.49 117.052 302.49C116.709 302.49 116.427 302.61 116.188 302.833C115.95 303.064 115.831 303.331 115.831 303.637ZM126.958 300.742V293.954H124.293L119.642 300.436V302.721H124.673V304.626H126.958V302.721H128.178V300.742H126.958ZM124.673 300.742H121.778L124.673 296.626V300.742ZM130.85 296.246C130.85 295.941 130.947 295.688 131.155 295.48C131.356 295.279 131.609 295.175 131.914 295.175C132.219 295.175 132.472 295.279 132.681 295.48C132.882 295.688 132.986 295.941 132.986 296.246C132.986 296.551 132.882 296.804 132.681 297.005C132.472 297.214 132.219 297.311 131.914 297.311C131.609 297.311 131.356 297.214 131.155 297.005C130.947 296.804 130.85 296.551 130.85 296.246ZM130.776 304.626H132.681L139.386 293.954H137.481L130.776 304.626ZM134.512 296.246C134.512 295.584 134.251 294.996 133.745 294.49C133.239 293.984 132.629 293.731 131.914 293.731C131.2 293.731 130.59 293.984 130.083 294.49C129.577 294.996 129.324 295.584 129.324 296.246C129.324 296.909 129.577 297.497 130.083 298.003C130.59 298.509 131.2 298.762 131.914 298.762C132.629 298.762 133.239 298.509 133.745 298.003C134.251 297.497 134.512 296.909 134.512 296.246ZM139.312 302.342C139.312 302.647 139.208 302.9 139.007 303.101C138.799 303.309 138.545 303.406 138.24 303.406C137.935 303.406 137.682 303.309 137.481 303.101C137.273 302.9 137.176 302.647 137.176 302.342C137.176 302.036 137.273 301.783 137.481 301.575C137.682 301.374 137.935 301.27 138.24 301.27C138.545 301.27 138.799 301.374 139.007 301.575C139.208 301.783 139.312 302.036 139.312 302.342ZM135.65 302.342C135.65 303.004 135.903 303.592 136.409 304.098C136.916 304.604 137.526 304.857 138.24 304.857C138.955 304.857 139.565 304.604 140.071 304.098C140.577 303.592 140.838 303.004 140.838 302.342C140.838 301.687 140.577 301.099 140.071 300.593C139.565 300.087 138.955 299.826 138.24 299.826C137.526 299.826 136.916 300.087 136.409 300.593C135.903 301.099 135.65 301.687 135.65 302.342Z" fill="#111444"/>
<circle cx="168.158" cy="299.126" r="11.4316" fill="#FF9901"/>
<path d="M170.949 303.637V301.869H167.167C167.339 301.598 167.598 301.321 167.943 301.05C168.282 300.779 168.614 300.532 168.941 300.317C169.267 300.101 169.587 299.867 169.901 299.609C170.209 299.35 170.462 299.042 170.659 298.672C170.85 298.309 170.949 297.902 170.949 297.453C170.949 296.658 170.653 295.987 170.074 295.439C169.495 294.897 168.756 294.62 167.857 294.62C167.395 294.62 166.97 294.7 166.588 294.847C166.206 294.995 165.91 295.162 165.701 295.34C165.491 295.525 165.307 295.734 165.147 295.975C164.986 296.215 164.888 296.381 164.851 296.474C164.814 296.572 164.783 296.646 164.771 296.701L166.348 297.453L166.446 297.188C166.52 297.016 166.668 296.837 166.902 296.652C167.136 296.474 167.413 296.381 167.733 296.381C168.134 296.381 168.442 296.486 168.663 296.689C168.885 296.892 168.996 297.17 168.996 297.521C168.996 297.822 168.885 298.106 168.676 298.364C168.466 298.623 168.201 298.851 167.894 299.048C167.586 299.245 167.247 299.479 166.883 299.756C166.514 300.034 166.175 300.323 165.867 300.631C165.553 300.939 165.294 301.352 165.085 301.875C164.875 302.405 164.771 302.99 164.771 303.637H170.949Z" fill="#FEFEFE"/>
<path d="M194.544 304.626V303.325H190.126V295.524H188.697V304.626H194.544ZM194.41 295.524V296.825H197.14V304.626H198.568V296.825H201.298V295.524H194.41ZM205.531 304.626H206.96L210.533 295.524H209.042L206.242 302.805L203.449 295.524H201.951L205.531 304.626Z" fill="#83888C"/>
<path d="M215.341 293.954V296.016H220.216L216.1 304.626H218.467L222.657 295.785V293.954H215.341ZM231.96 300.742V293.954H229.296L224.644 300.436V302.721H229.675V304.626H231.96V302.721H233.181V300.742H231.96ZM229.675 300.742H226.78L229.675 296.626V300.742ZM234.558 303.637C234.558 303.942 234.677 304.21 234.915 304.433C235.153 304.664 235.436 304.775 235.778 304.775C236.113 304.775 236.403 304.664 236.642 304.433C236.88 304.21 236.999 303.942 236.999 303.637C236.999 303.331 236.88 303.064 236.642 302.833C236.403 302.61 236.113 302.49 235.778 302.49C235.436 302.49 235.153 302.61 234.915 302.833C234.677 303.064 234.558 303.331 234.558 303.637ZM242.335 293.954L242.268 294.081C242.223 294.17 242.149 294.281 242.045 294.408C241.941 294.535 241.807 294.661 241.658 294.795C241.509 294.929 241.293 295.055 241.025 295.175C240.75 295.294 240.452 295.368 240.125 295.405V296.857H241.948V304.626H244.24V293.954H242.335ZM249.577 296.246C249.577 295.941 249.673 295.688 249.882 295.48C250.083 295.279 250.336 295.175 250.641 295.175C250.946 295.175 251.199 295.279 251.407 295.48C251.608 295.688 251.713 295.941 251.713 296.246C251.713 296.551 251.608 296.804 251.407 297.005C251.199 297.214 250.946 297.311 250.641 297.311C250.336 297.311 250.083 297.214 249.882 297.005C249.673 296.804 249.577 296.551 249.577 296.246ZM249.502 304.626H251.407L258.113 293.954H256.208L249.502 304.626ZM253.238 296.246C253.238 295.584 252.978 294.996 252.472 294.49C251.966 293.984 251.355 293.731 250.641 293.731C249.926 293.731 249.316 293.984 248.81 294.49C248.304 294.996 248.051 295.584 248.051 296.246C248.051 296.909 248.304 297.497 248.81 298.003C249.316 298.509 249.926 298.762 250.641 298.762C251.355 298.762 251.966 298.509 252.472 298.003C252.978 297.497 253.238 296.909 253.238 296.246ZM258.039 302.342C258.039 302.647 257.934 302.9 257.733 303.101C257.525 303.309 257.272 303.406 256.967 303.406C256.662 303.406 256.409 303.309 256.208 303.101C255.999 302.9 255.903 302.647 255.903 302.342C255.903 302.036 255.999 301.783 256.208 301.575C256.409 301.374 256.662 301.27 256.967 301.27C257.272 301.27 257.525 301.374 257.733 301.575C257.934 301.783 258.039 302.036 258.039 302.342ZM254.377 302.342C254.377 303.004 254.63 303.592 255.136 304.098C255.642 304.604 256.252 304.857 256.967 304.857C257.681 304.857 258.292 304.604 258.798 304.098C259.304 303.592 259.564 303.004 259.564 302.342C259.564 301.687 259.304 301.099 258.798 300.593C258.292 300.087 257.681 299.826 256.967 299.826C256.252 299.826 255.642 300.087 255.136 300.593C254.63 301.099 254.377 301.687 254.377 302.342Z" fill="#111444"/>
<circle cx="286.885" cy="299.126" r="11.4316" fill="#FC7717"/>
<path d="M288.228 298.968L288.351 298.906C288.443 298.869 288.548 298.802 288.671 298.703C288.794 298.605 288.911 298.488 289.035 298.346C289.158 298.21 289.262 298.026 289.349 297.804C289.435 297.582 289.484 297.336 289.484 297.077C289.484 296.381 289.213 295.796 288.671 295.328C288.129 294.86 287.408 294.62 286.522 294.62C286.134 294.62 285.764 294.669 285.413 294.767C285.056 294.866 284.772 294.971 284.557 295.082C284.341 295.192 284.144 295.328 283.959 295.482C283.775 295.642 283.657 295.747 283.608 295.808C283.559 295.87 283.522 295.913 283.497 295.944L284.631 297.077L284.822 296.874C284.945 296.745 285.142 296.609 285.425 296.467C285.709 296.332 286.01 296.258 286.331 296.258C286.7 296.258 286.996 296.356 287.211 296.541C287.421 296.732 287.532 296.972 287.532 297.268C287.532 297.588 287.421 297.847 287.205 298.044C286.99 298.241 286.7 298.34 286.331 298.34H285.45V299.917H286.398C286.848 299.917 287.199 300.027 287.458 300.237C287.716 300.452 287.846 300.723 287.846 301.05C287.846 301.382 287.71 301.653 287.452 301.863C287.193 302.078 286.817 302.183 286.331 302.183C286.084 302.183 285.85 302.152 285.622 302.085C285.394 302.023 285.21 301.949 285.062 301.863C284.914 301.777 284.778 301.684 284.649 301.573C284.514 301.463 284.434 301.389 284.397 301.345C284.36 301.302 284.329 301.265 284.317 301.241L283.177 302.436L283.306 302.577C283.386 302.682 283.522 302.799 283.707 302.935C283.892 303.07 284.107 303.199 284.353 303.335C284.6 303.47 284.92 303.587 285.308 303.686C285.696 303.785 286.103 303.828 286.522 303.828C287.507 303.828 288.295 303.569 288.899 303.045C289.503 302.528 289.804 301.906 289.804 301.179C289.804 300.859 289.743 300.569 289.632 300.298C289.515 300.027 289.386 299.818 289.25 299.664C289.115 299.516 288.954 299.381 288.776 299.264C288.591 299.147 288.468 299.073 288.394 299.042C288.32 299.011 288.265 298.986 288.228 298.968Z" fill="#FEFEFE"/>
<path d="M313.27 304.626V303.325H308.852V295.524H307.424V304.626H313.27ZM313.137 295.524V296.825H315.866V304.626H317.295V296.825H320.024V295.524H313.137ZM324.258 304.626H325.686L329.26 295.524H327.768L324.969 302.805L322.176 295.524H320.678L324.258 304.626Z" fill="#83888C"/>
<path d="M334.068 293.954V296.016H338.943L334.827 304.626H337.194L341.384 295.785V293.954H334.068ZM348.022 297.385C347.844 297.385 347.695 297.415 347.561 297.459L349.853 293.954H347.487L344.517 298.531L344.286 298.866C344.13 299.082 343.974 299.402 343.825 299.834C343.676 300.265 343.602 300.697 343.602 301.121C343.602 302.17 343.981 303.056 344.74 303.778C345.5 304.5 346.467 304.857 347.635 304.857C348.804 304.857 349.771 304.5 350.531 303.778C351.29 303.056 351.677 302.17 351.677 301.121C351.677 300.139 351.305 299.268 350.568 298.516C349.824 297.765 348.975 297.385 348.022 297.385ZM349.466 301.121C349.466 301.62 349.288 302.036 348.945 302.371C348.603 302.706 348.164 302.87 347.635 302.87C347.107 302.87 346.668 302.706 346.326 302.371C345.983 302.036 345.812 301.62 345.812 301.121C345.812 300.63 345.983 300.213 346.326 299.871C346.668 299.536 347.107 299.365 347.635 299.365C348.164 299.365 348.603 299.536 348.945 299.871C349.288 300.213 349.466 300.63 349.466 301.121ZM353.284 303.637C353.284 303.942 353.403 304.21 353.642 304.433C353.88 304.664 354.162 304.775 354.505 304.775C354.84 304.775 355.13 304.664 355.368 304.433C355.606 304.21 355.725 303.942 355.725 303.637C355.725 303.331 355.606 303.064 355.368 302.833C355.13 302.61 354.84 302.49 354.505 302.49C354.162 302.49 353.88 302.61 353.642 302.833C353.403 303.064 353.284 303.331 353.284 303.637ZM360.98 301.196C361.151 301.196 361.307 301.173 361.441 301.121L359.156 304.626H361.516L364.485 300.057L364.716 299.722C364.865 299.514 365.021 299.186 365.17 298.754C365.319 298.323 365.401 297.891 365.401 297.467C365.401 296.417 365.014 295.532 364.254 294.81C363.495 294.095 362.528 293.731 361.359 293.731C360.191 293.731 359.223 294.095 358.464 294.81C357.705 295.532 357.326 296.417 357.326 297.467C357.326 298.449 357.69 299.32 358.434 300.072C359.171 300.823 360.02 301.196 360.98 301.196ZM359.536 297.467C359.536 296.968 359.707 296.551 360.049 296.217C360.392 295.882 360.831 295.718 361.359 295.718C361.888 295.718 362.327 295.882 362.669 296.217C363.012 296.551 363.19 296.968 363.19 297.467C363.19 297.965 363.012 298.382 362.669 298.717C362.327 299.052 361.888 299.223 361.359 299.223C360.831 299.223 360.392 299.052 360.049 298.717C359.707 298.382 359.536 297.965 359.536 297.467ZM368.303 296.246C368.303 295.941 368.4 295.688 368.608 295.48C368.809 295.279 369.062 295.175 369.367 295.175C369.673 295.175 369.926 295.279 370.134 295.48C370.335 295.688 370.439 295.941 370.439 296.246C370.439 296.551 370.335 296.804 370.134 297.005C369.926 297.214 369.673 297.311 369.367 297.311C369.062 297.311 368.809 297.214 368.608 297.005C368.4 296.804 368.303 296.551 368.303 296.246ZM368.229 304.626H370.134L376.84 293.954H374.934L368.229 304.626ZM371.965 296.246C371.965 295.584 371.704 294.996 371.198 294.49C370.692 293.984 370.082 293.731 369.367 293.731C368.653 293.731 368.043 293.984 367.537 294.49C367.03 294.996 366.777 295.584 366.777 296.246C366.777 296.909 367.03 297.497 367.537 298.003C368.043 298.509 368.653 298.762 369.367 298.762C370.082 298.762 370.692 298.509 371.198 298.003C371.704 297.497 371.965 296.909 371.965 296.246ZM376.765 302.342C376.765 302.647 376.661 302.9 376.46 303.101C376.252 303.309 375.999 303.406 375.693 303.406C375.388 303.406 375.135 303.309 374.934 303.101C374.726 302.9 374.629 302.647 374.629 302.342C374.629 302.036 374.726 301.783 374.934 301.575C375.135 301.374 375.388 301.27 375.693 301.27C375.999 301.27 376.252 301.374 376.46 301.575C376.661 301.783 376.765 302.036 376.765 302.342ZM373.103 302.342C373.103 303.004 373.357 303.592 373.863 304.098C374.369 304.604 374.979 304.857 375.693 304.857C376.408 304.857 377.018 304.604 377.524 304.098C378.03 303.592 378.291 303.004 378.291 302.342C378.291 301.687 378.03 301.099 377.524 300.593C377.018 300.087 376.408 299.826 375.693 299.826C374.979 299.826 374.369 300.087 373.863 300.593C373.357 301.099 373.103 301.687 373.103 302.342Z" fill="#111444"/>
<path d="M200.797 225V223.398H195.359V213.797H193.602V225H200.797ZM200.633 213.797V215.398H203.992V225H205.75V215.398H209.109V213.797H200.633ZM214.32 225H216.078L220.477 213.797H218.641L215.195 222.758L211.758 213.797H209.914L214.32 225Z" fill="#83888C"/>
<defs>
<filter id="filter0_d" x="0" y="4.63767" width="144" height="144" filterUnits="userSpaceOnUse" color-interpolation-filters="sRGB">
<feFlood flood-opacity="0" result="BackgroundImageFix"/>
<feColorMatrix in="SourceAlpha" type="matrix" values="0 0 0 0 0 0 0 0 0 0 0 0 0 0 0 0 0 0 127 0" result="hardAlpha"/>
<feOffset dy="8.63767"/>
<feGaussianBlur stdDeviation="20"/>
<feColorMatrix type="matrix" values="0 0 0 0 0.0187153 0 0 0 0 0.0261333 0 0 0 0 0.204167 0 0 0 0.05 0"/>
<feBlend mode="normal" in2="BackgroundImageFix" result="effect1_dropShadow"/>
<feBlend mode="normal" in="SourceGraphic" in2="effect1_dropShadow" result="shape"/>
</filter>
<linearGradient id="paint0_linear" x1="-41.6721" y1="244.478" x2="618.372" y2="-146.569" gradientUnits="userSpaceOnUse">
<stop stop-color="#E6E9EC"/>
<stop offset="1" stop-color="#F6F8FB" stop-opacity="0"/>
</linearGradient>
<linearGradient id="paint1_linear" x1="336.287" y1="164.342" x2="516.321" y2="343.338" gradientUnits="userSpaceOnUse">
<stop offset="0.0212266" stop-color="#E6E9EC"/>
<stop offset="0.572639" stop-color="#F6F8FB"/>
</linearGradient>
</defs>
</svg>
