<svg width="412" height="364" viewBox="0 0 412 364" fill="none" xmlns="http://www.w3.org/2000/svg">
<rect x="4" y="1" width="408" height="363" rx="10" fill="#F6F8FB"/>
<g opacity="0.3">
<path d="M20.999 226.659L146.317 299.034C149.459 300.854 153.261 300.854 156.402 299.034L411.999 151.389L411.999 0.601318L20.999 226.659Z" fill="url(#paint0_linear)"/>
<path d="M411.999 303L281.344 226.869L411.999 151.408L411.999 303Z" fill="url(#paint1_linear)"/>
</g>
<path d="M113.646 249.611C112.026 250.546 109.95 249.993 109.064 248.346C101.407 234.116 96.8892 218.395 95.8306 202.244C94.6981 184.965 97.5555 167.658 104.182 151.661C110.808 135.663 121.026 121.405 134.044 109.988C146.213 99.316 160.525 91.3945 176.001 86.7459C177.792 86.2078 179.651 87.285 180.135 89.0916C180.619 90.8982 179.545 92.7499 177.755 93.2914C163.282 97.6689 149.898 105.093 138.51 115.08C126.273 125.812 116.668 139.215 110.439 154.253C104.211 169.29 101.525 185.559 102.589 201.801C103.58 216.915 107.794 231.629 114.932 244.958C115.815 246.607 115.266 248.676 113.646 249.611Z" fill="#00A76A"/>
<path d="M185.709 87.7533C185.32 85.9238 186.488 84.1201 188.328 83.7862C213.085 79.2953 238.637 83.2054 260.917 94.8938C262.573 95.7627 263.148 97.8331 262.23 99.4626C261.312 101.092 259.248 101.663 257.59 100.798C236.749 89.915 212.879 86.2623 189.737 90.4146C187.896 90.745 186.098 89.5828 185.709 87.7533Z" fill="#FBBF53"/>
<path d="M266.502 101.999C267.493 100.413 269.586 99.9267 271.142 100.965C294.096 116.284 310.647 139.487 317.658 166.178C318.133 167.987 316.992 169.808 315.169 170.229C313.347 170.649 311.534 169.511 311.055 167.703C304.453 142.761 288.984 121.075 267.551 106.712C265.997 105.671 265.511 103.585 266.502 101.999Z" fill="#FC3B38"/>
<circle cx="205.982" cy="184.107" r="13.9464" fill="#D1D1DE"/>
<path d="M202.002 189.267C198.776 186.495 198.62 181.553 201.665 178.582L244.679 136.612C245.605 135.708 247.068 135.662 248.05 136.506C249.044 137.36 249.208 138.838 248.425 139.89L212.542 188.098C210.032 191.47 205.19 192.007 202.002 189.267Z" fill="#111444"/>
<circle cx="206.212" cy="184.111" r="3.4866" fill="white"/>
<circle cx="273" cy="106" r="9" fill="#173962" stroke="#F6F8FB" stroke-width="2"/>
<path d="M272.66 102.578L272.621 102.651C272.595 102.703 272.552 102.767 272.492 102.84C272.431 102.914 272.354 102.987 272.268 103.065C272.181 103.142 272.056 103.215 271.901 103.284C271.742 103.353 271.569 103.396 271.38 103.418V104.259H272.436V108.759H273.763V102.578H272.66Z" fill="#FEFEFE"/>
<circle cx="168.432" cy="300" r="11.4316" fill="#173962"/>
<path d="M167.945 295.678L167.89 295.783C167.853 295.856 167.791 295.949 167.705 296.054C167.619 296.158 167.508 296.263 167.385 296.374C167.262 296.485 167.083 296.589 166.861 296.688C166.633 296.787 166.387 296.848 166.116 296.879V298.08H167.625V304.51H169.522V295.678H167.945Z" fill="#FEFEFE"/>
<path d="M194.817 305.5V304.199H190.399V296.397H188.971V305.5H194.817ZM194.684 296.397V297.699H197.413V305.5H198.841V297.699H201.571V296.397H194.684ZM205.805 305.5H207.233L210.807 296.397H209.315L206.516 303.678L203.723 296.397H202.225L205.805 305.5Z" fill="#83888C"/>
<path d="M219.269 303.825C218.793 303.825 218.376 303.677 218.034 303.364C217.691 303.051 217.52 302.702 217.52 302.3C217.52 301.905 217.691 301.556 218.034 301.243C218.376 300.93 218.793 300.774 219.269 300.774C219.745 300.774 220.162 300.93 220.504 301.243C220.847 301.556 221.018 301.905 221.018 302.3C221.018 302.702 220.847 303.051 220.504 303.364C220.162 303.677 219.745 303.825 219.269 303.825ZM219.276 298.943C218.867 298.943 218.532 298.832 218.279 298.593C218.026 298.363 217.9 298.072 217.9 297.73C217.9 297.388 218.026 297.097 218.279 296.867C218.532 296.629 218.867 296.517 219.276 296.517C219.678 296.517 220.013 296.629 220.266 296.867C220.519 297.097 220.646 297.388 220.646 297.73C220.646 298.072 220.519 298.363 220.266 298.593C220.013 298.832 219.678 298.943 219.276 298.943ZM219.269 305.731C220.385 305.731 221.316 305.396 222.053 304.719C222.789 304.041 223.161 303.237 223.161 302.3C223.161 301.972 223.102 301.66 222.983 301.362C222.864 301.064 222.737 300.826 222.596 300.633C222.462 300.447 222.298 300.275 222.112 300.119C221.926 299.955 221.799 299.859 221.725 299.814C221.651 299.769 221.599 299.732 221.554 299.717L221.859 299.501C222.067 299.353 222.268 299.107 222.469 298.75C222.678 298.392 222.774 298.005 222.774 297.581C222.774 296.785 222.44 296.093 221.77 295.497C221.1 294.902 220.266 294.604 219.269 294.604C218.272 294.604 217.438 294.902 216.768 295.497C216.099 296.093 215.764 296.785 215.764 297.581C215.764 297.849 215.808 298.11 215.89 298.355C215.979 298.601 216.076 298.802 216.18 298.951C216.285 299.1 216.411 299.241 216.553 299.375C216.701 299.509 216.798 299.591 216.85 299.628C216.91 299.665 216.947 299.695 216.977 299.717L216.813 299.807C216.701 299.874 216.567 299.978 216.411 300.119C216.255 300.268 216.099 300.432 215.942 300.625C215.793 300.819 215.659 301.064 215.548 301.362C215.436 301.66 215.377 301.972 215.377 302.3C215.377 303.237 215.749 304.041 216.486 304.719C217.222 305.396 218.153 305.731 219.269 305.731ZM231.095 299.859L231.244 299.784C231.356 299.74 231.482 299.658 231.631 299.539C231.78 299.42 231.921 299.278 232.07 299.107C232.219 298.943 232.345 298.72 232.45 298.452C232.554 298.184 232.613 297.886 232.613 297.574C232.613 296.733 232.286 296.026 231.631 295.46C230.976 294.895 230.105 294.604 229.034 294.604C228.565 294.604 228.118 294.664 227.694 294.783C227.262 294.902 226.92 295.028 226.659 295.162C226.399 295.296 226.161 295.46 225.937 295.646C225.714 295.84 225.573 295.966 225.513 296.041C225.454 296.115 225.409 296.167 225.379 296.204L226.749 297.574L226.979 297.328C227.128 297.172 227.366 297.008 227.709 296.837C228.051 296.673 228.416 296.584 228.803 296.584C229.249 296.584 229.607 296.703 229.867 296.926C230.12 297.157 230.254 297.447 230.254 297.805C230.254 298.192 230.12 298.504 229.86 298.742C229.599 298.98 229.249 299.1 228.803 299.1H227.739V301.005H228.885C229.428 301.005 229.852 301.139 230.165 301.392C230.477 301.652 230.634 301.98 230.634 302.374C230.634 302.776 230.47 303.104 230.157 303.357C229.845 303.617 229.391 303.744 228.803 303.744C228.505 303.744 228.222 303.706 227.947 303.625C227.672 303.55 227.448 303.461 227.27 303.357C227.091 303.252 226.927 303.141 226.771 303.007C226.607 302.873 226.511 302.784 226.466 302.731C226.421 302.679 226.384 302.635 226.369 302.605L224.992 304.049L225.149 304.22C225.245 304.346 225.409 304.488 225.632 304.652C225.856 304.815 226.116 304.972 226.414 305.135C226.711 305.299 227.098 305.44 227.567 305.56C228.036 305.679 228.527 305.731 229.034 305.731C230.224 305.731 231.177 305.418 231.906 304.786C232.636 304.16 233 303.409 233 302.53C233 302.143 232.926 301.794 232.792 301.466C232.651 301.139 232.494 300.886 232.331 300.7C232.167 300.521 231.973 300.357 231.757 300.216C231.534 300.074 231.385 299.985 231.296 299.948C231.207 299.911 231.14 299.881 231.095 299.859ZM234.831 304.51C234.831 304.815 234.95 305.083 235.188 305.306C235.427 305.537 235.709 305.649 236.052 305.649C236.387 305.649 236.677 305.537 236.915 305.306C237.153 305.083 237.272 304.815 237.272 304.51C237.272 304.205 237.153 303.937 236.915 303.706C236.677 303.483 236.387 303.364 236.052 303.364C235.709 303.364 235.427 303.483 235.188 303.706C234.95 303.937 234.831 304.205 234.831 304.51ZM244.819 299.859L244.968 299.784C245.079 299.74 245.206 299.658 245.355 299.539C245.504 299.42 245.645 299.278 245.794 299.107C245.943 298.943 246.069 298.72 246.173 298.452C246.278 298.184 246.337 297.886 246.337 297.574C246.337 296.733 246.01 296.026 245.355 295.46C244.7 294.895 243.829 294.604 242.757 294.604C242.288 294.604 241.842 294.664 241.418 294.783C240.986 294.902 240.644 295.028 240.383 295.162C240.123 295.296 239.885 295.46 239.661 295.646C239.438 295.84 239.297 295.966 239.237 296.041C239.178 296.115 239.133 296.167 239.103 296.204L240.473 297.574L240.703 297.328C240.852 297.172 241.09 297.008 241.433 296.837C241.775 296.673 242.14 296.584 242.527 296.584C242.973 296.584 243.33 296.703 243.591 296.926C243.844 297.157 243.978 297.447 243.978 297.805C243.978 298.192 243.844 298.504 243.583 298.742C243.323 298.98 242.973 299.1 242.527 299.1H241.462V301.005H242.609C243.152 301.005 243.576 301.139 243.889 301.392C244.201 301.652 244.357 301.98 244.357 302.374C244.357 302.776 244.194 303.104 243.881 303.357C243.569 303.617 243.115 303.744 242.527 303.744C242.229 303.744 241.946 303.706 241.671 303.625C241.395 303.55 241.172 303.461 240.993 303.357C240.815 303.252 240.651 303.141 240.495 303.007C240.331 302.873 240.234 302.784 240.19 302.731C240.145 302.679 240.108 302.635 240.093 302.605L238.716 304.049L238.872 304.22C238.969 304.346 239.133 304.488 239.356 304.652C239.579 304.815 239.84 304.972 240.138 305.135C240.435 305.299 240.822 305.44 241.291 305.56C241.76 305.679 242.251 305.731 242.757 305.731C243.948 305.731 244.901 305.418 245.63 304.786C246.359 304.16 246.724 303.409 246.724 302.53C246.724 302.143 246.65 301.794 246.516 301.466C246.374 301.139 246.218 300.886 246.054 300.7C245.891 300.521 245.697 300.357 245.481 300.216C245.258 300.074 245.109 299.985 245.02 299.948C244.931 299.911 244.864 299.881 244.819 299.859ZM249.85 297.12C249.85 296.815 249.947 296.562 250.155 296.353C250.356 296.152 250.609 296.048 250.914 296.048C251.219 296.048 251.472 296.152 251.681 296.353C251.882 296.562 251.986 296.815 251.986 297.12C251.986 297.425 251.882 297.678 251.681 297.879C251.472 298.087 251.219 298.184 250.914 298.184C250.609 298.184 250.356 298.087 250.155 297.879C249.947 297.678 249.85 297.425 249.85 297.12ZM249.776 305.5H251.681L258.386 294.828H256.481L249.776 305.5ZM253.512 297.12C253.512 296.457 253.251 295.869 252.745 295.363C252.239 294.857 251.629 294.604 250.914 294.604C250.2 294.604 249.59 294.857 249.083 295.363C248.577 295.869 248.324 296.457 248.324 297.12C248.324 297.782 248.577 298.37 249.083 298.876C249.59 299.382 250.2 299.635 250.914 299.635C251.629 299.635 252.239 299.382 252.745 298.876C253.251 298.37 253.512 297.782 253.512 297.12ZM258.312 303.215C258.312 303.52 258.208 303.773 258.007 303.974C257.799 304.183 257.545 304.279 257.24 304.279C256.935 304.279 256.682 304.183 256.481 303.974C256.273 303.773 256.176 303.52 256.176 303.215C256.176 302.91 256.273 302.657 256.481 302.449C256.682 302.248 256.935 302.143 257.24 302.143C257.545 302.143 257.799 302.248 258.007 302.449C258.208 302.657 258.312 302.91 258.312 303.215ZM254.65 303.215C254.65 303.878 254.903 304.466 255.409 304.972C255.916 305.478 256.526 305.731 257.24 305.731C257.955 305.731 258.565 305.478 259.071 304.972C259.577 304.466 259.838 303.878 259.838 303.215C259.838 302.56 259.577 301.972 259.071 301.466C258.565 300.96 257.955 300.7 257.24 300.7C256.526 300.7 255.916 300.96 255.409 301.466C254.903 301.972 254.65 302.56 254.65 303.215Z" fill="#111444"/>
<g filter="url(#filter0_d)">
<rect x="40" y="37" width="64" height="64" rx="8" fill="#F6F8FB"/>
</g>
<path d="M70.3828 56.8875H88.1109C89.1766 56.9362 90 57.765 90 58.8375V70.8C90 71.8725 89.1281 72.75 88.0625 72.75H83.25V70.3125C83.25 68.1988 81.5598 66.6523 79.5616 66.564L79.5332 66.5627C79.7033 66.2472 79.7813 65.8999 79.7813 65.5625V65C79.7813 63.9214 79.3116 63.001 78.5557 62.3782C77.8252 61.7764 76.8929 61.5 75.9688 61.5H66.75V54.45C66.75 53.3775 67.6219 52.5 68.6875 52.5H85.1563C86.2219 52.5 87.0938 53.1608 87.0938 54.2333V54.7208C87.0938 55.0133 86.9 55.2083 86.6094 55.2083H70.3828C69.9953 55.2083 69.6563 55.6308 69.6563 56.0208C69.6563 56.4108 69.9953 56.8875 70.3828 56.8875Z" fill="#1E4DD8"/>
<path fill-rule="evenodd" clip-rule="evenodd" d="M79.4953 68.0625H58.3359C57.8734 68.0625 57.4688 67.5125 57.4688 67.0625C57.4688 66.6125 57.8734 66.125 58.3359 66.125C58.5094 66.125 77.7031 66.125 77.7031 66.125C78.05 66.125 78.2813 65.9 78.2813 65.5625V65C78.2813 63.7625 77.2406 63 75.9688 63H63.1922H56.3125C55.0406 63 54 64.0125 54 65.25V83.25C54 84.4875 55.0406 85.5 56.3125 85.5H79.4375C80.7094 85.5 81.75 84.4875 81.75 83.25V70.3125C81.75 69.075 80.7672 68.1188 79.4953 68.0625ZM75.9688 81.5625C74.9859 81.5625 74.2344 80.8313 74.2344 79.875C74.2344 78.9188 74.9859 78.1875 75.9688 78.1875C76.9516 78.1875 77.7031 78.9188 77.7031 79.875C77.7031 80.8313 76.8938 81.5625 75.9688 81.5625Z" fill="#9EB3EE"/>
<path fill-rule="evenodd" clip-rule="evenodd" d="M61.7238 52.7587C62.0753 52.4111 62.6421 52.4142 62.9898 52.7657L64.6651 54.4597C64.9985 54.7968 65.0113 55.3353 64.6942 55.6878L63.1863 57.3644C62.8556 57.732 62.2896 57.762 61.922 57.4314C61.5544 57.1008 61.5245 56.5347 61.8551 56.1672L61.9686 56.0409C61.0378 56.1739 60.1119 56.4573 59.2238 56.9023C57.7025 57.6647 56.4949 58.7999 55.6538 60.1415C55.3911 60.5604 54.8387 60.6871 54.4198 60.4244C54.0009 60.1618 53.8742 59.6093 54.1369 59.1905C55.1473 57.5788 56.5989 56.2151 58.4217 55.3016C59.5539 54.7343 60.7396 54.3856 61.9298 54.2401L61.7168 54.0247C61.3691 53.6732 61.3723 53.1064 61.7238 52.7587Z" fill="#1E4DD8"/>
<defs>
<filter id="filter0_d" x="0" y="5.63767" width="144" height="144" filterUnits="userSpaceOnUse" color-interpolation-filters="sRGB">
<feFlood flood-opacity="0" result="BackgroundImageFix"/>
<feColorMatrix in="SourceAlpha" type="matrix" values="0 0 0 0 0 0 0 0 0 0 0 0 0 0 0 0 0 0 127 0" result="hardAlpha"/>
<feOffset dy="8.63767"/>
<feGaussianBlur stdDeviation="20"/>
<feColorMatrix type="matrix" values="0 0 0 0 0.0187153 0 0 0 0 0.0261333 0 0 0 0 0.204167 0 0 0 0.05 0"/>
<feBlend mode="normal" in2="BackgroundImageFix" result="effect1_dropShadow"/>
<feBlend mode="normal" in="SourceGraphic" in2="effect1_dropShadow" result="shape"/>
</filter>
<linearGradient id="paint0_linear" x1="-39.6721" y1="245.08" x2="620.372" y2="-145.968" gradientUnits="userSpaceOnUse">
<stop stop-color="#E6E9EC"/>
<stop offset="1" stop-color="#F6F8FB" stop-opacity="0"/>
</linearGradient>
<linearGradient id="paint1_linear" x1="338.287" y1="164.943" x2="518.321" y2="343.939" gradientUnits="userSpaceOnUse">
<stop offset="0.0212266" stop-color="#E6E9EC"/>
<stop offset="0.572639" stop-color="#F6F8FB"/>
</linearGradient>
</defs>
</svg>
