<svg width="32" height="32" viewBox="0 0 32 32" fill="none" xmlns="http://www.w3.org/2000/svg">
<path d="M31.5174 19.8706C29.3804 28.442 20.699 33.6585 12.1266 31.521C3.55769 29.384 -1.65875 20.7021 0.479225 12.1312C2.6152 3.55876 11.2966 -1.65819 19.8665 0.478793C28.4384 2.61577 33.6544 11.2987 31.5174 19.8706Z" fill="#F7931A"/>
<path fill-rule="evenodd" clip-rule="evenodd" d="M23.053 13.7206C23.3715 11.5916 21.7505 10.4471 19.534 9.68365L20.253 6.79968L18.4975 6.36219L17.7975 9.17016C17.336 9.05516 16.862 8.94666 16.391 8.83916L17.096 6.01269L15.3416 5.5752L14.6221 8.45817C14.2401 8.37117 13.8651 8.28517 13.5011 8.19467L13.5031 8.18567L11.0821 7.58117L10.6151 9.45616C10.6151 9.45616 11.9176 9.75465 11.8901 9.77315C12.6011 9.95065 12.7296 10.4211 12.7081 10.7941C12.051 13.4299 11.3957 16.0583 10.7381 18.6946C10.6511 18.9106 10.4306 19.2346 9.93361 19.1116C9.95111 19.1371 8.65762 18.7931 8.65762 18.7931L7.78613 20.8025L10.0706 21.372C10.3257 21.436 10.5778 21.5017 10.8272 21.5667L10.8273 21.5668C10.9934 21.6101 11.1583 21.6531 11.3221 21.695L10.5956 24.612L12.3491 25.0495L13.0686 22.1635C13.5476 22.2935 14.0126 22.4135 14.4676 22.5265L13.7506 25.399L15.5061 25.8365L16.2325 22.925C19.226 23.4915 21.477 23.263 22.4245 20.5555C23.188 18.3756 22.3865 17.1181 20.8115 16.2981C21.9585 16.0336 22.8225 15.2791 23.053 13.7206ZM19.042 19.3451C18.5443 21.3451 15.4137 20.5182 13.9813 20.1399L13.9812 20.1399C13.8524 20.1058 13.7373 20.0754 13.6391 20.0511L14.603 16.1866C14.7226 16.2165 14.8688 16.2492 15.0343 16.2864C16.5159 16.6188 19.552 17.3001 19.042 19.3451ZM15.332 14.493C16.5263 14.8117 19.1312 15.5069 19.585 13.6891C20.0484 11.8298 17.5165 11.2693 16.28 10.9956C16.1409 10.9648 16.0182 10.9376 15.918 10.9126L15.044 14.4176C15.1266 14.4382 15.2235 14.464 15.332 14.493Z" fill="white"/>
</svg>
