<svg width="32" height="32" viewBox="0 0 32 32" fill="none" xmlns="http://www.w3.org/2000/svg">
<path d="M16 32C24.8366 32 32 24.8366 32 16C32 7.16344 24.8366 0 16 0C7.16344 0 0 7.16344 0 16C0 24.8366 7.16344 32 16 32Z" fill="#F5AC37"/>
<path d="M8.37988 24.8801V24.8201C8.37988 24.0401 8.37988 23.2601 8.37988 22.4901C8.37988 22.2301 8.37988 21.9601 8.37988 21.7001V19.3501C8.37988 19.2201 8.37988 19.2001 8.21988 19.2001H6.04988C5.92988 19.2001 5.87988 19.2001 5.87988 19.0401C5.87988 18.4101 5.87988 17.7701 5.87988 17.1401H8.19988C8.32988 17.1401 8.37988 17.1401 8.37988 16.9701C8.37988 16.3401 8.37988 15.7201 8.37988 15.0901C8.37988 14.9701 8.37988 14.9401 8.21988 14.9401H6.04988C5.92988 14.9401 5.87988 14.9401 5.87988 14.7801C5.87988 14.2001 5.87988 13.6101 5.87988 13.0201C5.87988 12.9101 5.87988 12.8801 6.03988 12.8801C6.74988 12.8801 7.46988 12.8801 8.18988 12.8801C8.33988 12.8801 8.37988 12.8801 8.37988 12.6901V7.3001C8.37988 7.1401 8.37988 7.1001 8.57988 7.1001H16.0799C16.6199 7.1201 17.1699 7.1801 17.6999 7.2801C18.7999 7.4801 19.8599 7.8801 20.8299 8.4401C21.4699 8.8201 22.0599 9.2701 22.5899 9.8001C22.9799 10.2101 23.3399 10.6601 23.6599 11.1301C23.9799 11.6101 24.2399 12.1201 24.4399 12.6601C24.4699 12.8001 24.5999 12.8901 24.7399 12.8701C25.3299 12.8701 25.9299 12.8701 26.5299 12.8701C26.7599 12.8701 26.7599 12.8701 26.7699 13.0901V14.7301C26.7699 14.8901 26.7099 14.9301 26.5499 14.9301H25.1699C25.0299 14.9301 24.9899 14.9301 24.9999 15.1101C25.0499 15.7201 25.0499 16.3301 24.9999 16.9401C24.9999 17.1101 24.9999 17.1301 25.1899 17.1301H26.7699C26.7699 17.1301 26.7699 18.5601 26.7699 18.9601C26.7699 19.1301 26.7199 19.1801 26.5699 19.1801C25.9399 19.1801 25.3099 19.1801 24.6799 19.1801C24.5499 19.1601 24.4199 19.2401 24.3899 19.3701C23.9399 20.5401 23.2199 21.5901 22.2899 22.4301C21.9499 22.7401 21.6099 23.0401 21.2199 23.2901C20.8299 23.5401 20.4299 23.7601 20.0199 23.9501C19.2599 24.2901 18.4699 24.5401 17.6599 24.7001C16.8899 24.8401 16.0999 24.9001 15.3199 24.8901H8.37988V24.8801ZM22.1899 19.2101H21.6799H10.5899C10.4399 19.2101 10.3899 19.2101 10.3899 19.4101C10.3899 20.5701 10.3899 21.7201 10.3899 22.8801C10.3899 23.0401 10.3899 23.0801 10.5899 23.0801H15.7099C15.9799 23.0801 16.3299 23.0601 16.5799 23.0301C17.3399 22.9201 17.9199 22.8101 18.6099 22.5501C18.8599 22.4601 19.3699 22.2301 19.4099 22.2101C20.6099 21.5901 21.5799 20.6001 22.1999 19.4001C22.1999 19.4001 22.2699 19.2501 22.1899 19.2101ZM22.1899 12.7101C22.0899 12.4901 21.9699 12.2801 21.8299 12.0801C21.6199 11.7401 21.3699 11.4301 21.0899 11.1501C20.9599 10.9801 20.7999 10.8301 20.6299 10.7001C19.7599 9.9601 18.7399 9.4401 17.6299 9.1801C17.0699 9.0501 16.4999 8.9901 15.9299 9.0001C14.1399 9.0001 12.3499 9.0001 10.5599 9.0001C10.4099 9.0001 10.3899 9.0601 10.3899 9.1901C10.3899 10.3701 10.3899 11.5601 10.3899 12.7401C10.3899 12.8901 10.3899 12.9301 10.5799 12.9301H22.1199C22.1199 12.9301 22.2499 12.9301 22.2399 12.8501C22.2399 12.8501 22.2099 12.7501 22.1899 12.7101ZM16.5899 17.1301H22.6699C22.7999 17.1301 22.8599 17.1301 22.8699 16.9601C22.9199 16.3401 22.9199 15.7201 22.8699 15.1001C22.8699 14.9801 22.8099 14.9301 22.6799 14.9301H10.5799C10.4299 14.9301 10.3899 14.9801 10.3899 15.1201V16.9001C10.3899 17.1301 10.3899 17.1301 10.6299 17.1301H16.5899Z" fill="#FEFEFD"/>
</svg>
