<svg width="32" height="32" viewBox="0 0 32 32" fill="none" xmlns="http://www.w3.org/2000/svg">
<path fill-rule="evenodd" clip-rule="evenodd" d="M16 32C24.8366 32 32 24.8366 32 16C32 7.16344 24.8366 0 16 0C7.16344 0 0 7.16344 0 16C0 24.8366 7.16344 32 16 32Z" fill="#C3A634"/>
<path fill-rule="evenodd" clip-rule="evenodd" d="M10.0504 24.6416H15.8448C15.8448 24.6416 23.9923 25.3244 23.9923 16.139C23.9923 7.30969 16.5522 7.341 15.1143 7.34705C15.0806 7.34719 15.0502 7.34732 15.0233 7.34732H10.0502V15.0512H8.00781V16.9382H10.0504V24.6416ZM15.6004 10.5441H13.3143V15.0511H16.911V16.9381H13.3143V21.4449L15.736 21.4449C16.4337 21.4457 20.7709 21.4512 20.7641 16.2013C20.7572 10.8882 16.4554 10.5441 15.6004 10.5441Z" fill="white"/>
</svg>
