<svg width="32" height="32" viewBox="0 0 32 32" fill="none" xmlns="http://www.w3.org/2000/svg">
<path fill-rule="evenodd" clip-rule="evenodd" d="M16 32C24.8366 32 32 24.8366 32 16C32 7.16344 24.8366 0 16 0C7.16344 0 0 7.16344 0 16C0 24.8366 7.16344 32 16 32Z" fill="#EC9555"/>
<path d="M20.8145 23.4863L20.5918 22.4102C20.5176 22.1504 20.2949 22.002 20.0352 22.0762C19.6641 22.1504 19.0703 22.2617 18.3652 22.2617C15.9531 22.2617 14.0234 20.7773 13.2441 18.6621H18.0684C18.2539 18.6621 18.4395 18.5137 18.4766 18.291L18.6621 17.4004C18.7363 17.1035 18.5137 16.8809 18.2539 16.8809H12.7617C12.6875 16.25 12.6875 15.6562 12.7246 15.0996H18.7734C18.959 15.0996 19.1445 14.9512 19.1816 14.7285L19.3672 13.8379C19.4414 13.5781 19.2188 13.3184 18.959 13.3184H13.1328C13.9121 11.1289 15.8047 9.68164 18.3281 9.68164C18.8477 9.68164 19.4043 9.75586 19.7383 9.79297C19.9609 9.83008 20.1836 9.71875 20.2578 9.49609L20.5547 8.38281C20.5918 8.12305 20.4434 7.86328 20.1836 7.82617C19.7754 7.75195 19.1074 7.64062 18.3652 7.64062C14.6543 7.64062 11.6855 10.0527 10.7207 13.2812H9.57031C9.31055 13.2812 9.125 13.5039 9.125 13.7266V14.6172C9.125 14.877 9.31055 15.0625 9.57031 15.0625H10.4238C10.3496 15.6562 10.3867 16.3984 10.4238 16.8438H9.57031C9.31055 16.8438 9.125 17.0664 9.125 17.2891V18.1797C9.125 18.4395 9.31055 18.625 9.57031 18.625H10.7578C11.7227 21.9277 14.5801 24.2656 18.3652 24.2656C19.2559 24.2656 20.0352 24.1172 20.4805 24.0059C20.7402 23.9688 20.8887 23.709 20.8145 23.4863Z" fill="white"/>
</svg>
