<svg width="32" height="32" viewBox="0 0 32 32" fill="none" xmlns="http://www.w3.org/2000/svg">
<path fill-rule="evenodd" clip-rule="evenodd" d="M16 32C24.8366 32 32 24.8366 32 16C32 7.16344 24.8366 0 16 0C7.16344 0 0 7.16344 0 16C0 24.8366 7.16344 32 16 32Z" fill="#6E70B1"/>
<path d="M21.665 19.333H20.5146C20.292 19.333 20.0693 19.5557 20.0693 19.7783V21.8936H14.3916V16.3643H18.1025C18.3252 16.3643 18.5479 16.1787 18.5479 15.9189V15.0283C18.5479 14.8057 18.3252 14.583 18.1025 14.583H14.3916V11.7256C14.3916 10.3525 15.3564 9.23926 17.0635 9.23926C18.0283 9.23926 18.8818 9.68457 19.3271 9.94434C19.5127 10.0928 19.7725 10.0557 19.9209 9.87012L20.626 8.97949C20.8115 8.75684 20.7744 8.45996 20.5518 8.31152C19.958 7.90332 18.7334 7.16113 17.0635 7.16113C14.1318 7.16113 12.0166 9.09082 12.0166 11.6514V14.583H10.9775C10.7178 14.583 10.5322 14.8057 10.5322 15.0283V15.9189C10.5322 16.1787 10.7178 16.3643 10.9775 16.3643H12.0166V21.8936H10.6807C10.4209 21.8936 10.2354 22.1162 10.2354 22.3389V23.3408C10.2354 23.6006 10.4209 23.7861 10.6807 23.7861H21.665C21.8877 23.7861 22.1104 23.6006 22.1104 23.3408V19.7783C22.1104 19.5557 21.8877 19.333 21.665 19.333Z" fill="white"/>
</svg>
