<svg width="25" height="24" viewBox="0 0 25 24" fill="none" xmlns="http://www.w3.org/2000/svg">
<g clip-path="url(#clip0)">
<path fill-rule="evenodd" clip-rule="evenodd" d="M25.0002 12.0733C25.0002 5.40541 19.6056 0 12.951 0C6.29645 0 0.901855 5.40541 0.901855 12.0733C0.901855 18.0995 5.30807 23.0943 11.0684 24V15.5633H8.00899V12.0733H11.0684V9.41343C11.0684 6.38755 12.8672 4.71615 15.6195 4.71615C16.9378 4.71615 18.3167 4.95195 18.3167 4.95195V7.92313H16.7973C15.3005 7.92313 14.8337 8.85379 14.8337 9.80857V12.0733H18.1755L17.6413 15.5633H14.8337V24C20.594 23.0943 25.0002 18.0995 25.0002 12.0733Z" fill="#1877F2"/>
</g>
<defs>
<clipPath id="clip0">
<rect width="24.0984" height="24" fill="white" transform="translate(0.901855)"/>
</clipPath>
</defs>
</svg>
