<svg width="16" height="16" viewBox="0 0 16 16" fill="none" xmlns="http://www.w3.org/2000/svg">
<circle cx="8" cy="8" r="7.5" fill="#00A76A"/>
<path d="M6.8511 10.6346L4.51117 8.30872C4.44578 8.24333 4.41309 8.15926 4.41309 8.05651C4.41309 7.95376 4.44578 7.86969 4.51117 7.80431L5.02959 7.29989C5.09498 7.22516 5.17438 7.1878 5.26779 7.1878C5.37054 7.1878 5.45928 7.22516 5.53401 7.29989L7.1033 8.86918L10.4661 5.50641C10.5408 5.43168 10.6249 5.39432 10.7183 5.39432C10.821 5.39432 10.9051 5.43168 10.9705 5.50641L11.4889 6.01083C11.5543 6.07621 11.587 6.16028 11.587 6.26303C11.587 6.36579 11.5543 6.44986 11.4889 6.51524L7.35551 10.6346C7.29012 10.7094 7.20605 10.7467 7.1033 10.7467C7.00055 10.7467 6.91648 10.7094 6.8511 10.6346Z" fill="#F2FBF8"/>
</svg>
