<svg width="13" height="13" viewBox="0 0 13 13" fill="none" xmlns="http://www.w3.org/2000/svg">
<path d="M8.82031 6.74998L12.3359 3.23436C12.793 2.81248 12.793 2.10936 12.3359 1.68748L11.5625 0.914047C11.1406 0.457016 10.4375 0.457016 10.0156 0.914047L6.5 4.42967L2.94922 0.914047C2.52734 0.457016 1.82422 0.457016 1.40234 0.914047L0.628906 1.68748C0.171875 2.10936 0.171875 2.81248 0.628906 3.23436L4.14453 6.74998L0.628906 10.3008C0.171875 10.7226 0.171875 11.4258 0.628906 11.8476L1.40234 12.6211C1.82422 13.0781 2.52734 13.0781 2.94922 12.6211L6.5 9.10545L10.0156 12.6211C10.4375 13.0781 11.1406 13.0781 11.5625 12.6211L12.3359 11.8476C12.793 11.4258 12.793 10.7226 12.3359 10.3008L8.82031 6.74998Z" fill="#83888C"/>
</svg>
