<svg width="24" height="24" viewBox="0 0 24 24" fill="none" xmlns="http://www.w3.org/2000/svg">
<path d="M9.26255 14.7814C9.96018 14.6167 10.3922 13.9176 10.2275 13.22C10.0627 12.5223 9.36364 12.0903 8.66601 12.2551C7.96837 12.4198 7.53637 13.1189 7.7011 13.8165C7.86583 14.5141 8.56492 14.9461 9.26255 14.7814Z" fill="#FF4500"/>
<path d="M12 0C5.36327 0 0 5.36327 0 12C0 18.6367 5.36327 24 12 24C18.6367 24 24 18.6367 24 12C24 5.36327 18.6367 0 12 0ZM19.7633 13.9102C19.9592 15.6 19.2 17.2408 17.8041 18.1959C16.1143 19.3714 14.0816 19.9837 12.0245 19.9347C9.96735 19.9837 7.93469 19.3714 6.2449 18.1959C4.84898 17.2408 4.0898 15.6 4.28571 13.9102C4.23673 13.8857 4.16327 13.8367 4.11429 13.8122C3.20816 13.2245 2.93878 12.0245 3.50204 11.1184C3.57551 11.0204 3.64898 10.9469 3.72245 10.849C4.48163 10.1143 5.65714 10.1388 6.39184 10.8735C7.9102 9.77143 9.72245 9.15918 11.5837 9.1102L12.6857 4.33469C12.7347 4.11429 12.9551 3.99184 13.151 4.04082L16.3837 4.75102C16.5796 4.35918 16.9714 4.11429 17.3878 4.06531C18.098 3.99184 18.7347 4.50612 18.7837 5.21633C18.8571 5.92653 18.3429 6.56327 17.6327 6.61224C16.9224 6.68571 16.2857 6.17143 16.2367 5.46122L13.298 4.8L12.2939 9.08571C14.2041 9.1102 16.0898 9.72245 17.6327 10.849C17.7061 10.7755 17.8041 10.702 17.902 10.6286C18.7592 10.0163 19.9347 10.2367 20.5469 11.0694C20.5714 11.1184 20.6204 11.1918 20.6449 11.2408C21.1102 12.2694 20.7184 13.4449 19.7633 13.9102Z" fill="#FF4500"/>
<path d="M14.9634 16.6041C13.2001 17.8776 10.8001 17.8776 9.03686 16.6041C8.88992 16.5551 8.71849 16.6286 8.64502 16.7755C8.62053 16.8735 8.62053 16.9959 8.694 17.0694C10.6532 18.4898 13.2981 18.4898 15.2573 17.0694C15.3797 16.947 15.3552 16.751 15.2328 16.6531C15.1838 16.6041 15.0613 16.5796 14.9634 16.6041Z" fill="#FF4500"/>
<path d="M15.3353 14.779C16.0329 14.6142 16.4649 13.9152 16.3002 13.2175C16.1355 12.5199 15.4364 12.0879 14.7388 12.2526C14.0411 12.4174 13.6091 13.1164 13.7739 13.8141C13.9386 14.5117 14.6377 14.9437 15.3353 14.779Z" fill="#FF4500"/>
</svg>
