<svg width="32" height="32" viewBox="0 0 32 32" fill="none" xmlns="http://www.w3.org/2000/svg">
<circle cx="16" cy="16" r="16" fill="#01A8F1"/>
<path fill-rule="evenodd" clip-rule="evenodd" d="M3.19922 16.0002C3.19922 8.9306 8.92962 3.2002 15.9992 3.2002C23.0688 3.2002 28.7992 8.9306 28.7992 16.0002C28.7992 23.0698 23.0688 28.8002 15.9992 28.8002C8.92962 28.8002 3.19922 23.0698 3.19922 16.0002Z" fill="#01A8F1"/>
<path d="M11.1242 8L9.5 9.60267V16L11.1242 17.5991H17.6229V20.7964H14.3762V19.2H9.5V22.4009L11.1242 24H20.8749L22.4991 22.4009V16.0027L20.8749 14.4H14.3762V11.2018H17.6238V12.8018H22.5V9.60267L20.8749 8H11.1224H11.1242Z" fill="white"/>
</svg>
