<svg width="256" height="257" viewBox="0 0 256 257" fill="none" xmlns="http://www.w3.org/2000/svg">
<path fill-rule="evenodd" clip-rule="evenodd" d="M128 256.723C198.692 256.723 256 199.415 256 128.723C256 58.0302 198.692 0.722656 128 0.722656C57.3076 0.722656 0 58.0302 0 128.723C0 199.415 57.3076 256.723 128 256.723Z" fill="#FF0013"/>
<path d="M211.579 99.0739C204.117 93.8548 196.138 88.2907 188.331 82.7697C188.158 82.6403 187.986 82.5109 187.77 82.3815C186.907 81.7345 185.915 81.0443 184.708 80.6561L184.621 80.613C163.745 75.5665 142.524 70.3905 121.992 65.3871C103.359 60.8581 84.7686 56.3291 66.1351 51.8002C65.6607 51.6708 65.1862 51.5414 64.6686 51.412C62.9864 50.9375 61.0454 50.4199 58.9751 50.6787C58.3712 50.765 57.8536 50.9807 57.3791 51.2826L56.8615 51.7139C56.042 52.4903 55.6107 53.4824 55.395 54.0431L55.2656 54.3882V56.3723L55.3519 56.6742C67.1272 89.6709 79.2044 123.142 90.8503 155.535C99.822 180.466 109.139 206.302 118.24 231.665C118.8 233.39 120.396 234.511 122.381 234.684H122.812C124.667 234.684 126.306 233.778 127.125 232.312L161.286 182.493C169.611 170.373 177.936 158.209 186.26 146.089C189.668 141.129 193.075 136.125 196.483 131.165C202.09 122.97 207.87 114.516 213.607 106.277L213.909 105.846V105.328C214.038 103.819 214.081 100.713 211.579 99.0739V99.0739ZM171.552 117.233C163.529 121.417 155.334 125.73 147.096 130C151.883 124.867 156.714 119.691 161.502 114.559C167.498 108.089 173.752 101.403 179.877 94.8469L180.006 94.7175C180.524 94.0274 181.171 93.3804 181.861 92.6902C182.335 92.2158 182.853 91.7413 183.327 91.1806C186.519 93.3804 189.754 95.6233 192.86 97.8231C195.103 99.419 197.389 101.015 199.718 102.611C190.229 107.442 180.739 112.402 171.552 117.233ZM150.935 115.163C144.767 121.848 138.383 128.706 132.042 135.478C119.749 120.554 107.198 105.414 95.0342 90.7924C89.5132 84.1499 83.949 77.4643 78.428 70.8218L78.3849 70.7787C77.134 69.3553 75.9263 67.8025 74.7186 66.336C73.9422 65.3439 73.1227 64.395 72.3031 63.403C77.3066 64.6969 82.3531 65.9047 87.3134 67.0693C91.6698 68.1044 96.1988 69.1828 100.642 70.3042C125.659 76.386 150.719 82.4677 175.736 88.5495C167.411 97.4349 159.044 106.45 150.935 115.163ZM129.239 199.229C129.713 194.7 130.231 190.041 130.662 185.469C131.05 181.803 131.438 178.05 131.827 174.47C132.43 168.734 133.077 162.781 133.595 156.958L133.724 155.923C134.156 152.214 134.587 148.375 134.846 144.536C135.32 144.277 135.838 144.018 136.399 143.803C137.046 143.501 137.693 143.242 138.34 142.854C148.303 137.635 158.267 132.416 168.274 127.24C178.238 122.064 188.46 116.715 198.596 111.41C189.366 124.781 180.092 138.282 171.121 151.437C163.4 162.695 155.463 174.298 147.57 185.728C144.465 190.3 141.23 194.959 138.167 199.444C134.717 204.448 131.18 209.581 127.729 214.713C128.16 209.537 128.678 204.318 129.239 199.229V199.229ZM69.1113 73.5823C68.5506 72.0296 67.9467 70.4336 67.4291 68.924C79.075 82.9853 90.8072 97.1329 102.237 110.849C108.147 117.966 114.056 125.04 119.965 132.2C121.13 133.537 122.294 134.961 123.416 136.341C124.882 138.109 126.349 139.964 127.945 141.732C127.427 146.175 126.996 150.661 126.521 154.974C126.219 157.994 125.917 161.013 125.572 164.075V164.118C125.443 166.059 125.184 168 124.968 169.898C124.667 172.529 123.976 178.482 123.976 178.482L123.933 178.784C123.157 187.497 122.208 196.296 121.302 204.836C120.914 208.373 120.569 211.996 120.181 215.619C119.965 214.972 119.706 214.325 119.491 213.721C118.844 211.996 118.197 210.184 117.593 208.416L112.978 195.606C98.3554 154.931 83.7334 114.3 69.1113 73.5823Z" fill="white"/>
</svg>
