<svg width="32" height="32" viewBox="0 0 32 32" fill="none" xmlns="http://www.w3.org/2000/svg">
<path d="M16 32C7.2 32 0 24.8 0 16C0 7.2 7.2 0 16 0C24.8 0 32 7.2 32 16C32 24.8 24.8 32 16 32Z" fill="#002868"/>
<path d="M24.0634 25.5999H7.93541C7.09061 25.5999 6.39941 24.9087 6.39941 24.0639V7.9359C6.39941 7.0911 7.09061 6.3999 7.93541 6.3999H24.0634C24.9082 6.3999 25.5994 7.0911 25.5994 7.9359V24.0639C25.5994 24.9087 24.9082 25.5999 24.0634 25.5999Z" fill="white"/>
<path d="M10.1465 23.6674C10.0959 23.6674 10.0549 23.6213 10.0549 23.5707V20.9909C10.0549 20.9403 10.014 20.8942 9.96341 20.8942H9.05269C9.00149 20.8942 8.95605 20.8533 8.95605 20.8027V20.3042C8.95605 20.2536 9.00213 20.2075 9.05269 20.2075H11.8559C11.9065 20.2075 11.9525 20.253 11.9525 20.3042V20.8027C11.9525 20.8533 11.9065 20.8942 11.8559 20.8942H10.9503C10.8997 20.8942 10.8537 20.9397 10.8537 20.9909V23.5707C10.8537 23.6213 10.8127 23.6674 10.7621 23.6674H10.1465Z" fill="#002868"/>
<path d="M14.7507 20.3042C14.7507 20.2536 14.7916 20.2075 14.8422 20.2075H15.4528C15.5033 20.2075 15.5494 20.253 15.5494 20.3042V22.0648C15.5494 23.108 14.9593 23.7134 14.023 23.7134C13.0918 23.7134 12.5068 23.108 12.5068 22.0648V20.3042C12.5068 20.2536 12.5478 20.2075 12.5984 20.2075H13.2089C13.2595 20.2075 13.3056 20.253 13.3056 20.3042V22.0898C13.3056 22.6037 13.5699 22.9698 14.0281 22.9698C14.4864 22.9698 14.7507 22.6037 14.7507 22.0898V20.3042Z" fill="#002868"/>
<path d="M18.3537 21.3369C18.2724 21.3369 18.2468 21.3062 18.2161 21.2454C18.1092 20.9958 17.875 20.8384 17.5192 20.8384C17.1985 20.8384 16.9291 20.9504 16.9291 21.1641C16.9291 21.3984 17.1787 21.495 17.7278 21.5609C18.5624 21.6576 19.0404 21.9123 19.0404 22.5734C19.0404 23.3164 18.3889 23.7081 17.555 23.7081C16.8324 23.7081 16.2116 23.3568 16.115 22.6195C16.1048 22.5484 16.1406 22.5228 16.2116 22.5228H16.7716C16.8427 22.5228 16.8836 22.5536 16.9041 22.6092C16.9803 22.8537 17.2401 23.0419 17.6164 23.0419C17.9473 23.0419 18.2372 22.9196 18.2372 22.6604C18.2372 22.35 17.932 22.2944 17.3214 22.2176C16.6193 22.126 16.131 21.9225 16.131 21.2761C16.131 20.6297 16.6859 20.167 17.5556 20.167C18.339 20.167 18.8836 20.5894 18.9956 21.2204C19.011 21.2915 18.9905 21.3376 18.9144 21.3376H18.3537V21.3369Z" fill="#002868"/>
<path d="M19.7321 23.6674C19.6816 23.6674 19.6406 23.6213 19.6406 23.5707V20.3042C19.6406 20.2536 19.6816 20.2075 19.7321 20.2075H21.1158C22.1437 20.2075 22.9424 20.9147 22.9424 21.9477C22.9424 22.9653 22.1539 23.6674 21.1158 23.6674H19.7321ZM21.1158 22.98C21.6707 22.98 22.1027 22.5422 22.1027 21.9368C22.1027 21.3314 21.6701 20.8936 21.1107 20.8936H20.536C20.4854 20.8936 20.4445 20.939 20.4445 20.9902V22.8878C20.4445 22.9384 20.4854 22.9794 20.536 22.9794H21.1158V22.98Z" fill="#002868"/>
<path d="M25.0882 18.3038H6.91225C6.77145 18.3038 6.65625 18.1886 6.65625 18.0478V7.93576C6.65625 7.23176 7.23225 6.65576 7.93625 6.65576H24.0642C24.7682 6.65576 25.3442 7.23176 25.3442 7.93576V18.0478C25.3442 18.1886 25.229 18.3038 25.0882 18.3038Z" fill="#002868"/>
<path d="M16.8316 16.2277H15.1676C15.062 16.2277 14.9756 16.1413 14.9756 16.0357V8.99571C14.9756 8.89011 15.062 8.80371 15.1676 8.80371H16.8316C16.9372 8.80371 17.0236 8.89011 17.0236 8.99571V16.0357C17.0236 16.1413 16.9372 16.2277 16.8316 16.2277Z" fill="white"/>
<path d="M19.7762 10.8517H12.2242C12.1186 10.8517 12.0322 10.7653 12.0322 10.6597V8.99571C12.0322 8.89011 12.1186 8.80371 12.2242 8.80371H19.7762C19.8818 8.80371 19.9682 8.89011 19.9682 8.99571V10.6597C19.9682 10.7653 19.8818 10.8517 19.7762 10.8517Z" fill="white"/>
</svg>
