<svg width="32" height="32" viewBox="0 0 32 32" fill="none" xmlns="http://www.w3.org/2000/svg">
<path fill-rule="evenodd" clip-rule="evenodd" d="M16 32C24.8366 32 32 24.8366 32 16C32 7.16344 24.8366 0 16 0C7.16344 0 0 7.16344 0 16C0 24.8366 7.16344 32 16 32Z" fill="url(#paint0_linear_25310_86571)"/>
<path fill-rule="evenodd" clip-rule="evenodd" d="M16 31.5C24.5604 31.5 31.5 24.5604 31.5 16C31.5 7.43959 24.5604 0.5 16 0.5C7.43959 0.5 0.5 7.43959 0.5 16C0.5 24.5604 7.43959 31.5 16 31.5ZM32 16C32 24.8366 24.8366 32 16 32C7.16344 32 0 24.8366 0 16C0 7.16344 7.16344 0 16 0C24.8366 0 32 7.16344 32 16Z" fill="#FEDDED"/>
<path fill-rule="evenodd" clip-rule="evenodd" d="M7.90482 6.90127C9.8978 9.33047 11.7736 11.0436 12.6655 11.8581L12.6655 11.8581C12.9578 12.125 13.1444 12.2954 13.1948 12.3629C13.3652 12.5908 13.297 12.8073 13.0131 12.9669C12.8541 13.0581 12.5248 13.1492 12.3658 13.1492C12.1841 13.1492 11.9683 13.0581 11.8207 12.9099C11.7185 12.8073 11.2756 12.1577 10.2762 10.5964C9.51535 9.3998 8.86804 8.4083 8.85668 8.39691C8.81126 8.37411 8.81126 8.37412 10.1967 10.8585C11.0712 12.4199 11.3551 12.9783 11.3551 13.0467C11.3551 13.1948 11.3097 13.2746 11.128 13.4797C10.8213 13.8216 10.6851 14.2091 10.5828 15.0183C10.4693 15.9186 10.1627 16.5568 9.28822 17.6394C8.77719 18.2776 8.69769 18.3916 8.57277 18.6537C8.41378 18.9728 8.36836 19.1552 8.34564 19.5654C8.32293 19.9985 8.36836 20.272 8.49328 20.6823C8.60684 21.047 8.73176 21.2863 9.03838 21.7536C9.29958 22.1638 9.45857 22.4715 9.45857 22.5855C9.45857 22.6767 9.48128 22.6767 9.89011 22.5855C10.8668 22.3576 11.6731 21.9701 12.116 21.4914C12.3885 21.1951 12.4567 21.0356 12.4567 20.6253C12.4567 20.3632 12.4453 20.3062 12.3772 20.1467C12.2636 19.8959 12.0478 19.6908 11.5822 19.3717C10.969 18.95 10.7078 18.6081 10.6396 18.1523C10.5829 17.7648 10.651 17.5027 10.9917 16.7847C11.3437 16.0439 11.4346 15.7362 11.4914 14.9841C11.5254 14.5054 11.5822 14.3117 11.7185 14.1635C11.8661 14.004 11.991 13.947 12.3431 13.9014C12.9223 13.8216 13.297 13.6735 13.5923 13.3886C13.8535 13.1492 13.9671 12.9099 13.9784 12.5566L13.9898 12.2945L13.8421 12.1349C12.3358 10.3981 7.73784 6.6896 7.90482 6.90127ZM9.75384 20.0555C9.87876 19.839 9.81062 19.5654 9.6062 19.4287C9.41314 19.3033 9.11788 19.3603 9.11788 19.5312C9.11788 19.5768 9.14059 19.6224 9.20873 19.6452C9.31094 19.7022 9.32229 19.7592 9.2428 19.8845C9.1633 20.0099 9.1633 20.1239 9.26551 20.2036C9.4245 20.329 9.64027 20.2606 9.75384 20.0555ZM13.378 8.38487C13.1395 8.35068 13.1281 8.33929 13.2417 8.32789C13.4575 8.2937 13.9571 8.33929 14.3092 8.41906C15.1268 8.6128 15.865 9.11425 16.6486 9.99177L16.853 10.2311L17.1483 10.1855C18.4088 9.98038 19.7035 10.1399 20.7823 10.6414C21.0776 10.7781 21.5432 11.0516 21.6 11.12C21.6227 11.1428 21.6568 11.291 21.6795 11.4391C21.759 11.9748 21.7249 12.3736 21.5546 12.6813C21.4637 12.8523 21.4637 12.8979 21.5205 13.046C21.5659 13.16 21.7022 13.2398 21.8271 13.2398C22.0997 13.2398 22.3836 12.8067 22.5198 12.2027L22.5766 11.9634L22.6788 12.0773C23.258 12.7269 23.7123 13.6272 23.7804 14.2654L23.8031 14.4364L23.7009 14.2882C23.5306 14.0261 23.3716 13.8552 23.1558 13.707C22.7697 13.4449 22.3609 13.3651 21.282 13.3081C20.3054 13.2512 19.7489 13.1714 19.2038 12.989C18.2726 12.6813 17.7956 12.2825 16.694 10.8123C16.2057 10.1627 15.8991 9.80943 15.5925 9.51312C14.9224 8.86352 14.2524 8.52163 13.378 8.38487ZM21.8385 9.83301C21.8612 9.39995 21.9179 9.11504 22.0429 8.85292C22.0883 8.75035 22.1337 8.65918 22.1451 8.65918C22.1564 8.65918 22.1337 8.73895 22.0996 8.83013C22.0088 9.08085 21.9974 9.43414 22.0542 9.83301C22.1337 10.3459 22.1678 10.4142 22.7129 10.9727C22.9627 11.2348 23.258 11.5653 23.3716 11.702L23.5646 11.9528L23.3716 11.7704C23.1331 11.5425 22.588 11.1094 22.4631 11.0524C22.3836 11.0068 22.3722 11.0068 22.3154 11.0638C22.27 11.1094 22.2586 11.1778 22.2586 11.5083C22.2473 12.0211 22.1791 12.3402 22.0088 12.6707C21.9179 12.8417 21.9066 12.8075 21.9861 12.6137C22.0429 12.4656 22.0542 12.3972 22.0542 11.9072C22.0542 10.9157 21.9407 10.6764 21.2479 10.2775C21.0776 10.1749 20.7823 10.0268 20.612 9.94698C20.4303 9.8672 20.294 9.79882 20.3053 9.79882C20.3281 9.77603 20.9981 9.96977 21.2593 10.0837C21.6568 10.2433 21.7249 10.2547 21.7703 10.2433C21.8044 10.2091 21.8271 10.1179 21.8385 9.83301ZM13.1266 9.08015C13.0585 9.84371 13.3651 10.8694 13.8421 11.5304C14.2169 12.0432 14.796 12.4421 15.2276 12.4877C15.5115 12.5105 15.591 12.4193 15.4661 12.237C15.2843 11.9862 15.0686 11.5874 15.0118 11.4164C14.9777 11.3139 14.8982 10.9948 14.8415 10.7212C14.6484 9.78673 14.444 9.41064 13.9897 9.13713C13.8194 9.03456 13.4673 8.8978 13.2629 8.86361L13.1494 8.84082L13.1266 9.08015ZM21.2584 16.4883C19.0098 15.5765 18.2148 14.7902 18.2148 13.4568C18.2148 13.2631 18.2262 13.1035 18.2262 13.1035C18.2338 13.1035 18.2716 13.1339 18.3263 13.1778C18.3536 13.1998 18.3852 13.2251 18.4193 13.2517C18.8735 13.6164 19.3846 13.7759 20.8041 13.981C21.6331 14.1064 22.1101 14.1976 22.5416 14.3457C23.9157 14.8016 24.7675 15.7361 24.9719 17.0011C25.0287 17.3658 24.9946 18.061 24.9038 18.4257C24.8243 18.7106 24.5971 19.2348 24.5403 19.2462C24.529 19.2462 24.5063 19.1892 24.5063 19.0981C24.4836 18.6194 24.2451 18.1635 23.8476 17.8103C23.3706 17.4 22.7574 17.0923 21.2584 16.4883ZM19.5538 16.3858C19.5879 16.477 19.6446 16.6935 19.6673 16.8644C19.8491 17.9357 19.2926 18.8132 18.1683 19.1665C18.0547 19.2121 17.6005 19.3033 17.1576 19.3717C16.2604 19.5312 15.8516 19.6338 15.4541 19.8275C15.1702 19.9643 14.8182 20.1694 14.8409 20.1922C14.8522 20.2036 14.9204 20.1808 14.9885 20.158C15.4996 19.9757 16.0674 19.8845 16.9191 19.8389C17.2043 19.8198 17.5213 19.7928 17.697 19.7778L17.7822 19.7705C18.5431 19.668 19.0768 19.44 19.4856 19.0184C19.7128 18.779 19.8491 18.5625 19.9626 18.2548C20.0308 18.0611 20.0421 17.9813 20.0421 17.6394C20.0421 17.2861 20.0421 17.2177 19.9626 17.0012C19.8604 16.7163 19.7468 16.5112 19.5992 16.3402L19.497 16.2148L19.5538 16.3858ZM20.7019 18.6994C20.4067 18.0499 20.3385 17.4344 20.4975 16.8532C20.5202 16.7962 20.543 16.7393 20.5657 16.7393C20.5884 16.7393 20.6565 16.7734 20.7247 16.819C20.8609 16.9102 21.1448 17.0698 21.8717 17.4686C22.7915 17.9701 23.3139 18.3576 23.6773 18.802C23.9953 19.1895 24.1884 19.634 24.2792 20.181C24.336 20.4887 24.3019 21.2295 24.2224 21.5372C23.9726 22.5059 23.4048 23.2808 22.5758 23.7253C22.4508 23.7937 22.3486 23.8392 22.3373 23.8392C22.3259 23.8392 22.3713 23.7253 22.4395 23.5885C22.712 23.0073 22.7461 22.4489 22.5417 21.8221C22.4168 21.4346 22.1556 20.9673 21.6332 20.181C21.0086 19.2693 20.8609 19.0299 20.7019 18.6994ZM15.0701 20.8194C14.1162 20.9789 13.0828 21.4804 12.2424 22.1869L12.0039 22.4149L12.2197 22.4491C13.3553 22.62 13.6619 22.7796 14.4569 23.6001C14.9111 24.0673 15.0701 24.1699 15.4449 24.2725C16.0014 24.4206 16.5465 24.1585 16.7395 23.6571C16.819 23.4291 16.8077 23.0645 16.7168 22.8821C16.4897 22.4377 15.8196 22.3009 15.5017 22.62C15.2405 22.8821 15.32 23.2924 15.6493 23.3608C15.7174 23.3722 15.7174 23.3722 15.6266 23.3266C15.479 23.2582 15.4108 23.167 15.4108 23.0189C15.3995 22.6656 15.7969 22.4832 16.1603 22.6428C16.4329 22.7682 16.5351 22.9277 16.5351 23.2012C16.5351 23.6229 16.1717 23.9534 15.7515 23.8964C15.5244 23.8622 15.2518 23.7255 15.1042 23.5545C14.7408 23.1442 14.8771 22.4718 15.3995 22.2211C15.7969 22.0274 16.3193 22.0844 16.7282 22.3465C17.1938 22.6542 17.3982 22.9277 17.7957 23.8508C17.9319 24.1585 18.0909 24.489 18.1704 24.603C18.5452 25.1728 19.0108 25.4577 19.5559 25.4577C19.8625 25.4577 20.0896 25.4121 20.3736 25.264C20.578 25.1614 20.8846 24.9563 20.8619 24.9335C20.8619 24.9245 20.8055 24.9438 20.7315 24.9692C20.7116 24.976 20.6905 24.9832 20.6688 24.9905C20.0669 25.2184 19.4537 25.207 19.1016 24.9449C18.8745 24.7739 18.6928 24.4548 18.602 24.0446L18.5908 23.9796L18.5908 23.9795C18.5693 23.8544 18.5251 23.5982 18.4884 23.3494C18.3635 22.563 18.2386 22.2097 17.966 21.7995C17.6821 21.3778 17.137 21.0359 16.5351 20.8763C16.1603 20.7738 15.479 20.751 15.0701 20.8194ZM13.7399 14.7335C13.8194 14.4371 14.0806 14.1408 14.3532 14.0611C14.5349 14.0041 14.8869 14.0383 15.0573 14.1294C15.3866 14.3004 15.6251 14.6765 15.5683 14.95C15.5115 15.2805 14.9778 15.554 14.3532 15.554C14.0352 15.554 13.9217 15.5084 13.7967 15.3489C13.7172 15.2463 13.6945 14.9158 13.7399 14.7335ZM14.9664 14.2434C15.1368 14.346 15.1708 14.4941 15.08 14.6309C15.0119 14.7221 14.8074 14.8132 14.6598 14.8132C14.4327 14.8132 14.1942 14.6537 14.1942 14.5055C14.1942 14.2092 14.6598 14.0497 14.9664 14.2434Z" fill="#FF007A"/>
<defs>
<linearGradient id="paint0_linear_25310_86571" x1="3.5" y1="7" x2="25.5" y2="29" gradientUnits="userSpaceOnUse">
<stop stop-color="white"/>
<stop offset="1" stop-color="#FFF0F7"/>
</linearGradient>
</defs>
</svg>
