<svg width="32" height="32" viewBox="0 0 32 32" fill="none" xmlns="http://www.w3.org/2000/svg">
<path d="M16 32C24.8667 32 32 24.8667 32 16C32 7.13328 24.8667 0 16 0C7.13328 0 0 7.13328 0 16C0 24.8667 7.13328 32 16 32Z" fill="#2775CA"/>
<path d="M20.4001 18.5333C20.4001 16.2 19.0001 15.4 16.2001 15.0667C14.2001 14.8 13.8001 14.2667 13.8001 13.3333C13.8001 12.3999 14.4668 11.8 15.8001 11.8C17.0001 11.8 17.6668 12.2 18.0001 13.2C18.0668 13.4 18.2668 13.5333 18.4668 13.5333H19.5334C19.8001 13.5333 20.0001 13.3333 20.0001 13.0667V13C19.7334 11.5333 18.5334 10.4 17.0001 10.2667V8.66674C17.0001 8.40002 16.8001 8.20002 16.4668 8.1333H15.4668C15.2001 8.1333 15.0001 8.3333 14.9334 8.66674V10.2C12.9334 10.4667 11.6668 11.8 11.6668 13.4667C11.6668 15.6667 13.0001 16.5333 15.8001 16.8667C17.6668 17.2 18.2668 17.6 18.2668 18.6667C18.2668 19.7335 17.3334 20.4667 16.0668 20.4667C14.3334 20.4667 13.7334 19.7333 13.5334 18.7333C13.4668 18.4667 13.2668 18.3333 13.0668 18.3333H11.9334C11.6668 18.3333 11.4668 18.5333 11.4668 18.8V18.8667C11.7334 20.5333 12.8001 21.7333 15.0001 22.0667V23.6667C15.0001 23.9333 15.2001 24.1333 15.5334 24.2H16.5334C16.8001 24.2 17.0001 24 17.0668 23.6667V22.0667C19.0668 21.7333 20.4001 20.3333 20.4001 18.5333Z" fill="white"/>
<path d="M12.6003 25.5336C7.40032 23.667 4.7336 17.867 6.66704 12.7336C7.66704 9.93355 9.86704 7.80027 12.6003 6.80027C12.867 6.66699 13.0003 6.46699 13.0003 6.13355V5.20027C13.0003 4.93355 12.867 4.73355 12.6003 4.66699C12.5336 4.66699 12.4003 4.66699 12.3336 4.73355C6.00032 6.73355 2.5336 13.467 4.5336 19.8003C5.7336 23.5336 8.60032 26.4003 12.3336 27.6003C12.6003 27.7335 12.867 27.6003 12.9336 27.3335C13.0003 27.267 13.0003 27.2003 13.0003 27.067V26.1335C13.0003 25.9335 12.8003 25.667 12.6003 25.5336ZM19.667 4.73355C19.4003 4.60027 19.1336 4.73355 19.067 5.00027C19.0003 5.06699 19.0003 5.13355 19.0003 5.26699V6.20027C19.0003 6.46699 19.2003 6.73355 19.4003 6.86699C24.6003 8.73355 27.267 14.5336 25.3336 19.667C24.3336 22.467 22.1336 24.6003 19.4003 25.6003C19.1336 25.7335 19.0003 25.9335 19.0003 26.267V27.2003C19.0003 27.467 19.1336 27.667 19.4003 27.7335C19.467 27.7335 19.6003 27.7336 19.667 27.667C26.0003 25.667 29.467 18.9336 27.467 12.6003C26.267 8.80027 23.3336 5.93355 19.667 4.73355Z" fill="white"/>
</svg>
