<svg width="32" height="32" viewBox="0 0 32 32" fill="none" xmlns="http://www.w3.org/2000/svg">
<path d="M16 0C24.8361 0 32 7.16378 32 16C32 24.8362 24.8358 32 16 32C7.16416 32 0 24.838 0 16C0 7.16198 7.16288 0 16 0Z" fill="#21A27C"/>
<path d="M17.9753 13.8681V11.488H23.4182V7.86133H8.59698V11.488H14.0404V13.8662C9.6165 14.0695 6.29004 14.9455 6.29004 15.9951C6.29004 17.0447 9.61804 17.9208 14.0404 18.1253V25.7492H17.9764V18.1248C22.3924 17.921 25.7121 17.0455 25.7121 15.9968C25.7121 14.948 22.3924 14.0727 17.9764 13.8688L17.9753 13.8681ZM17.9766 17.479V17.4771C17.8656 17.4841 17.295 17.5183 16.0246 17.5183C15.0089 17.5183 14.2943 17.4895 14.0425 17.4764V17.4796C10.134 17.3066 7.2165 16.6259 7.2165 15.8114C7.2165 14.9971 10.1343 14.3174 14.0425 14.144V16.8015C14.2985 16.8192 15.0306 16.8623 16.0412 16.8623C17.255 16.8623 17.8652 16.8117 17.9772 16.8015V14.144C21.878 14.3176 24.7887 14.999 24.7887 15.8105C24.7887 16.622 21.8767 17.3036 17.9772 17.4773" fill="white"/>
</svg>
