<svg width="32" height="32" viewBox="0 0 32 32" fill="none" xmlns="http://www.w3.org/2000/svg">
<path d="M31.5174 19.8706C29.3804 28.442 20.699 33.6585 12.1266 31.521C3.55769 29.384 -1.65875 20.7021 0.479225 12.1312C2.6152 3.55876 11.2966 -1.65819 19.8665 0.478793C28.4384 2.61577 33.6544 11.2987 31.5174 19.8706Z" fill="#349C7E"/>
<path d="M18.4844 15.5029L14.1797 14.2412C13.586 14.0928 13.1407 13.6104 13.0293 13.0166C12.8809 12.0518 13.6231 11.2354 14.5508 11.2354H17.2598C17.8536 11.2354 18.4473 11.4209 18.9297 11.792C19.1524 11.9404 19.4864 11.9033 19.6719 11.7178L20.5254 10.8643C20.7852 10.6045 20.7481 10.1963 20.4883 9.97363C19.5606 9.26855 18.4473 8.86035 17.2598 8.86035H17.1856V7.0791C17.1856 6.78223 16.8887 6.48535 16.5918 6.48535H15.4043C15.0704 6.48535 14.8106 6.78223 14.8106 7.0791V8.86035H14.6993C12.8809 8.86035 11.1739 10.0479 10.7657 11.8291C10.2461 13.9072 11.5079 15.9482 13.4746 16.5049L17.7793 17.7666C18.3731 17.915 18.8555 18.3975 18.9297 18.9912C19.0782 19.9189 18.336 20.7354 17.4454 20.7354H14.6993C14.1055 20.7354 13.5118 20.5498 13.0293 20.2158C12.8067 20.0674 12.4727 20.1045 12.2871 20.29L11.4336 21.1436C11.1739 21.4033 11.211 21.8115 11.4707 22.0342C12.3985 22.7393 13.5118 23.1104 14.6993 23.1104H14.8106V24.8916C14.8106 25.2256 15.0704 25.4854 15.4043 25.4854H16.5918C16.8887 25.4854 17.1856 25.2256 17.1856 24.8916V23.1104H17.2598C19.0782 23.1104 20.7852 21.96 21.1934 20.1787C21.7129 18.1006 20.4512 16.0596 18.4844 15.5029Z" fill="white"/>
</svg>
