<svg width="32" height="32" viewBox="0 0 32 32" fill="none" xmlns="http://www.w3.org/2000/svg">
<path fill-rule="evenodd" clip-rule="evenodd" d="M16 32C24.8366 32 32 24.8366 32 16C32 7.16344 24.8366 0 16 0C7.16344 0 0 7.16344 0 16C0 24.8366 7.16344 32 16 32Z" fill="white"/>
<path fill-rule="evenodd" clip-rule="evenodd" d="M16 31.5C24.5604 31.5 31.5 24.5604 31.5 16C31.5 7.43959 24.5604 0.5 16 0.5C7.43959 0.5 0.5 7.43959 0.5 16C0.5 24.5604 7.43959 31.5 16 31.5ZM32 16C32 24.8366 24.8366 32 16 32C7.16344 32 0 24.8366 0 16C0 7.16344 7.16344 0 16 0C24.8366 0 32 7.16344 32 16Z" fill="#E6E9EC"/>
<g clip-path="url(#clip0_25532_87169)">
<path d="M13.9669 20.5798C14.4744 22.5137 16.2956 23.989 17.2153 23.9278C17.2475 23.9257 20.7035 23.2622 22.5954 20.0078C24.0673 17.4747 23.5666 15.0291 21.564 14.9758C20.8438 15.0299 13.0002 16.8963 13.9674 20.5804L13.9669 20.5798ZM21.3772 8.15991L21.3752 8.15808L21.378 8.15625C20.1167 7.05153 18.5781 6.33622 16.9392 6.09274C15.3004 5.84926 13.6281 6.08752 12.1151 6.78006C11.9237 6.86204 11.7372 6.95576 11.5567 7.06074C11.4334 7.12842 11.3101 7.19559 11.1903 7.26981L11.2195 7.27921C10.8653 7.52748 10.5521 7.83268 10.2919 8.18317C7.77137 11.6142 16.2258 14.1092 20.7466 14.1165C22.8253 15.6537 23.409 9.78855 21.3772 8.15991Z" fill="#0E3CA5"/>
<path d="M12.6259 8.22894C11.4643 10.0269 7.59545 11.2936 6.95923 11.0963L6.95491 11.0879C6.98029 11.0338 7.00744 10.9797 7.03434 10.9262C7.69411 9.61757 8.6381 8.48333 9.79293 7.61166C10.031 7.43186 10.2775 7.26383 10.5324 7.10755C10.9244 6.88468 11.3635 6.76425 11.8112 6.75684C13.5341 6.79081 12.6345 8.21508 12.6254 8.22946L12.6259 8.22894ZM11.6727 20.9332C11.7562 21.498 11.6706 23.7295 11.5585 23.9171C11.4618 23.9231 11.2605 23.9359 10.6776 23.5991C8.81622 22.5054 7.38014 20.7815 6.61356 18.7207C5.84698 16.6598 5.79722 14.3892 6.47273 12.2948C6.50369 12.199 6.53609 12.1037 6.56993 12.0091C7.23762 12.9238 8.01038 13.7512 8.66716 14.6748C9.29273 15.5542 10.1533 16.9878 10.3284 17.2944C11.4156 19.1961 11.5889 20.3695 11.6719 20.9335L11.6727 20.9332ZM24.5253 15.3095C24.5267 16.5088 24.308 17.6974 23.8807 18.813C22.7895 20.0204 15.4339 17.0482 15.3619 17.0155C14.3556 16.5616 11.2935 15.1804 11.0172 13.0114C10.621 9.88841 16.7701 7.71306 19.4728 7.63074C19.7969 7.63466 20.7831 7.64642 21.3582 8.12728C22.3541 9.02165 23.1521 10.1256 23.6985 11.3646C24.2448 12.6035 24.5268 13.9488 24.5253 15.3095ZM19.5459 23.7695C18.7442 24.1549 17.8613 23.874 18.0908 23.0701C18.5311 21.5259 22.3761 19.9427 23.2252 19.8557C23.33 19.845 23.3744 19.9184 23.328 20.0023C22.4433 21.6043 21.131 22.9112 19.5467 23.7682" fill="#5493F7"/>
<path d="M10.0971 25.2833C10.0858 25.4577 10.1414 25.6297 10.2519 25.7623C10.3625 25.8948 10.5191 25.9775 10.6882 25.9923C18.4792 26.0472 26 25.6787 26 24.4766C26 20.8378 10.0971 25.2833 10.0971 25.2833Z" fill="url(#paint0_linear_25532_87169)"/>
<path d="M10.0972 25.2833C10.0857 25.4582 10.1416 25.6307 10.2527 25.7634C10.3639 25.8961 10.5214 25.9784 10.691 25.9923C18.48 26.0532 25.9906 25.8013 26 24.4766C26 20.8378 10.0972 25.2833 10.0972 25.2833ZM10.6913 25.9461C10.6705 25.9461 10.6497 25.9448 10.6291 25.9424C10.5104 25.9253 10.3992 25.8725 10.3095 25.7906C10.2198 25.7087 10.1556 25.6013 10.1248 25.482C10.1582 25.6113 10.2313 25.7261 10.3333 25.8091C10.4352 25.892 10.5606 25.9387 10.6905 25.9422C18.4742 25.892 25.8779 23.4239 25.8779 24.5106C25.8779 25.6197 18.4747 26.0007 10.6913 25.9461Z" fill="url(#paint1_linear_25532_87169)"/>
<path d="M10.6923 14.977C10.6142 14.977 10.5368 14.9929 10.4647 15.0237C10.3925 15.0544 10.3269 15.0996 10.2717 15.1565C10.2165 15.2133 10.1727 15.2809 10.1428 15.3552C10.113 15.4295 10.0976 15.5092 10.0977 15.5896V25.2822C10.0975 25.4441 10.1595 25.5995 10.2703 25.7143C10.3811 25.8292 10.5315 25.8942 10.6887 25.8951C18.4792 25.835 26.0099 23.1795 26.0005 24.476V13.5582C26.0099 12.262 18.4818 14.9172 10.6923 14.977Z" fill="url(#paint2_linear_25532_87169)"/>
<path d="M11.8411 21.6681C12.1185 21.6569 12.3903 21.6448 12.6573 21.6294C12.9243 21.614 13.1856 21.5965 13.4427 21.5772C13.6998 21.5578 13.9518 21.5353 14.2005 21.5121C14.4492 21.4888 14.6944 21.465 14.9365 21.4402C15.1786 21.4154 15.4174 21.3895 15.6534 21.3618C16.1185 21.3074 16.5831 21.2484 17.0471 21.1849C17.2768 21.1533 17.504 21.1211 17.7324 21.0869C17.9608 21.0527 18.1854 21.0161 18.413 20.98C18.6406 20.9439 18.8698 20.9076 19.0982 20.8702C19.3266 20.8329 19.5573 20.795 19.788 20.7553C20.0187 20.7155 20.2509 20.6735 20.4861 20.6319C20.7214 20.5904 20.9597 20.5485 21.2005 20.5054C21.4413 20.4623 21.6852 20.4192 21.9324 20.3748C22.1796 20.3303 22.4301 20.2841 22.6854 20.2399C22.9407 20.1957 23.2005 20.1524 23.4652 20.1108C23.7299 20.0693 23.9728 20.0324 24.3027 19.9896C24.6624 19.9369 25.0258 19.9169 25.3889 19.93C25.7302 19.9537 26.0005 20.0431 26.0005 20.2883V19.4478C26.0005 19.2058 25.7414 19.119 25.4234 19.0921C25.0844 19.0744 24.7446 19.0891 24.4083 19.136C24.0913 19.1734 23.8629 19.2092 23.6243 19.2455C23.3858 19.2819 23.1531 19.3197 22.9242 19.3584C22.6953 19.3971 22.4699 19.4368 22.2461 19.4768C22.0222 19.5168 21.7994 19.5578 21.5751 19.5983C21.3507 19.6388 21.1246 19.6791 20.895 19.7196L20.1927 19.844C19.9537 19.8863 19.7106 19.9289 19.4568 19.9715C19.203 20.0141 18.9381 20.0565 18.6632 20.1001C18.3884 20.1437 18.1031 20.1903 17.8052 20.2357V19.3958C18.1031 19.3506 18.3889 19.3038 18.6632 19.2602C18.9376 19.2165 19.2025 19.1737 19.4568 19.1316C19.7111 19.0895 19.9547 19.0464 20.1927 19.0038C20.4308 18.9612 20.6655 18.9202 20.8952 18.8797L21.5751 18.7584L22.2461 18.6369C22.4699 18.5964 22.695 18.5585 22.9242 18.5185C23.1533 18.4785 23.3855 18.4422 23.6243 18.4056C23.8632 18.369 24.0913 18.3332 24.4083 18.2961C24.7446 18.2494 25.0844 18.2346 25.4234 18.2519C25.7416 18.2781 26.0007 18.3659 26.0007 18.6076V17.7687C26.0007 17.5273 25.7416 17.44 25.4236 17.4128C25.0847 17.3955 24.7449 17.4103 24.4085 17.457C24.0916 17.4946 23.8634 17.5299 23.6246 17.5665C23.3858 17.603 23.1533 17.6407 22.9244 17.6794C22.6955 17.718 22.4702 17.7578 22.2463 17.7977C22.0225 17.8377 21.7997 17.8793 21.5753 17.9195L20.8952 18.0408C20.6655 18.0815 20.4323 18.1223 20.193 18.1649C19.9537 18.2075 19.7108 18.2501 19.457 18.2922C19.2033 18.3343 18.9383 18.3774 18.6635 18.421C18.3886 18.4647 18.1034 18.5112 17.8057 18.5564V17.7167C18.1031 17.6712 18.3894 17.6253 18.6637 17.5811C18.9381 17.5369 19.203 17.4946 19.4573 17.4525C19.7116 17.4104 19.9547 17.3676 20.1933 17.325L20.8957 17.2008C21.1241 17.1601 21.3512 17.1201 21.5756 17.0796L22.2466 16.9581C22.705 16.875 23.1645 16.7979 23.6249 16.7268C23.8637 16.6907 24.0918 16.6544 24.4088 16.617C24.7451 16.5706 25.0849 16.5559 25.4239 16.5731C25.7419 16.5993 26.001 16.6873 26.001 16.9291V16.0883C26.001 15.8466 25.7419 15.7601 25.4239 15.7329C25.0849 15.7154 24.7451 15.7301 24.4088 15.7768C24.0918 15.8142 23.8637 15.85 23.6249 15.8863C23.386 15.9227 23.1536 15.9608 22.9247 15.9992C22.6958 16.0376 22.4704 16.0776 22.2466 16.1174L21.5756 16.2394L20.8955 16.3604C20.6658 16.4012 20.4326 16.4417 20.1933 16.4845C19.9539 16.5274 19.7111 16.5697 19.4573 16.6118C19.2035 16.6539 18.9383 16.697 18.6632 16.7409C18.3881 16.7848 18.1029 16.8311 17.8054 16.8765V16.0366C18.1029 15.9911 18.3876 15.9446 18.663 15.9007C18.9383 15.8568 19.203 15.8145 19.4573 15.7719C19.7116 15.7293 19.9539 15.6869 20.1933 15.6446L20.8957 15.5205C21.1241 15.4797 21.3512 15.44 21.5756 15.3992C21.7999 15.3584 22.0225 15.3179 22.2466 15.2777C22.4707 15.2374 22.6955 15.1975 22.9247 15.159C23.1538 15.1206 23.386 15.0827 23.6246 15.0464C23.8632 15.0101 24.0918 14.9743 24.4088 14.9369C24.7451 14.8902 25.0849 14.8754 25.4239 14.8927C25.7421 14.9189 26.0012 15.0069 26.0012 15.2484V14.4087C26.0012 14.167 25.7421 14.08 25.4242 14.0528C25.0852 14.0357 24.7454 14.0504 24.409 14.097C24.0921 14.1343 23.8639 14.1699 23.6251 14.2065C23.3863 14.2431 23.1538 14.2807 22.9249 14.3194C22.696 14.358 22.4707 14.3978 22.2468 14.4378C22.023 14.4777 21.8002 14.5193 21.5758 14.5595C21.3515 14.5998 21.1254 14.64 20.896 14.6803L20.1935 14.8049C19.6843 14.8956 19.1741 14.9808 18.6632 15.0608C18.3879 15.1047 18.1029 15.1509 17.8054 15.1967V14.345C15.4514 14.7245 13.0747 14.936 10.6923 14.9782C10.6142 14.9782 10.5368 14.994 10.4647 15.0248C10.3925 15.0556 10.3269 15.1007 10.2717 15.1576C10.2165 15.2145 10.1727 15.282 10.1428 15.3564C10.113 15.4307 10.0976 15.5103 10.0977 15.5908V21.706C10.4022 21.706 10.6986 21.7021 10.9889 21.6955C11.2793 21.689 11.5635 21.6791 11.8411 21.6681Z" fill="url(#paint3_linear_25532_87169)"/>
<path d="M11.8404 23.3477C12.1182 23.3367 12.3898 23.3242 12.6568 23.309C12.9237 23.2938 13.1854 23.2758 13.4435 23.2567C13.7016 23.2377 13.9523 23.2154 14.201 23.1919C14.4497 23.1684 14.6949 23.1451 14.937 23.1198C15.1791 23.0944 15.4192 23.0691 15.6539 23.0414C16.1188 22.9867 16.5832 22.9278 17.0471 22.8647C17.2766 22.8331 17.504 22.8004 17.7324 22.7665C17.9608 22.7325 18.1859 22.6956 18.4132 22.6593C18.6406 22.623 18.87 22.5872 19.0984 22.5501C19.3268 22.513 19.5578 22.4743 19.7887 22.4348C20.0197 22.3954 20.2519 22.3533 20.4871 22.3115L21.2013 22.185C21.4421 22.1421 21.6862 22.099 21.9332 22.0543C22.1801 22.0096 22.4311 21.9639 22.6864 21.9195C22.9417 21.8751 23.2016 21.8319 23.4662 21.7904C23.7309 21.7488 23.9723 21.712 24.3037 21.6691C24.6633 21.6161 25.0268 21.5961 25.3899 21.6093C25.7312 21.6333 26.0015 21.723 26.0015 21.9678V21.1271C26.0015 20.8822 25.7312 20.7923 25.3901 20.7686C25.027 20.7554 24.6634 20.7754 24.3037 20.8282C23.972 20.87 23.7307 20.9084 23.4662 20.9497C23.2018 20.991 22.9417 21.0341 22.6864 21.0785C22.4311 21.1229 22.1806 21.1681 21.9334 21.2134C21.6862 21.2586 21.4424 21.3017 21.2013 21.344C20.9602 21.3864 20.7224 21.4284 20.4871 21.4705C20.2519 21.5126 20.0197 21.5541 19.789 21.5939C19.5583 21.6336 19.3279 21.6723 19.0987 21.7089L18.4135 21.8189C18.1851 21.8555 17.9597 21.8915 17.7326 21.9255C17.5055 21.9595 17.2773 21.9927 17.0474 22.0238C16.8175 22.0549 16.587 22.0854 16.3551 22.115C16.1231 22.1445 15.8902 22.1735 15.6542 22.2004C15.4181 22.2273 15.1793 22.2527 14.9372 22.2788C14.6951 22.305 14.45 22.3274 14.2013 22.3507C13.9526 22.3739 13.7003 22.3962 13.4435 22.4158C13.1867 22.4354 12.9245 22.4531 12.6568 22.468C12.389 22.4829 12.118 22.4957 11.8404 22.5067C11.5627 22.5177 11.279 22.5268 10.9884 22.5328C10.6978 22.5389 10.4017 22.5438 10.0977 22.5438V23.3835C10.6787 23.3817 11.2597 23.3697 11.8404 23.3477Z" fill="url(#paint4_linear_25532_87169)"/>
<path d="M25.3887 22.4482C25.0256 22.4352 24.6622 22.4551 24.3025 22.5078C23.9708 22.5499 23.7295 22.5877 23.465 22.6293C23.2006 22.6709 22.9407 22.714 22.6854 22.7581C22.4301 22.8023 22.1779 22.848 21.932 22.893C21.6861 22.9379 21.4409 22.9816 21.2001 23.0237L20.4857 23.1501C20.2504 23.1917 20.0182 23.234 19.7873 23.2735C19.5563 23.313 19.3262 23.3519 19.097 23.3885C18.8678 23.4251 18.6402 23.4622 18.4118 23.498C18.1834 23.5338 17.958 23.5704 17.7307 23.6049C17.5033 23.6394 17.2739 23.6723 17.0454 23.7034C16.5815 23.7663 16.1171 23.8252 15.6522 23.88C15.4162 23.9072 15.1774 23.9323 14.9353 23.9584C14.6932 23.9846 14.4483 24.0073 14.1993 24.0306C13.9504 24.0538 13.6984 24.0758 13.4415 24.0954C13.1847 24.115 12.9226 24.1325 12.6548 24.1477C11.8026 24.1957 10.9492 24.221 10.0957 24.2234V25.0649C10.4002 25.0649 10.6972 25.0615 10.9865 25.0545C11.2758 25.0475 11.5598 25.0388 11.8384 25.0284C12.1163 25.0174 12.3878 25.0048 12.6548 24.9897C12.9218 24.9745 13.1834 24.9565 13.4415 24.9374C13.6996 24.9183 13.9506 24.8956 14.1993 24.8726C14.448 24.8496 14.6929 24.8258 14.9353 24.8007C15.1776 24.7756 15.4175 24.75 15.6522 24.7223C15.8869 24.6946 16.1214 24.6664 16.3534 24.6366C16.5853 24.6068 16.8158 24.5773 17.0452 24.5457C17.2746 24.514 17.502 24.4816 17.7304 24.4474C17.9588 24.4132 18.1839 24.3763 18.4115 24.3405C18.6392 24.3047 18.8683 24.2679 19.0967 24.2308C19.3251 24.1936 19.5558 24.1555 19.787 24.1155C20.0182 24.0755 20.2507 24.034 20.4859 23.9922L21.2001 23.8659L21.9317 23.7353C22.1789 23.6906 22.4299 23.6446 22.6854 23.6004C22.941 23.5563 23.2004 23.5129 23.465 23.4713C23.7297 23.4298 23.9726 23.3929 24.3025 23.3503C24.6622 23.2978 25.0256 23.2779 25.3887 23.2907C25.73 23.314 26.0003 23.4036 26.0003 23.6488V22.8065C26.0003 22.5614 25.73 22.4725 25.3887 22.4482Z" fill="url(#paint5_linear_25532_87169)"/>
<path d="M11.7883 20.83C12.0472 20.8201 12.2959 20.8088 12.5403 20.7955C12.7847 20.7822 13.0225 20.7673 13.2559 20.7503C13.4894 20.7333 13.7219 20.7145 13.9528 20.6941C14.4239 20.6519 14.8946 20.6052 15.3648 20.5538C15.6085 20.5271 15.8572 20.4981 16.1155 20.4657C16.3739 20.4333 16.6429 20.3991 16.9236 20.3612C17.2042 20.3233 17.4976 20.2828 17.8042 20.2352V14.3447C15.4505 14.7241 13.0742 14.9356 10.6923 14.9777C10.6142 14.9777 10.5368 14.9935 10.4647 15.0243C10.3925 15.0551 10.3269 15.1002 10.2717 15.1571C10.2165 15.214 10.1727 15.2815 10.1428 15.3558C10.113 15.4302 10.0976 15.5098 10.0977 15.5902V20.8653C10.406 20.8653 10.6991 20.8616 10.98 20.8551C11.261 20.8486 11.5292 20.8397 11.7883 20.83Z" fill="url(#paint6_linear_25532_87169)"/>
<path d="M11.9338 15.2256C11.9046 15.3194 11.8904 15.3664 11.8614 15.4608L11.627 15.4697L11.8165 15.6066L11.7439 15.8418C11.8201 15.7814 11.8579 15.7519 11.9338 15.6913C12.0099 15.7459 12.047 15.7726 12.1233 15.8267C12.0939 15.7352 12.0797 15.6895 12.0508 15.5977L12.2406 15.4454C12.1467 15.4501 12.0995 15.4514 12.0058 15.4558L11.9338 15.2256Z" fill="url(#paint7_linear_25532_87169)"/>
<path d="M12.6101 18.123L12.5377 18.3596L12.3027 18.3716L12.4926 18.5056C12.4636 18.6 12.4492 18.6473 12.42 18.7408C12.4961 18.6799 12.5342 18.6491 12.6101 18.5872C12.6862 18.6394 12.7243 18.6656 12.8004 18.7194L12.7276 18.4915L12.9179 18.336C12.8237 18.3423 12.7768 18.3452 12.6829 18.3504L12.6101 18.123Z" fill="url(#paint8_linear_25532_87169)"/>
<path d="M12.6829 19.524L12.6101 19.2959L12.5377 19.5327L12.3027 19.5444C12.3789 19.5983 12.4167 19.6254 12.4926 19.6785C12.4636 19.7731 12.4492 19.8201 12.42 19.9137C12.4961 19.8523 12.5342 19.8214 12.6101 19.7595C12.6862 19.8118 12.7243 19.8395 12.8004 19.8923L12.7276 19.6644L12.9179 19.5089C12.8237 19.5159 12.7768 19.5199 12.6829 19.524Z" fill="url(#paint9_linear_25532_87169)"/>
<path d="M11.9318 17.5684C11.9026 17.6627 11.8882 17.7092 11.8595 17.8036C11.7656 17.8075 11.7186 17.8096 11.625 17.8124C11.7011 17.8671 11.7384 17.8948 11.8143 17.9489L11.7422 18.1841C11.8184 18.124 11.8559 18.0934 11.9318 18.0328C12.008 18.0871 12.0453 18.1143 12.1216 18.1686C12.0922 18.0769 12.0777 18.0312 12.0488 17.9392L12.2389 17.7871C12.145 17.7915 12.0978 17.7939 12.0041 17.7975L11.9318 17.5684Z" fill="url(#paint10_linear_25532_87169)"/>
<path d="M11.9318 18.7412L11.8597 18.9764C11.7658 18.9795 11.7186 18.9819 11.625 18.9853L11.8146 19.1217L11.7422 19.3569L11.9318 19.2051L12.1219 19.3407C12.0925 19.249 12.078 19.2035 12.0491 19.1115C12.1252 19.0512 12.163 19.0201 12.2391 18.9592L12.0044 18.9696L11.9318 18.7412Z" fill="url(#paint11_linear_25532_87169)"/>
<path d="M11.9321 16.3975L11.8595 16.6327L11.625 16.6415L11.8146 16.7782L11.7422 17.0134C11.8184 16.9533 11.8562 16.923 11.9321 16.8624C12.0082 16.9167 12.0453 16.9439 12.1216 16.998C12.0922 16.9065 12.0777 16.8605 12.0488 16.7688L12.2389 16.6165C12.145 16.6209 12.098 16.6233 12.0041 16.6272C11.9755 16.5349 11.9608 16.4895 11.9321 16.3975Z" fill="url(#paint12_linear_25532_87169)"/>
<path d="M13.9658 19.1963L13.8935 19.4346C13.7993 19.443 13.7521 19.4466 13.6582 19.4547C13.7343 19.507 13.7724 19.5331 13.8483 19.5825L13.776 19.8211L13.9658 19.6612L14.1556 19.7874C14.1313 19.7122 14.1071 19.6369 14.083 19.5616L14.2729 19.4001C14.1787 19.4093 14.1318 19.4132 14.0381 19.4218C14.0092 19.3314 13.9957 19.2867 13.9658 19.1963Z" fill="url(#paint13_linear_25532_87169)"/>
<path d="M12.6101 16.9502L12.5377 17.1867C12.4436 17.1919 12.3966 17.194 12.3027 17.1987L12.4926 17.3325L12.42 17.569L12.6101 17.4151C12.6862 17.4674 12.7243 17.4935 12.8004 17.5473C12.7715 17.4564 12.7565 17.4107 12.7276 17.3192L12.9179 17.1642C12.8237 17.17 12.7768 17.1734 12.6829 17.1783L12.6101 16.9502Z" fill="url(#paint14_linear_25532_87169)"/>
<path d="M13.2878 18.665L13.215 18.9029L12.9805 18.9178L13.1708 19.0484L13.0982 19.2854L13.2883 19.1286L13.4784 19.2577L13.4058 19.0309C13.4819 18.9679 13.5197 18.936 13.5956 18.8725L13.3609 18.8908C13.336 18.8158 13.3116 18.7405 13.2878 18.665Z" fill="url(#paint15_linear_25532_87169)"/>
<path d="M13.3609 20.0647L13.2883 19.8379L13.2155 20.0754C13.1218 20.0822 13.0746 20.0851 12.9805 20.0914L13.1708 20.2221L13.0982 20.4599C13.1744 20.3974 13.2122 20.3653 13.2883 20.3031C13.3644 20.3553 13.4022 20.3815 13.4784 20.4324L13.4058 20.2056C13.4819 20.1423 13.5197 20.111 13.5956 20.0472L13.3609 20.0647Z" fill="url(#paint16_linear_25532_87169)"/>
<path d="M12.6101 15.7793L12.5377 16.0145C12.4436 16.0197 12.3966 16.0218 12.3027 16.0268L12.4926 16.1608C12.4636 16.2554 12.4492 16.3028 12.42 16.396C12.4961 16.3346 12.5342 16.3041 12.6101 16.2421C12.6862 16.2944 12.7243 16.3205 12.8004 16.3746L12.7276 16.1465C12.8037 16.0848 12.8415 16.0532 12.9179 15.991C12.8237 15.997 12.7768 16.0001 12.6829 16.0054L12.6101 15.7793Z" fill="url(#paint17_linear_25532_87169)"/>
<path d="M13.2875 17.4932L13.2152 17.7307C13.1211 17.737 13.0746 17.7406 12.9805 17.7464L13.1705 17.8771L13.0977 18.1146L13.288 17.9578L13.4781 18.0869L13.4055 17.8598L13.5954 17.703L13.3606 17.7213L13.2875 17.4932Z" fill="url(#paint18_linear_25532_87169)"/>
<path d="M12.0044 20.1435L11.9318 19.9141L11.8595 20.1493L11.625 20.1584C11.7011 20.2125 11.7387 20.2405 11.8146 20.2948L11.7422 20.53L11.9318 20.3787L12.1219 20.5146L12.0491 20.2854L12.2391 20.1331L12.0044 20.1435Z" fill="url(#paint19_linear_25532_87169)"/>
<path d="M10.5737 17.6084L10.5009 17.8418C10.4067 17.8418 10.3595 17.8418 10.2656 17.8433C10.3418 17.9003 10.3798 17.9291 10.456 17.9855L10.3831 18.2189L10.5735 18.0728C10.6496 18.1295 10.6877 18.1572 10.7638 18.2137L10.6915 17.9826L10.8815 17.8355C10.7874 17.8371 10.7404 17.8386 10.6463 17.8397L10.5737 17.6084Z" fill="url(#paint20_linear_25532_87169)"/>
<path d="M10.5737 16.4355L10.5009 16.6687C10.4067 16.6687 10.3595 16.67 10.2656 16.6702L10.456 16.8124L10.3834 17.0458L10.5737 16.9002L10.7638 17.0405L10.6915 16.8093C10.7676 16.7507 10.8054 16.7217 10.8815 16.6624C10.7876 16.6642 10.7404 16.665 10.6463 16.6663L10.5737 16.4355Z" fill="url(#paint21_linear_25532_87169)"/>
<path d="M10.6463 20.1834L10.5735 19.9521L10.5006 20.185C10.4065 20.1863 10.3595 20.1866 10.2656 20.1871L10.456 20.329L10.3834 20.5626L10.5735 20.4168L10.7638 20.5577C10.7395 20.4804 10.7153 20.4032 10.6912 20.3259L10.8813 20.179C10.7882 20.1813 10.7415 20.1816 10.6463 20.1834Z" fill="url(#paint22_linear_25532_87169)"/>
<path d="M13.098 16.9435L13.2878 16.7867C13.3639 16.8389 13.4023 16.8651 13.4781 16.916L13.4058 16.6889L13.5956 16.5303C13.5015 16.5381 13.4548 16.5418 13.3609 16.5488L13.288 16.3223L13.2155 16.5593C13.1218 16.5661 13.0746 16.569 12.9805 16.5755L13.1708 16.7062L13.098 16.9435Z" fill="url(#paint23_linear_25532_87169)"/>
<path d="M13.098 15.7711C13.1741 15.7087 13.2122 15.6773 13.288 15.6143C13.3642 15.6666 13.4023 15.6927 13.4781 15.7434L13.4058 15.5166C13.4819 15.4536 13.5198 15.4217 13.5956 15.3582C13.5015 15.3661 13.4548 15.3695 13.3609 15.3765L13.288 15.1494L13.2155 15.387C13.1218 15.394 13.0746 15.3972 12.9805 15.4032L13.1708 15.5338L13.098 15.7711Z" fill="url(#paint24_linear_25532_87169)"/>
<path d="M10.5737 18.7793L10.5006 19.0127H10.2656L10.456 19.1556L10.3831 19.3885L10.5735 19.2426L10.7638 19.3832L10.6915 19.152L10.8813 19.0051C10.7874 19.0069 10.7404 19.0077 10.6463 19.009L10.5737 18.7793Z" fill="url(#paint25_linear_25532_87169)"/>
<path d="M11.2531 15.834L11.1806 16.0679C11.0867 16.0702 11.0397 16.0718 10.9453 16.0739L11.1356 16.2132L11.0631 16.4484L11.2531 16.2994L11.4435 16.4374L11.3706 16.2072L11.5607 16.0572L11.3262 16.0647C11.2968 15.9728 11.2823 15.9268 11.2531 15.834Z" fill="url(#paint26_linear_25532_87169)"/>
<path d="M11.2531 17.0078L11.1806 17.243L10.9453 17.2488C11.0214 17.3047 11.0595 17.3321 11.1356 17.3875C11.1065 17.4811 11.092 17.5284 11.0631 17.6227C11.1392 17.5631 11.177 17.5339 11.2529 17.474C11.329 17.5294 11.3673 17.5566 11.4435 17.6115L11.3706 17.3815L11.5607 17.2318L11.3257 17.2394C11.2965 17.1458 11.2823 17.1001 11.2531 17.0078Z" fill="url(#paint27_linear_25532_87169)"/>
<path d="M11.326 19.5808L11.2534 19.3506L11.1808 19.5858C11.0867 19.5884 11.0395 19.5894 10.9453 19.5915L11.1359 19.7306L11.0631 19.9658L11.2531 19.8171L11.4437 19.9551L11.3709 19.7248L11.561 19.5748L11.326 19.5808Z" fill="url(#paint28_linear_25532_87169)"/>
<path d="M11.2529 18.1797L11.1803 18.4149C11.0864 18.4172 11.0392 18.4188 10.9453 18.4204L11.1354 18.5597C11.1062 18.6532 11.0917 18.7005 11.0628 18.7949L11.2529 18.6459L11.4432 18.7839C11.4143 18.6919 11.3998 18.6459 11.3704 18.5539C11.4465 18.4943 11.4848 18.4638 11.5607 18.4037C11.4666 18.4068 11.4196 18.4089 11.3257 18.4118L11.2529 18.1797Z" fill="url(#paint29_linear_25532_87169)"/>
<path d="M10.5737 15.2627L10.5011 15.4961C10.407 15.4961 10.3595 15.4976 10.2656 15.4982C10.3418 15.5551 10.3801 15.5839 10.456 15.6401L10.3834 15.8729L10.5737 15.7279C10.6498 15.7843 10.6879 15.812 10.764 15.8679L10.6917 15.6369L10.8821 15.4898C10.7879 15.4919 10.7404 15.4929 10.6463 15.4942L10.5737 15.2627Z" fill="url(#paint30_linear_25532_87169)"/>
<path d="M13.9655 18.0244L13.8932 18.2628C13.7991 18.2711 13.7524 18.2748 13.6582 18.2826C13.7343 18.3349 13.7721 18.3594 13.848 18.4101L13.7757 18.649C13.8518 18.5852 13.8897 18.5528 13.9655 18.4888L14.1554 18.615L14.0828 18.3895L14.2726 18.228C14.1785 18.2371 14.1315 18.2411 14.0379 18.2497C14.0089 18.16 13.9955 18.1148 13.9655 18.0244Z" fill="url(#paint31_linear_25532_87169)"/>
<path d="M16.6792 17.7246L16.6063 17.9663L16.3711 17.9969L16.5612 18.1161L16.4883 18.3578L16.6789 18.1895C16.7551 18.2366 16.7931 18.2606 16.8693 18.3079L16.7964 18.0853L16.987 17.9159L16.7518 17.9475L16.6792 17.7246Z" fill="url(#paint32_linear_25532_87169)"/>
<path d="M16.6792 16.5527C16.65 16.6497 16.6353 16.6975 16.6063 16.7945C16.5122 16.8068 16.465 16.813 16.3711 16.8245C16.4472 16.8729 16.4853 16.8964 16.5614 16.9442L16.4888 17.1857C16.565 17.1183 16.603 17.0851 16.6792 17.0174L16.8695 17.1358L16.7967 16.9134L16.9873 16.7438C16.8934 16.7563 16.8459 16.7631 16.752 16.7754L16.6792 16.5527Z" fill="url(#paint33_linear_25532_87169)"/>
<path d="M16.7515 19.1201L16.6789 18.8975L16.6061 19.1395C16.5122 19.1512 16.465 19.158 16.3711 19.1695L16.5612 19.2889L16.4883 19.5307L16.6787 19.3624C16.7548 19.4097 16.7931 19.4332 16.869 19.4808L16.7964 19.2584L16.9868 19.0888L16.7515 19.1201Z" fill="url(#paint34_linear_25532_87169)"/>
<path d="M16.0014 16.0527C15.9727 16.1492 15.9585 16.1975 15.9293 16.2942L15.6953 16.3219L15.8846 16.4429L15.8126 16.6841C15.8887 16.6177 15.9257 16.5843 16.0014 16.5176L16.1909 16.6376L16.1184 16.4144L16.3087 16.2469L16.0737 16.2764C16.0486 16.2022 16.0244 16.1277 16.0014 16.0527Z" fill="url(#paint35_linear_25532_87169)"/>
<path d="M16.6794 15.3809L16.6063 15.6226C16.5122 15.6349 16.4652 15.6409 16.3711 15.6526L16.5617 15.7723L16.4888 16.0143C16.565 15.9472 16.603 15.9127 16.6792 15.8455L16.8698 15.9644C16.8456 15.8901 16.8214 15.8158 16.7969 15.7415C16.8731 15.6743 16.9114 15.6396 16.9875 15.5719L16.752 15.6035L16.6794 15.3809Z" fill="url(#paint36_linear_25532_87169)"/>
<path d="M16.0014 14.8809C15.9727 14.977 15.9585 15.0256 15.9293 15.1221L15.6953 15.1498C15.7714 15.1979 15.8093 15.2224 15.8846 15.2708L15.8126 15.5117C15.8887 15.4453 15.9257 15.4119 16.0014 15.3453L16.1912 15.4652L16.1186 15.2423C16.1948 15.1751 16.2323 15.1417 16.3087 15.0748L16.0737 15.1043C16.0487 15.0301 16.0246 14.9557 16.0014 14.8809Z" fill="url(#paint37_linear_25532_87169)"/>
<path d="M17.3584 17.0459L17.2855 17.2887C17.1916 17.3017 17.1447 17.3085 17.0508 17.3211L17.2409 17.4384L17.168 17.6809L17.3581 17.5106L17.5479 17.6268C17.5188 17.5383 17.5045 17.4938 17.4756 17.405C17.5517 17.3365 17.5893 17.3025 17.6649 17.2335C17.5713 17.2476 17.5246 17.2539 17.4309 17.2678L17.3584 17.0459Z" fill="url(#paint38_linear_25532_87169)"/>
<path d="M17.3586 15.874L17.2858 16.1163C17.1919 16.1299 17.1449 16.1361 17.0508 16.1492C17.1269 16.1965 17.1647 16.2192 17.2406 16.266L17.168 16.5091L17.3584 16.3382L17.5479 16.455C17.5188 16.3661 17.5045 16.3217 17.4756 16.2326C17.5517 16.1641 17.5893 16.1301 17.6649 16.0614L17.4309 16.0956L17.3586 15.874Z" fill="url(#paint39_linear_25532_87169)"/>
<path d="M17.4304 19.6125L17.3581 19.3906L17.2853 19.6331C17.1916 19.6465 17.1444 19.653 17.0508 19.6658L17.2406 19.7831L17.1678 20.0262C17.2439 19.9582 17.2822 19.9235 17.3581 19.855L17.5477 19.9718L17.4751 19.7497L17.6647 19.5783C17.571 19.5924 17.5253 19.5992 17.4304 19.6125Z" fill="url(#paint40_linear_25532_87169)"/>
<path d="M17.3589 14.7012L17.286 14.944C17.1921 14.9573 17.1449 14.9641 17.0508 14.9769L17.2414 15.094L17.1683 15.3362L17.3589 15.1661C17.435 15.2126 17.4726 15.2361 17.5484 15.2821C17.5195 15.1935 17.5048 15.1491 17.4761 15.0602C17.5522 14.9918 17.5896 14.9578 17.6652 14.8888C17.5718 14.9029 17.5251 14.91 17.4315 14.9233L17.3589 14.7012Z" fill="url(#paint41_linear_25532_87169)"/>
<path d="M17.3584 18.2197L17.2855 18.4622L17.0508 18.4947L17.2406 18.6123L17.168 18.8545L17.3581 18.6844L17.5477 18.8004L17.4754 18.5785C17.5515 18.5101 17.589 18.4761 17.6647 18.4071C17.5713 18.4215 17.5243 18.428 17.4304 18.4413L17.3584 18.2197Z" fill="url(#paint42_linear_25532_87169)"/>
<path d="M16.0016 17.2246C15.9729 17.321 15.9587 17.3694 15.9296 17.4658L15.6953 17.4938C15.7714 17.5421 15.8093 17.567 15.8849 17.615L15.8128 17.856L16.0016 17.6893L16.1915 17.8095L16.1189 17.5863C16.195 17.5194 16.2326 17.4857 16.309 17.4188C16.2148 17.4308 16.1673 17.4366 16.074 17.4481L16.0016 17.2246Z" fill="url(#paint43_linear_25532_87169)"/>
<path d="M13.9658 15.6797L13.8935 15.918C13.7993 15.9264 13.7521 15.9306 13.6582 15.9381L13.8483 16.0662L13.776 16.3048C13.8521 16.241 13.8899 16.2084 13.9658 16.1443C14.0419 16.1966 14.0795 16.2204 14.1556 16.2708L14.083 16.0453C14.1592 15.981 14.197 15.9478 14.2729 15.8835L14.0381 15.9055C14.0092 15.8148 13.9957 15.7701 13.9658 15.6797Z" fill="url(#paint44_linear_25532_87169)"/>
<path d="M14.6457 18.5459L14.5731 18.7855C14.4792 18.7947 14.432 18.7994 14.3379 18.808L14.5282 18.9332L14.4554 19.1728L14.6457 19.0106C14.7219 19.0607 14.7599 19.0853 14.8361 19.1352L14.7632 18.9105C14.8394 18.8457 14.8772 18.8127 14.9533 18.7474L14.7186 18.7714C14.6894 18.6826 14.6747 18.6363 14.6457 18.5459Z" fill="url(#paint45_linear_25532_87169)"/>
<path d="M16.0016 18.3975L15.9296 18.6387C15.8359 18.6499 15.7892 18.6559 15.6953 18.6666C15.7714 18.7155 15.809 18.7398 15.8849 18.7879L15.8126 19.0286C15.8887 18.9622 15.926 18.929 16.0016 18.8624L16.1912 18.9823L16.1189 18.7594C16.195 18.6922 16.2326 18.6585 16.309 18.5916C16.2148 18.6037 16.1673 18.6091 16.074 18.6209C16.0488 18.5468 16.0247 18.4723 16.0016 18.3975Z" fill="url(#paint46_linear_25532_87169)"/>
<path d="M14.6457 16.2021L14.5731 16.4415L14.3379 16.4643L14.5282 16.5894L14.4554 16.8291C14.5315 16.764 14.5698 16.7319 14.6457 16.6668C14.7219 16.7167 14.7599 16.7413 14.8361 16.7915C14.8069 16.7013 14.7922 16.6563 14.7635 16.5662C14.8396 16.5011 14.8774 16.469 14.9536 16.4034L14.7186 16.4272L14.6457 16.2021Z" fill="url(#paint47_linear_25532_87169)"/>
<path d="M14.6457 19.7178L14.5731 19.9572C14.4792 19.9666 14.432 19.971 14.3379 19.9799L14.5282 20.1051L14.4554 20.345L14.6457 20.1824L14.8361 20.3073L14.7632 20.0821C14.8394 20.0173 14.8772 19.9846 14.9533 19.9193L14.7186 19.9428L14.6457 19.7178Z" fill="url(#paint48_linear_25532_87169)"/>
<path d="M13.9655 16.8525L13.8932 17.0911C13.7991 17.0992 13.7524 17.1034 13.6582 17.111C13.7343 17.1633 13.7721 17.1894 13.848 17.2388L13.7757 17.4774L13.9655 17.3172C14.0417 17.3679 14.0792 17.3932 14.1554 17.4434L14.0828 17.2179L14.2726 17.0564C14.1785 17.0655 14.1315 17.0694 14.0379 17.0783L13.9655 16.8525Z" fill="url(#paint49_linear_25532_87169)"/>
<path d="M14.646 15.0293L14.5731 15.2689C14.4792 15.2783 14.432 15.2825 14.3379 15.2914L14.528 15.4169L14.4554 15.656L14.646 15.494C14.7221 15.5433 14.7597 15.569 14.8361 15.6186L14.7635 15.3936C14.8396 15.3288 14.8774 15.2959 14.9538 15.2305C14.8597 15.2402 14.8127 15.2454 14.7186 15.2546L14.646 15.0293Z" fill="url(#paint50_linear_25532_87169)"/>
<path d="M14.6457 17.374L14.5731 17.6134L14.3379 17.6374L14.5282 17.7629L14.4556 18.0025L14.6457 17.84L14.8361 17.9646L14.7635 17.7396L14.9536 17.5766C14.8597 17.5865 14.8127 17.5912 14.7186 17.6006C14.6896 17.5089 14.6749 17.4644 14.6457 17.374Z" fill="url(#paint51_linear_25532_87169)"/>
<path d="M16.072 19.794C16.0431 19.7049 16.0289 19.6597 15.9997 19.5703L15.9276 19.8115C15.834 19.8233 15.7873 19.8283 15.6934 19.8392L15.8827 19.9605L15.8106 20.2017C15.8867 20.1353 15.924 20.1013 15.9997 20.0347C16.0758 20.0831 16.1136 20.1074 16.1895 20.1552L16.1169 19.932L16.307 19.7642L16.072 19.794Z" fill="url(#paint52_linear_25532_87169)"/>
<path d="M15.3958 19.286L15.3232 19.0615L15.2504 19.3022L15.0156 19.3283L15.2057 19.452L15.1331 19.6921L15.3235 19.5277L15.5133 19.6506L15.4405 19.4263C15.5166 19.3605 15.5547 19.327 15.6305 19.2607C15.5366 19.2703 15.4897 19.2758 15.3958 19.286Z" fill="url(#paint53_linear_25532_87169)"/>
<path d="M15.3232 15.5459L15.2506 15.7861C15.1567 15.7965 15.1095 15.8007 15.0156 15.8122L15.2057 15.9361L15.1331 16.1762L15.3235 16.0119L15.5133 16.1344L15.4405 15.9105L15.6305 15.745L15.3958 15.7712L15.3232 15.5459Z" fill="url(#paint54_linear_25532_87169)"/>
<path d="M15.3232 17.8896L15.2506 18.1298L15.0156 18.1559L15.206 18.2793L15.1334 18.5195L15.3235 18.3556L15.5135 18.4776L15.4407 18.2539L15.6308 18.0885C15.5369 18.099 15.4897 18.1047 15.396 18.1147L15.3232 17.8896Z" fill="url(#paint55_linear_25532_87169)"/>
<path d="M15.3235 16.7168C15.2945 16.8132 15.2798 16.8608 15.2506 16.9572C15.157 16.9677 15.1095 16.9721 15.0156 16.9821L15.206 17.1054L15.1334 17.3456L15.3235 17.1817L15.5135 17.304L15.4407 17.0801C15.5168 17.0142 15.5549 16.9807 15.6308 16.9146C15.5371 16.9256 15.4899 16.9306 15.396 16.9408L15.3235 16.7168Z" fill="url(#paint56_linear_25532_87169)"/>
</g>
<defs>
<linearGradient id="paint0_linear_25532_87169" x1="10.0971" y1="24.5213" x2="26" y2="24.5213" gradientUnits="userSpaceOnUse">
<stop stop-color="#600000"/>
<stop offset="0.327" stop-color="#630000"/>
<stop offset="0.59" stop-color="#6D0000"/>
<stop offset="0.83" stop-color="#7E0000"/>
<stop offset="1" stop-color="#8F0000"/>
</linearGradient>
<linearGradient id="paint1_linear_25532_87169" x1="18.0486" y1="23.045" x2="18.0486" y2="26.0007" gradientUnits="userSpaceOnUse">
<stop offset="0.35" stop-color="#BF1010"/>
<stop offset="0.645" stop-color="#BD1010"/>
<stop offset="0.752" stop-color="#B60F0F"/>
<stop offset="0.828" stop-color="#AB0D0D"/>
<stop offset="0.889" stop-color="#9A0A0A"/>
<stop offset="0.941" stop-color="#840606"/>
<stop offset="0.987" stop-color="#690202"/>
<stop offset="1" stop-color="#600000"/>
</linearGradient>
<linearGradient id="paint2_linear_25532_87169" x1="10.0977" y1="19.5483" x2="26.0005" y2="19.5483" gradientUnits="userSpaceOnUse">
<stop stop-color="#BF1010"/>
<stop offset="0.021" stop-color="#C11212"/>
<stop offset="0.244" stop-color="#D22323"/>
<stop offset="0.487" stop-color="#DC2D2D"/>
<stop offset="0.791" stop-color="#DF3030"/>
<stop offset="0.841" stop-color="#DC2E2E"/>
<stop offset="0.882" stop-color="#D22626"/>
<stop offset="0.919" stop-color="#C11919"/>
<stop offset="0.954" stop-color="#A90808"/>
<stop offset="0.966" stop-color="#9F0000"/>
<stop offset="1" stop-color="#DF3030"/>
</linearGradient>
<linearGradient id="paint3_linear_25532_87169" x1="10.0979" y1="17.8746" x2="26.0007" y2="17.8746" gradientUnits="userSpaceOnUse">
<stop stop-color="#DFDFDF"/>
<stop offset="0.021" stop-color="#E1E1E1"/>
<stop offset="0.244" stop-color="#F2F2F2"/>
<stop offset="0.487" stop-color="#FCFCFC"/>
<stop offset="0.791" stop-color="white"/>
<stop offset="0.841" stop-color="#FCFCFC"/>
<stop offset="0.882" stop-color="#F2F2F2"/>
<stop offset="0.919" stop-color="#E1E1E1"/>
<stop offset="0.954" stop-color="#C9C9C9"/>
<stop offset="0.966" stop-color="#BFBFBF"/>
<stop offset="1" stop-color="white"/>
</linearGradient>
<linearGradient id="paint4_linear_25532_87169" x1="285.807" y1="190.918" x2="1282.41" y2="190.918" gradientUnits="userSpaceOnUse">
<stop stop-color="#DFDFDF"/>
<stop offset="0.021" stop-color="#E1E1E1"/>
<stop offset="0.244" stop-color="#F2F2F2"/>
<stop offset="0.487" stop-color="#FCFCFC"/>
<stop offset="0.791" stop-color="white"/>
<stop offset="0.841" stop-color="#FCFCFC"/>
<stop offset="0.882" stop-color="#F2F2F2"/>
<stop offset="0.919" stop-color="#E1E1E1"/>
<stop offset="0.954" stop-color="#C9C9C9"/>
<stop offset="0.966" stop-color="#BFBFBF"/>
<stop offset="1" stop-color="white"/>
</linearGradient>
<linearGradient id="paint5_linear_25532_87169" x1="285.818" y1="209.558" x2="1282.46" y2="209.558" gradientUnits="userSpaceOnUse">
<stop stop-color="#DFDFDF"/>
<stop offset="0.021" stop-color="#E1E1E1"/>
<stop offset="0.244" stop-color="#F2F2F2"/>
<stop offset="0.487" stop-color="#FCFCFC"/>
<stop offset="0.791" stop-color="white"/>
<stop offset="0.841" stop-color="#FCFCFC"/>
<stop offset="0.882" stop-color="#F2F2F2"/>
<stop offset="0.919" stop-color="#E1E1E1"/>
<stop offset="0.954" stop-color="#C9C9C9"/>
<stop offset="0.966" stop-color="#BFBFBF"/>
<stop offset="1" stop-color="white"/>
</linearGradient>
<linearGradient id="paint6_linear_25532_87169" x1="10.0971" y1="17.6049" x2="26" y2="17.6049" gradientUnits="userSpaceOnUse">
<stop stop-color="#00209F"/>
<stop offset="0.021" stop-color="#0222A1"/>
<stop offset="0.244" stop-color="#1333B2"/>
<stop offset="0.487" stop-color="#1D3DBC"/>
<stop offset="0.791" stop-color="#2040BF"/>
<stop offset="0.841" stop-color="#1E3DBC"/>
<stop offset="0.882" stop-color="#1933B2"/>
<stop offset="0.919" stop-color="#1122A1"/>
<stop offset="0.954" stop-color="#050A89"/>
<stop offset="0.966" stop-color="#00007F"/>
<stop offset="1" stop-color="#2040BF"/>
</linearGradient>
<linearGradient id="paint7_linear_25532_87169" x1="22.2656" y1="39.8419" x2="60.7163" y2="39.8419" gradientUnits="userSpaceOnUse">
<stop stop-color="#DFDFDF"/>
<stop offset="0.021" stop-color="#E1E1E1"/>
<stop offset="0.244" stop-color="#F2F2F2"/>
<stop offset="0.487" stop-color="#FCFCFC"/>
<stop offset="0.791" stop-color="white"/>
<stop offset="0.841" stop-color="#FCFCFC"/>
<stop offset="0.882" stop-color="#F2F2F2"/>
<stop offset="0.919" stop-color="#E1E1E1"/>
<stop offset="0.954" stop-color="#C9C9C9"/>
<stop offset="0.966" stop-color="#BFBFBF"/>
<stop offset="1" stop-color="white"/>
</linearGradient>
<linearGradient id="paint8_linear_25532_87169" x1="22.9678" y1="49.6565" x2="61.5119" y2="49.6565" gradientUnits="userSpaceOnUse">
<stop stop-color="#DFDFDF"/>
<stop offset="0.021" stop-color="#E1E1E1"/>
<stop offset="0.244" stop-color="#F2F2F2"/>
<stop offset="0.487" stop-color="#FCFCFC"/>
<stop offset="0.791" stop-color="white"/>
<stop offset="0.841" stop-color="#FCFCFC"/>
<stop offset="0.882" stop-color="#F2F2F2"/>
<stop offset="0.919" stop-color="#E1E1E1"/>
<stop offset="0.954" stop-color="#C9C9C9"/>
<stop offset="0.966" stop-color="#BFBFBF"/>
<stop offset="1" stop-color="white"/>
</linearGradient>
<linearGradient id="paint9_linear_25532_87169" x1="22.9678" y1="53.6002" x2="61.5119" y2="53.6002" gradientUnits="userSpaceOnUse">
<stop stop-color="#DFDFDF"/>
<stop offset="0.021" stop-color="#E1E1E1"/>
<stop offset="0.244" stop-color="#F2F2F2"/>
<stop offset="0.487" stop-color="#FCFCFC"/>
<stop offset="0.791" stop-color="white"/>
<stop offset="0.841" stop-color="#FCFCFC"/>
<stop offset="0.882" stop-color="#F2F2F2"/>
<stop offset="0.919" stop-color="#E1E1E1"/>
<stop offset="0.954" stop-color="#C9C9C9"/>
<stop offset="0.966" stop-color="#BFBFBF"/>
<stop offset="1" stop-color="white"/>
</linearGradient>
<linearGradient id="paint10_linear_25532_87169" x1="22.2681" y1="47.688" x2="60.7346" y2="47.688" gradientUnits="userSpaceOnUse">
<stop stop-color="#DFDFDF"/>
<stop offset="0.021" stop-color="#E1E1E1"/>
<stop offset="0.244" stop-color="#F2F2F2"/>
<stop offset="0.487" stop-color="#FCFCFC"/>
<stop offset="0.791" stop-color="white"/>
<stop offset="0.841" stop-color="#FCFCFC"/>
<stop offset="0.882" stop-color="#F2F2F2"/>
<stop offset="0.919" stop-color="#E1E1E1"/>
<stop offset="0.954" stop-color="#C9C9C9"/>
<stop offset="0.966" stop-color="#BFBFBF"/>
<stop offset="1" stop-color="white"/>
</linearGradient>
<linearGradient id="paint11_linear_25532_87169" x1="22.2725" y1="51.6218" x2="60.7549" y2="51.6218" gradientUnits="userSpaceOnUse">
<stop stop-color="#DFDFDF"/>
<stop offset="0.021" stop-color="#E1E1E1"/>
<stop offset="0.244" stop-color="#F2F2F2"/>
<stop offset="0.487" stop-color="#FCFCFC"/>
<stop offset="0.791" stop-color="white"/>
<stop offset="0.841" stop-color="#FCFCFC"/>
<stop offset="0.882" stop-color="#F2F2F2"/>
<stop offset="0.919" stop-color="#E1E1E1"/>
<stop offset="0.954" stop-color="#C9C9C9"/>
<stop offset="0.966" stop-color="#BFBFBF"/>
<stop offset="1" stop-color="white"/>
</linearGradient>
<linearGradient id="paint12_linear_25532_87169" x1="22.2681" y1="43.7667" x2="60.7346" y2="43.7667" gradientUnits="userSpaceOnUse">
<stop stop-color="#DFDFDF"/>
<stop offset="0.021" stop-color="#E1E1E1"/>
<stop offset="0.244" stop-color="#F2F2F2"/>
<stop offset="0.487" stop-color="#FCFCFC"/>
<stop offset="0.791" stop-color="white"/>
<stop offset="0.841" stop-color="#FCFCFC"/>
<stop offset="0.882" stop-color="#F2F2F2"/>
<stop offset="0.919" stop-color="#E1E1E1"/>
<stop offset="0.954" stop-color="#C9C9C9"/>
<stop offset="0.966" stop-color="#BFBFBF"/>
<stop offset="1" stop-color="white"/>
</linearGradient>
<linearGradient id="paint13_linear_25532_87169" x1="24.312" y1="53.6636" x2="62.836" y2="53.6636" gradientUnits="userSpaceOnUse">
<stop stop-color="#DFDFDF"/>
<stop offset="0.021" stop-color="#E1E1E1"/>
<stop offset="0.244" stop-color="#F2F2F2"/>
<stop offset="0.487" stop-color="#FCFCFC"/>
<stop offset="0.791" stop-color="white"/>
<stop offset="0.841" stop-color="#FCFCFC"/>
<stop offset="0.882" stop-color="#F2F2F2"/>
<stop offset="0.919" stop-color="#E1E1E1"/>
<stop offset="0.954" stop-color="#C9C9C9"/>
<stop offset="0.966" stop-color="#BFBFBF"/>
<stop offset="1" stop-color="white"/>
</linearGradient>
<linearGradient id="paint14_linear_25532_87169" x1="22.9678" y1="45.7615" x2="61.5119" y2="45.7615" gradientUnits="userSpaceOnUse">
<stop stop-color="#DFDFDF"/>
<stop offset="0.021" stop-color="#E1E1E1"/>
<stop offset="0.244" stop-color="#F2F2F2"/>
<stop offset="0.487" stop-color="#FCFCFC"/>
<stop offset="0.791" stop-color="white"/>
<stop offset="0.841" stop-color="#FCFCFC"/>
<stop offset="0.882" stop-color="#F2F2F2"/>
<stop offset="0.919" stop-color="#E1E1E1"/>
<stop offset="0.954" stop-color="#C9C9C9"/>
<stop offset="0.966" stop-color="#BFBFBF"/>
<stop offset="1" stop-color="white"/>
</linearGradient>
<linearGradient id="paint15_linear_25532_87169" x1="23.6455" y1="51.623" x2="62.1897" y2="51.623" gradientUnits="userSpaceOnUse">
<stop stop-color="#DFDFDF"/>
<stop offset="0.021" stop-color="#E1E1E1"/>
<stop offset="0.244" stop-color="#F2F2F2"/>
<stop offset="0.487" stop-color="#FCFCFC"/>
<stop offset="0.791" stop-color="white"/>
<stop offset="0.841" stop-color="#FCFCFC"/>
<stop offset="0.882" stop-color="#F2F2F2"/>
<stop offset="0.919" stop-color="#E1E1E1"/>
<stop offset="0.954" stop-color="#C9C9C9"/>
<stop offset="0.966" stop-color="#BFBFBF"/>
<stop offset="1" stop-color="white"/>
</linearGradient>
<linearGradient id="paint16_linear_25532_87169" x1="23.6455" y1="55.6693" x2="62.1897" y2="55.6693" gradientUnits="userSpaceOnUse">
<stop stop-color="#DFDFDF"/>
<stop offset="0.021" stop-color="#E1E1E1"/>
<stop offset="0.244" stop-color="#F2F2F2"/>
<stop offset="0.487" stop-color="#FCFCFC"/>
<stop offset="0.791" stop-color="white"/>
<stop offset="0.841" stop-color="#FCFCFC"/>
<stop offset="0.882" stop-color="#F2F2F2"/>
<stop offset="0.919" stop-color="#E1E1E1"/>
<stop offset="0.954" stop-color="#C9C9C9"/>
<stop offset="0.966" stop-color="#BFBFBF"/>
<stop offset="1" stop-color="white"/>
</linearGradient>
<linearGradient id="paint17_linear_25532_87169" x1="22.9678" y1="41.7266" x2="61.5119" y2="41.7266" gradientUnits="userSpaceOnUse">
<stop stop-color="#DFDFDF"/>
<stop offset="0.021" stop-color="#E1E1E1"/>
<stop offset="0.244" stop-color="#F2F2F2"/>
<stop offset="0.487" stop-color="#FCFCFC"/>
<stop offset="0.791" stop-color="white"/>
<stop offset="0.841" stop-color="#FCFCFC"/>
<stop offset="0.882" stop-color="#F2F2F2"/>
<stop offset="0.919" stop-color="#E1E1E1"/>
<stop offset="0.954" stop-color="#C9C9C9"/>
<stop offset="0.966" stop-color="#BFBFBF"/>
<stop offset="1" stop-color="white"/>
</linearGradient>
<linearGradient id="paint18_linear_25532_87169" x1="23.6411" y1="47.7194" x2="62.1706" y2="47.7194" gradientUnits="userSpaceOnUse">
<stop stop-color="#DFDFDF"/>
<stop offset="0.021" stop-color="#E1E1E1"/>
<stop offset="0.244" stop-color="#F2F2F2"/>
<stop offset="0.487" stop-color="#FCFCFC"/>
<stop offset="0.791" stop-color="white"/>
<stop offset="0.841" stop-color="#FCFCFC"/>
<stop offset="0.882" stop-color="#F2F2F2"/>
<stop offset="0.919" stop-color="#E1E1E1"/>
<stop offset="0.954" stop-color="#C9C9C9"/>
<stop offset="0.966" stop-color="#BFBFBF"/>
<stop offset="1" stop-color="white"/>
</linearGradient>
<linearGradient id="paint19_linear_25532_87169" x1="22.2725" y1="55.5724" x2="60.7549" y2="55.5724" gradientUnits="userSpaceOnUse">
<stop stop-color="#DFDFDF"/>
<stop offset="0.021" stop-color="#E1E1E1"/>
<stop offset="0.244" stop-color="#F2F2F2"/>
<stop offset="0.487" stop-color="#FCFCFC"/>
<stop offset="0.791" stop-color="white"/>
<stop offset="0.841" stop-color="#FCFCFC"/>
<stop offset="0.882" stop-color="#F2F2F2"/>
<stop offset="0.919" stop-color="#E1E1E1"/>
<stop offset="0.954" stop-color="#C9C9C9"/>
<stop offset="0.966" stop-color="#BFBFBF"/>
<stop offset="1" stop-color="white"/>
</linearGradient>
<linearGradient id="paint20_linear_25532_87169" x1="20.9432" y1="47.5548" x2="59.5443" y2="47.5548" gradientUnits="userSpaceOnUse">
<stop stop-color="#DFDFDF"/>
<stop offset="0.021" stop-color="#E1E1E1"/>
<stop offset="0.244" stop-color="#F2F2F2"/>
<stop offset="0.487" stop-color="#FCFCFC"/>
<stop offset="0.791" stop-color="white"/>
<stop offset="0.841" stop-color="#FCFCFC"/>
<stop offset="0.882" stop-color="#F2F2F2"/>
<stop offset="0.919" stop-color="#E1E1E1"/>
<stop offset="0.954" stop-color="#C9C9C9"/>
<stop offset="0.966" stop-color="#BFBFBF"/>
<stop offset="1" stop-color="white"/>
</linearGradient>
<linearGradient id="paint21_linear_25532_87169" x1="20.9432" y1="43.6317" x2="59.5443" y2="43.6317" gradientUnits="userSpaceOnUse">
<stop stop-color="#DFDFDF"/>
<stop offset="0.021" stop-color="#E1E1E1"/>
<stop offset="0.244" stop-color="#F2F2F2"/>
<stop offset="0.487" stop-color="#FCFCFC"/>
<stop offset="0.791" stop-color="white"/>
<stop offset="0.841" stop-color="#FCFCFC"/>
<stop offset="0.882" stop-color="#F2F2F2"/>
<stop offset="0.919" stop-color="#E1E1E1"/>
<stop offset="0.954" stop-color="#C9C9C9"/>
<stop offset="0.966" stop-color="#BFBFBF"/>
<stop offset="1" stop-color="white"/>
</linearGradient>
<linearGradient id="paint22_linear_25532_87169" x1="20.9388" y1="55.3752" x2="59.5135" y2="55.3752" gradientUnits="userSpaceOnUse">
<stop stop-color="#DFDFDF"/>
<stop offset="0.021" stop-color="#E1E1E1"/>
<stop offset="0.244" stop-color="#F2F2F2"/>
<stop offset="0.487" stop-color="#FCFCFC"/>
<stop offset="0.791" stop-color="white"/>
<stop offset="0.841" stop-color="#FCFCFC"/>
<stop offset="0.882" stop-color="#F2F2F2"/>
<stop offset="0.919" stop-color="#E1E1E1"/>
<stop offset="0.954" stop-color="#C9C9C9"/>
<stop offset="0.966" stop-color="#BFBFBF"/>
<stop offset="1" stop-color="white"/>
</linearGradient>
<linearGradient id="paint23_linear_25532_87169" x1="23.6455" y1="43.75" x2="62.1898" y2="43.75" gradientUnits="userSpaceOnUse">
<stop stop-color="#DFDFDF"/>
<stop offset="0.021" stop-color="#E1E1E1"/>
<stop offset="0.244" stop-color="#F2F2F2"/>
<stop offset="0.487" stop-color="#FCFCFC"/>
<stop offset="0.791" stop-color="white"/>
<stop offset="0.841" stop-color="#FCFCFC"/>
<stop offset="0.882" stop-color="#F2F2F2"/>
<stop offset="0.919" stop-color="#E1E1E1"/>
<stop offset="0.954" stop-color="#C9C9C9"/>
<stop offset="0.966" stop-color="#BFBFBF"/>
<stop offset="1" stop-color="white"/>
</linearGradient>
<linearGradient id="paint24_linear_25532_87169" x1="23.6455" y1="39.8104" x2="62.1898" y2="39.8104" gradientUnits="userSpaceOnUse">
<stop stop-color="#DFDFDF"/>
<stop offset="0.021" stop-color="#E1E1E1"/>
<stop offset="0.244" stop-color="#F2F2F2"/>
<stop offset="0.487" stop-color="#FCFCFC"/>
<stop offset="0.791" stop-color="white"/>
<stop offset="0.841" stop-color="#FCFCFC"/>
<stop offset="0.882" stop-color="#F2F2F2"/>
<stop offset="0.919" stop-color="#E1E1E1"/>
<stop offset="0.954" stop-color="#C9C9C9"/>
<stop offset="0.966" stop-color="#BFBFBF"/>
<stop offset="1" stop-color="white"/>
</linearGradient>
<linearGradient id="paint25_linear_25532_87169" x1="20.9389" y1="51.3937" x2="59.5136" y2="51.3937" gradientUnits="userSpaceOnUse">
<stop stop-color="#DFDFDF"/>
<stop offset="0.021" stop-color="#E1E1E1"/>
<stop offset="0.244" stop-color="#F2F2F2"/>
<stop offset="0.487" stop-color="#FCFCFC"/>
<stop offset="0.791" stop-color="white"/>
<stop offset="0.841" stop-color="#FCFCFC"/>
<stop offset="0.882" stop-color="#F2F2F2"/>
<stop offset="0.919" stop-color="#E1E1E1"/>
<stop offset="0.954" stop-color="#C9C9C9"/>
<stop offset="0.966" stop-color="#BFBFBF"/>
<stop offset="1" stop-color="white"/>
</linearGradient>
<linearGradient id="paint26_linear_25532_87169" x1="21.6141" y1="41.809" x2="60.1742" y2="41.809" gradientUnits="userSpaceOnUse">
<stop stop-color="#DFDFDF"/>
<stop offset="0.021" stop-color="#E1E1E1"/>
<stop offset="0.244" stop-color="#F2F2F2"/>
<stop offset="0.487" stop-color="#FCFCFC"/>
<stop offset="0.791" stop-color="white"/>
<stop offset="0.841" stop-color="#FCFCFC"/>
<stop offset="0.882" stop-color="#F2F2F2"/>
<stop offset="0.919" stop-color="#E1E1E1"/>
<stop offset="0.954" stop-color="#C9C9C9"/>
<stop offset="0.966" stop-color="#BFBFBF"/>
<stop offset="1" stop-color="white"/>
</linearGradient>
<linearGradient id="paint27_linear_25532_87169" x1="21.6141" y1="45.7628" x2="60.1742" y2="45.7628" gradientUnits="userSpaceOnUse">
<stop stop-color="#DFDFDF"/>
<stop offset="0.021" stop-color="#E1E1E1"/>
<stop offset="0.244" stop-color="#F2F2F2"/>
<stop offset="0.487" stop-color="#FCFCFC"/>
<stop offset="0.791" stop-color="white"/>
<stop offset="0.841" stop-color="#FCFCFC"/>
<stop offset="0.882" stop-color="#F2F2F2"/>
<stop offset="0.919" stop-color="#E1E1E1"/>
<stop offset="0.954" stop-color="#C9C9C9"/>
<stop offset="0.966" stop-color="#BFBFBF"/>
<stop offset="1" stop-color="white"/>
</linearGradient>
<linearGradient id="paint28_linear_25532_87169" x1="21.6185" y1="53.6359" x2="60.1945" y2="53.6359" gradientUnits="userSpaceOnUse">
<stop stop-color="#DFDFDF"/>
<stop offset="0.021" stop-color="#E1E1E1"/>
<stop offset="0.244" stop-color="#F2F2F2"/>
<stop offset="0.487" stop-color="#FCFCFC"/>
<stop offset="0.791" stop-color="white"/>
<stop offset="0.841" stop-color="#FCFCFC"/>
<stop offset="0.882" stop-color="#F2F2F2"/>
<stop offset="0.919" stop-color="#E1E1E1"/>
<stop offset="0.954" stop-color="#C9C9C9"/>
<stop offset="0.966" stop-color="#BFBFBF"/>
<stop offset="1" stop-color="white"/>
</linearGradient>
<linearGradient id="paint29_linear_25532_87169" x1="21.6141" y1="49.7061" x2="60.1742" y2="49.7061" gradientUnits="userSpaceOnUse">
<stop stop-color="#DFDFDF"/>
<stop offset="0.021" stop-color="#E1E1E1"/>
<stop offset="0.244" stop-color="#F2F2F2"/>
<stop offset="0.487" stop-color="#FCFCFC"/>
<stop offset="0.791" stop-color="white"/>
<stop offset="0.841" stop-color="#FCFCFC"/>
<stop offset="0.882" stop-color="#F2F2F2"/>
<stop offset="0.919" stop-color="#E1E1E1"/>
<stop offset="0.954" stop-color="#C9C9C9"/>
<stop offset="0.966" stop-color="#BFBFBF"/>
<stop offset="1" stop-color="white"/>
</linearGradient>
<linearGradient id="paint30_linear_25532_87169" x1="20.952" y1="39.7214" x2="59.5837" y2="39.7214" gradientUnits="userSpaceOnUse">
<stop stop-color="#DFDFDF"/>
<stop offset="0.021" stop-color="#E1E1E1"/>
<stop offset="0.244" stop-color="#F2F2F2"/>
<stop offset="0.487" stop-color="#FCFCFC"/>
<stop offset="0.791" stop-color="white"/>
<stop offset="0.841" stop-color="#FCFCFC"/>
<stop offset="0.882" stop-color="#F2F2F2"/>
<stop offset="0.919" stop-color="#E1E1E1"/>
<stop offset="0.954" stop-color="#C9C9C9"/>
<stop offset="0.966" stop-color="#BFBFBF"/>
<stop offset="1" stop-color="white"/>
</linearGradient>
<linearGradient id="paint31_linear_25532_87169" x1="24.3076" y1="49.6763" x2="62.8157" y2="49.6763" gradientUnits="userSpaceOnUse">
<stop stop-color="#DFDFDF"/>
<stop offset="0.021" stop-color="#E1E1E1"/>
<stop offset="0.244" stop-color="#F2F2F2"/>
<stop offset="0.487" stop-color="#FCFCFC"/>
<stop offset="0.791" stop-color="white"/>
<stop offset="0.841" stop-color="#FCFCFC"/>
<stop offset="0.882" stop-color="#F2F2F2"/>
<stop offset="0.919" stop-color="#E1E1E1"/>
<stop offset="0.954" stop-color="#C9C9C9"/>
<stop offset="0.966" stop-color="#BFBFBF"/>
<stop offset="1" stop-color="white"/>
</linearGradient>
<linearGradient id="paint32_linear_25532_87169" x1="27.0505" y1="49.0979" x2="65.6417" y2="49.0979" gradientUnits="userSpaceOnUse">
<stop stop-color="#DFDFDF"/>
<stop offset="0.021" stop-color="#E1E1E1"/>
<stop offset="0.244" stop-color="#F2F2F2"/>
<stop offset="0.487" stop-color="#FCFCFC"/>
<stop offset="0.791" stop-color="white"/>
<stop offset="0.841" stop-color="#FCFCFC"/>
<stop offset="0.882" stop-color="#F2F2F2"/>
<stop offset="0.919" stop-color="#E1E1E1"/>
<stop offset="0.954" stop-color="#C9C9C9"/>
<stop offset="0.966" stop-color="#BFBFBF"/>
<stop offset="1" stop-color="white"/>
</linearGradient>
<linearGradient id="paint33_linear_25532_87169" x1="27.055" y1="45.0741" x2="65.6621" y2="45.0741" gradientUnits="userSpaceOnUse">
<stop stop-color="#DFDFDF"/>
<stop offset="0.021" stop-color="#E1E1E1"/>
<stop offset="0.244" stop-color="#F2F2F2"/>
<stop offset="0.487" stop-color="#FCFCFC"/>
<stop offset="0.791" stop-color="white"/>
<stop offset="0.841" stop-color="#FCFCFC"/>
<stop offset="0.882" stop-color="#F2F2F2"/>
<stop offset="0.919" stop-color="#E1E1E1"/>
<stop offset="0.954" stop-color="#C9C9C9"/>
<stop offset="0.966" stop-color="#BFBFBF"/>
<stop offset="1" stop-color="white"/>
</linearGradient>
<linearGradient id="paint34_linear_25532_87169" x1="27.0462" y1="53.1113" x2="65.6215" y2="53.1113" gradientUnits="userSpaceOnUse">
<stop stop-color="#DFDFDF"/>
<stop offset="0.021" stop-color="#E1E1E1"/>
<stop offset="0.244" stop-color="#F2F2F2"/>
<stop offset="0.487" stop-color="#FCFCFC"/>
<stop offset="0.791" stop-color="white"/>
<stop offset="0.841" stop-color="#FCFCFC"/>
<stop offset="0.882" stop-color="#F2F2F2"/>
<stop offset="0.919" stop-color="#E1E1E1"/>
<stop offset="0.954" stop-color="#C9C9C9"/>
<stop offset="0.966" stop-color="#BFBFBF"/>
<stop offset="1" stop-color="white"/>
</linearGradient>
<linearGradient id="paint35_linear_25532_87169" x1="26.3234" y1="43.2932" x2="64.7753" y2="43.2932" gradientUnits="userSpaceOnUse">
<stop stop-color="#DFDFDF"/>
<stop offset="0.021" stop-color="#E1E1E1"/>
<stop offset="0.244" stop-color="#F2F2F2"/>
<stop offset="0.487" stop-color="#FCFCFC"/>
<stop offset="0.791" stop-color="white"/>
<stop offset="0.841" stop-color="#FCFCFC"/>
<stop offset="0.882" stop-color="#F2F2F2"/>
<stop offset="0.919" stop-color="#E1E1E1"/>
<stop offset="0.954" stop-color="#C9C9C9"/>
<stop offset="0.966" stop-color="#BFBFBF"/>
<stop offset="1" stop-color="white"/>
</linearGradient>
<linearGradient id="paint36_linear_25532_87169" x1="27.06" y1="41.0848" x2="65.6819" y2="41.0848" gradientUnits="userSpaceOnUse">
<stop stop-color="#DFDFDF"/>
<stop offset="0.021" stop-color="#E1E1E1"/>
<stop offset="0.244" stop-color="#F2F2F2"/>
<stop offset="0.487" stop-color="#FCFCFC"/>
<stop offset="0.791" stop-color="white"/>
<stop offset="0.841" stop-color="#FCFCFC"/>
<stop offset="0.882" stop-color="#F2F2F2"/>
<stop offset="0.919" stop-color="#E1E1E1"/>
<stop offset="0.954" stop-color="#C9C9C9"/>
<stop offset="0.966" stop-color="#BFBFBF"/>
<stop offset="1" stop-color="white"/>
</linearGradient>
<linearGradient id="paint37_linear_25532_87169" x1="26.3234" y1="39.2694" x2="64.7753" y2="39.2694" gradientUnits="userSpaceOnUse">
<stop stop-color="#DFDFDF"/>
<stop offset="0.021" stop-color="#E1E1E1"/>
<stop offset="0.244" stop-color="#F2F2F2"/>
<stop offset="0.487" stop-color="#FCFCFC"/>
<stop offset="0.791" stop-color="white"/>
<stop offset="0.841" stop-color="#FCFCFC"/>
<stop offset="0.882" stop-color="#F2F2F2"/>
<stop offset="0.919" stop-color="#E1E1E1"/>
<stop offset="0.954" stop-color="#C9C9C9"/>
<stop offset="0.966" stop-color="#BFBFBF"/>
<stop offset="1" stop-color="white"/>
</linearGradient>
<linearGradient id="paint38_linear_25532_87169" x1="27.6988" y1="46.8631" x2="66.1812" y2="46.8631" gradientUnits="userSpaceOnUse">
<stop stop-color="#DFDFDF"/>
<stop offset="0.021" stop-color="#E1E1E1"/>
<stop offset="0.244" stop-color="#F2F2F2"/>
<stop offset="0.487" stop-color="#FCFCFC"/>
<stop offset="0.791" stop-color="white"/>
<stop offset="0.841" stop-color="#FCFCFC"/>
<stop offset="0.882" stop-color="#F2F2F2"/>
<stop offset="0.919" stop-color="#E1E1E1"/>
<stop offset="0.954" stop-color="#C9C9C9"/>
<stop offset="0.966" stop-color="#BFBFBF"/>
<stop offset="1" stop-color="white"/>
</linearGradient>
<linearGradient id="paint39_linear_25532_87169" x1="27.6988" y1="42.8431" x2="66.1812" y2="42.8431" gradientUnits="userSpaceOnUse">
<stop stop-color="#DFDFDF"/>
<stop offset="0.021" stop-color="#E1E1E1"/>
<stop offset="0.244" stop-color="#F2F2F2"/>
<stop offset="0.487" stop-color="#FCFCFC"/>
<stop offset="0.791" stop-color="white"/>
<stop offset="0.841" stop-color="#FCFCFC"/>
<stop offset="0.882" stop-color="#F2F2F2"/>
<stop offset="0.919" stop-color="#E1E1E1"/>
<stop offset="0.954" stop-color="#C9C9C9"/>
<stop offset="0.966" stop-color="#BFBFBF"/>
<stop offset="1" stop-color="white"/>
</linearGradient>
<linearGradient id="paint40_linear_25532_87169" x1="27.695" y1="54.9346" x2="66.1601" y2="54.9346" gradientUnits="userSpaceOnUse">
<stop stop-color="#DFDFDF"/>
<stop offset="0.021" stop-color="#E1E1E1"/>
<stop offset="0.244" stop-color="#F2F2F2"/>
<stop offset="0.487" stop-color="#FCFCFC"/>
<stop offset="0.791" stop-color="white"/>
<stop offset="0.841" stop-color="#FCFCFC"/>
<stop offset="0.882" stop-color="#F2F2F2"/>
<stop offset="0.919" stop-color="#E1E1E1"/>
<stop offset="0.954" stop-color="#C9C9C9"/>
<stop offset="0.966" stop-color="#BFBFBF"/>
<stop offset="1" stop-color="white"/>
</linearGradient>
<linearGradient id="paint41_linear_25532_87169" x1="27.7032" y1="38.8208" x2="66.2015" y2="38.8208" gradientUnits="userSpaceOnUse">
<stop stop-color="#DFDFDF"/>
<stop offset="0.021" stop-color="#E1E1E1"/>
<stop offset="0.244" stop-color="#F2F2F2"/>
<stop offset="0.487" stop-color="#FCFCFC"/>
<stop offset="0.791" stop-color="white"/>
<stop offset="0.841" stop-color="#FCFCFC"/>
<stop offset="0.882" stop-color="#F2F2F2"/>
<stop offset="0.919" stop-color="#E1E1E1"/>
<stop offset="0.954" stop-color="#C9C9C9"/>
<stop offset="0.966" stop-color="#BFBFBF"/>
<stop offset="1" stop-color="white"/>
</linearGradient>
<linearGradient id="paint42_linear_25532_87169" x1="27.6944" y1="50.8717" x2="66.1608" y2="50.8717" gradientUnits="userSpaceOnUse">
<stop stop-color="#DFDFDF"/>
<stop offset="0.021" stop-color="#E1E1E1"/>
<stop offset="0.244" stop-color="#F2F2F2"/>
<stop offset="0.487" stop-color="#FCFCFC"/>
<stop offset="0.791" stop-color="white"/>
<stop offset="0.841" stop-color="#FCFCFC"/>
<stop offset="0.882" stop-color="#F2F2F2"/>
<stop offset="0.919" stop-color="#E1E1E1"/>
<stop offset="0.954" stop-color="#C9C9C9"/>
<stop offset="0.966" stop-color="#BFBFBF"/>
<stop offset="1" stop-color="white"/>
</linearGradient>
<linearGradient id="paint43_linear_25532_87169" x1="26.3279" y1="47.2975" x2="64.7958" y2="47.2975" gradientUnits="userSpaceOnUse">
<stop stop-color="#DFDFDF"/>
<stop offset="0.021" stop-color="#E1E1E1"/>
<stop offset="0.244" stop-color="#F2F2F2"/>
<stop offset="0.487" stop-color="#FCFCFC"/>
<stop offset="0.791" stop-color="white"/>
<stop offset="0.841" stop-color="#FCFCFC"/>
<stop offset="0.882" stop-color="#F2F2F2"/>
<stop offset="0.919" stop-color="#E1E1E1"/>
<stop offset="0.954" stop-color="#C9C9C9"/>
<stop offset="0.966" stop-color="#BFBFBF"/>
<stop offset="1" stop-color="white"/>
</linearGradient>
<linearGradient id="paint44_linear_25532_87169" x1="24.312" y1="41.75" x2="62.836" y2="41.75" gradientUnits="userSpaceOnUse">
<stop stop-color="#DFDFDF"/>
<stop offset="0.021" stop-color="#E1E1E1"/>
<stop offset="0.244" stop-color="#F2F2F2"/>
<stop offset="0.487" stop-color="#FCFCFC"/>
<stop offset="0.791" stop-color="white"/>
<stop offset="0.841" stop-color="#FCFCFC"/>
<stop offset="0.882" stop-color="#F2F2F2"/>
<stop offset="0.919" stop-color="#E1E1E1"/>
<stop offset="0.954" stop-color="#C9C9C9"/>
<stop offset="0.966" stop-color="#BFBFBF"/>
<stop offset="1" stop-color="white"/>
</linearGradient>
<linearGradient id="paint45_linear_25532_87169" x1="25.0079" y1="51.5708" x2="63.568" y2="51.5708" gradientUnits="userSpaceOnUse">
<stop stop-color="#DFDFDF"/>
<stop offset="0.021" stop-color="#E1E1E1"/>
<stop offset="0.244" stop-color="#F2F2F2"/>
<stop offset="0.487" stop-color="#FCFCFC"/>
<stop offset="0.791" stop-color="white"/>
<stop offset="0.841" stop-color="#FCFCFC"/>
<stop offset="0.882" stop-color="#F2F2F2"/>
<stop offset="0.919" stop-color="#E1E1E1"/>
<stop offset="0.954" stop-color="#C9C9C9"/>
<stop offset="0.966" stop-color="#BFBFBF"/>
<stop offset="1" stop-color="white"/>
</linearGradient>
<linearGradient id="paint46_linear_25532_87169" x1="26.3279" y1="51.2885" x2="64.7958" y2="51.2885" gradientUnits="userSpaceOnUse">
<stop stop-color="#DFDFDF"/>
<stop offset="0.021" stop-color="#E1E1E1"/>
<stop offset="0.244" stop-color="#F2F2F2"/>
<stop offset="0.487" stop-color="#FCFCFC"/>
<stop offset="0.791" stop-color="white"/>
<stop offset="0.841" stop-color="#FCFCFC"/>
<stop offset="0.882" stop-color="#F2F2F2"/>
<stop offset="0.919" stop-color="#E1E1E1"/>
<stop offset="0.954" stop-color="#C9C9C9"/>
<stop offset="0.966" stop-color="#BFBFBF"/>
<stop offset="1" stop-color="white"/>
</linearGradient>
<linearGradient id="paint47_linear_25532_87169" x1="25.0123" y1="43.6032" x2="63.5883" y2="43.6032" gradientUnits="userSpaceOnUse">
<stop stop-color="#DFDFDF"/>
<stop offset="0.021" stop-color="#E1E1E1"/>
<stop offset="0.244" stop-color="#F2F2F2"/>
<stop offset="0.487" stop-color="#FCFCFC"/>
<stop offset="0.791" stop-color="white"/>
<stop offset="0.841" stop-color="#FCFCFC"/>
<stop offset="0.882" stop-color="#F2F2F2"/>
<stop offset="0.919" stop-color="#E1E1E1"/>
<stop offset="0.954" stop-color="#C9C9C9"/>
<stop offset="0.966" stop-color="#BFBFBF"/>
<stop offset="1" stop-color="white"/>
</linearGradient>
<linearGradient id="paint48_linear_25532_87169" x1="25.0079" y1="55.5706" x2="63.568" y2="55.5706" gradientUnits="userSpaceOnUse">
<stop stop-color="#DFDFDF"/>
<stop offset="0.021" stop-color="#E1E1E1"/>
<stop offset="0.244" stop-color="#F2F2F2"/>
<stop offset="0.487" stop-color="#FCFCFC"/>
<stop offset="0.791" stop-color="white"/>
<stop offset="0.841" stop-color="#FCFCFC"/>
<stop offset="0.882" stop-color="#F2F2F2"/>
<stop offset="0.919" stop-color="#E1E1E1"/>
<stop offset="0.954" stop-color="#C9C9C9"/>
<stop offset="0.966" stop-color="#BFBFBF"/>
<stop offset="1" stop-color="white"/>
</linearGradient>
<linearGradient id="paint49_linear_25532_87169" x1="24.3076" y1="45.7145" x2="62.8157" y2="45.7145" gradientUnits="userSpaceOnUse">
<stop stop-color="#DFDFDF"/>
<stop offset="0.021" stop-color="#E1E1E1"/>
<stop offset="0.244" stop-color="#F2F2F2"/>
<stop offset="0.487" stop-color="#FCFCFC"/>
<stop offset="0.791" stop-color="white"/>
<stop offset="0.841" stop-color="#FCFCFC"/>
<stop offset="0.882" stop-color="#F2F2F2"/>
<stop offset="0.919" stop-color="#E1E1E1"/>
<stop offset="0.954" stop-color="#C9C9C9"/>
<stop offset="0.966" stop-color="#BFBFBF"/>
<stop offset="1" stop-color="white"/>
</linearGradient>
<linearGradient id="paint50_linear_25532_87169" x1="25.0143" y1="39.6077" x2="63.6154" y2="39.6077" gradientUnits="userSpaceOnUse">
<stop stop-color="#DFDFDF"/>
<stop offset="0.021" stop-color="#E1E1E1"/>
<stop offset="0.244" stop-color="#F2F2F2"/>
<stop offset="0.487" stop-color="#FCFCFC"/>
<stop offset="0.791" stop-color="white"/>
<stop offset="0.841" stop-color="#FCFCFC"/>
<stop offset="0.882" stop-color="#F2F2F2"/>
<stop offset="0.919" stop-color="#E1E1E1"/>
<stop offset="0.954" stop-color="#C9C9C9"/>
<stop offset="0.966" stop-color="#BFBFBF"/>
<stop offset="1" stop-color="white"/>
</linearGradient>
<linearGradient id="paint51_linear_25532_87169" x1="25.0123" y1="47.6631" x2="63.5883" y2="47.6631" gradientUnits="userSpaceOnUse">
<stop stop-color="#DFDFDF"/>
<stop offset="0.021" stop-color="#E1E1E1"/>
<stop offset="0.244" stop-color="#F2F2F2"/>
<stop offset="0.487" stop-color="#FCFCFC"/>
<stop offset="0.791" stop-color="white"/>
<stop offset="0.841" stop-color="#FCFCFC"/>
<stop offset="0.882" stop-color="#F2F2F2"/>
<stop offset="0.919" stop-color="#E1E1E1"/>
<stop offset="0.954" stop-color="#C9C9C9"/>
<stop offset="0.966" stop-color="#BFBFBF"/>
<stop offset="1" stop-color="white"/>
</linearGradient>
<linearGradient id="paint52_linear_25532_87169" x1="26.3259" y1="55.3073" x2="64.7936" y2="55.3073" gradientUnits="userSpaceOnUse">
<stop stop-color="#DFDFDF"/>
<stop offset="0.021" stop-color="#E1E1E1"/>
<stop offset="0.244" stop-color="#F2F2F2"/>
<stop offset="0.487" stop-color="#FCFCFC"/>
<stop offset="0.791" stop-color="white"/>
<stop offset="0.841" stop-color="#FCFCFC"/>
<stop offset="0.882" stop-color="#F2F2F2"/>
<stop offset="0.919" stop-color="#E1E1E1"/>
<stop offset="0.954" stop-color="#C9C9C9"/>
<stop offset="0.966" stop-color="#BFBFBF"/>
<stop offset="1" stop-color="white"/>
</linearGradient>
<linearGradient id="paint53_linear_25532_87169" x1="25.6769" y1="53.5257" x2="64.2058" y2="53.5257" gradientUnits="userSpaceOnUse">
<stop stop-color="#DFDFDF"/>
<stop offset="0.021" stop-color="#E1E1E1"/>
<stop offset="0.244" stop-color="#F2F2F2"/>
<stop offset="0.487" stop-color="#FCFCFC"/>
<stop offset="0.791" stop-color="white"/>
<stop offset="0.841" stop-color="#FCFCFC"/>
<stop offset="0.882" stop-color="#F2F2F2"/>
<stop offset="0.919" stop-color="#E1E1E1"/>
<stop offset="0.954" stop-color="#C9C9C9"/>
<stop offset="0.966" stop-color="#BFBFBF"/>
<stop offset="1" stop-color="white"/>
</linearGradient>
<linearGradient id="paint54_linear_25532_87169" x1="25.6769" y1="41.5146" x2="64.2057" y2="41.5146" gradientUnits="userSpaceOnUse">
<stop stop-color="#DFDFDF"/>
<stop offset="0.021" stop-color="#E1E1E1"/>
<stop offset="0.244" stop-color="#F2F2F2"/>
<stop offset="0.487" stop-color="#FCFCFC"/>
<stop offset="0.791" stop-color="white"/>
<stop offset="0.841" stop-color="#FCFCFC"/>
<stop offset="0.882" stop-color="#F2F2F2"/>
<stop offset="0.919" stop-color="#E1E1E1"/>
<stop offset="0.954" stop-color="#C9C9C9"/>
<stop offset="0.966" stop-color="#BFBFBF"/>
<stop offset="1" stop-color="white"/>
</linearGradient>
<linearGradient id="paint55_linear_25532_87169" x1="25.6813" y1="49.4862" x2="64.226" y2="49.4862" gradientUnits="userSpaceOnUse">
<stop stop-color="#DFDFDF"/>
<stop offset="0.021" stop-color="#E1E1E1"/>
<stop offset="0.244" stop-color="#F2F2F2"/>
<stop offset="0.487" stop-color="#FCFCFC"/>
<stop offset="0.791" stop-color="white"/>
<stop offset="0.841" stop-color="#FCFCFC"/>
<stop offset="0.882" stop-color="#F2F2F2"/>
<stop offset="0.919" stop-color="#E1E1E1"/>
<stop offset="0.954" stop-color="#C9C9C9"/>
<stop offset="0.966" stop-color="#BFBFBF"/>
<stop offset="1" stop-color="white"/>
</linearGradient>
<linearGradient id="paint56_linear_25532_87169" x1="25.6813" y1="45.4403" x2="64.2262" y2="45.4403" gradientUnits="userSpaceOnUse">
<stop stop-color="#DFDFDF"/>
<stop offset="0.021" stop-color="#E1E1E1"/>
<stop offset="0.244" stop-color="#F2F2F2"/>
<stop offset="0.487" stop-color="#FCFCFC"/>
<stop offset="0.791" stop-color="white"/>
<stop offset="0.841" stop-color="#FCFCFC"/>
<stop offset="0.882" stop-color="#F2F2F2"/>
<stop offset="0.919" stop-color="#E1E1E1"/>
<stop offset="0.954" stop-color="#C9C9C9"/>
<stop offset="0.966" stop-color="#BFBFBF"/>
<stop offset="1" stop-color="white"/>
</linearGradient>
<clipPath id="clip0_25532_87169">
<rect width="20" height="20" fill="white" transform="translate(6 6)"/>
</clipPath>
</defs>
</svg>
